G04 #@! TF.GenerationSoftware,KiCad,Pcbnew,6.0.9-8da3e8f707~117~ubuntu22.04.1*
G04 #@! TF.CreationDate,2022-12-19T13:51:41+00:00*
G04 #@! TF.ProjectId,gauge_servo,67617567-655f-4736-9572-766f2e6b6963,rev?*
G04 #@! TF.SameCoordinates,Original*
G04 #@! TF.FileFunction,Legend,Bot*
G04 #@! TF.FilePolarity,Positive*
%FSLAX46Y46*%
G04 Gerber Fmt 4.6, Leading zero omitted, Abs format (unit mm)*
G04 Created by KiCad (PCBNEW 6.0.9-8da3e8f707~117~ubuntu22.04.1) date 2022-12-19 13:51:41*
%MOMM*%
%LPD*%
G01*
G04 APERTURE LIST*
%ADD10C,0.200000*%
%ADD11C,0.150000*%
%ADD12C,0.120000*%
G04 APERTURE END LIST*
D10*
X125142857Y-93850000D02*
X125285714Y-93778571D01*
X125500000Y-93778571D01*
X125714285Y-93850000D01*
X125857142Y-93992857D01*
X125928571Y-94135714D01*
X126000000Y-94421428D01*
X126000000Y-94635714D01*
X125928571Y-94921428D01*
X125857142Y-95064285D01*
X125714285Y-95207142D01*
X125500000Y-95278571D01*
X125357142Y-95278571D01*
X125142857Y-95207142D01*
X125071428Y-95135714D01*
X125071428Y-94635714D01*
X125357142Y-94635714D01*
X124428571Y-95278571D02*
X124428571Y-93778571D01*
X123571428Y-95278571D01*
X123571428Y-93778571D01*
X122857142Y-95278571D02*
X122857142Y-93778571D01*
X122500000Y-93778571D01*
X122285714Y-93850000D01*
X122142857Y-93992857D01*
X122071428Y-94135714D01*
X122000000Y-94421428D01*
X122000000Y-94635714D01*
X122071428Y-94921428D01*
X122142857Y-95064285D01*
X122285714Y-95207142D01*
X122500000Y-95278571D01*
X122857142Y-95278571D01*
X156492857Y-90564285D02*
X156564285Y-90778571D01*
X156635714Y-90850000D01*
X156778571Y-90921428D01*
X156992857Y-90921428D01*
X157135714Y-90850000D01*
X157207142Y-90778571D01*
X157278571Y-90635714D01*
X157278571Y-90064285D01*
X155778571Y-90064285D01*
X155778571Y-90564285D01*
X155850000Y-90707142D01*
X155921428Y-90778571D01*
X156064285Y-90850000D01*
X156207142Y-90850000D01*
X156350000Y-90778571D01*
X156421428Y-90707142D01*
X156492857Y-90564285D01*
X156492857Y-90064285D01*
X155778571Y-91850000D02*
X155778571Y-92135714D01*
X155850000Y-92278571D01*
X155992857Y-92421428D01*
X156278571Y-92492857D01*
X156778571Y-92492857D01*
X157064285Y-92421428D01*
X157207142Y-92278571D01*
X157278571Y-92135714D01*
X157278571Y-91850000D01*
X157207142Y-91707142D01*
X157064285Y-91564285D01*
X156778571Y-91492857D01*
X156278571Y-91492857D01*
X155992857Y-91564285D01*
X155850000Y-91707142D01*
X155778571Y-91850000D01*
X155778571Y-93421428D02*
X155778571Y-93707142D01*
X155850000Y-93850000D01*
X155992857Y-93992857D01*
X156278571Y-94064285D01*
X156778571Y-94064285D01*
X157064285Y-93992857D01*
X157207142Y-93850000D01*
X157278571Y-93707142D01*
X157278571Y-93421428D01*
X157207142Y-93278571D01*
X157064285Y-93135714D01*
X156778571Y-93064285D01*
X156278571Y-93064285D01*
X155992857Y-93135714D01*
X155850000Y-93278571D01*
X155778571Y-93421428D01*
X155778571Y-94492857D02*
X155778571Y-95350000D01*
X157278571Y-94921428D02*
X155778571Y-94921428D01*
X127442857Y-92307142D02*
X126300000Y-92307142D01*
X126871428Y-92878571D02*
X126871428Y-91735714D01*
X124800000Y-92878571D02*
X125657142Y-92878571D01*
X125228571Y-92878571D02*
X125228571Y-91378571D01*
X125371428Y-91592857D01*
X125514285Y-91735714D01*
X125657142Y-91807142D01*
X124228571Y-91521428D02*
X124157142Y-91450000D01*
X124014285Y-91378571D01*
X123657142Y-91378571D01*
X123514285Y-91450000D01*
X123442857Y-91521428D01*
X123371428Y-91664285D01*
X123371428Y-91807142D01*
X123442857Y-92021428D01*
X124300000Y-92878571D01*
X123371428Y-92878571D01*
X122942857Y-91378571D02*
X122442857Y-92878571D01*
X121942857Y-91378571D01*
X143707142Y-89957142D02*
X143707142Y-91100000D01*
X144278571Y-90528571D02*
X143135714Y-90528571D01*
X142778571Y-91671428D02*
X142778571Y-92600000D01*
X143350000Y-92100000D01*
X143350000Y-92314285D01*
X143421428Y-92457142D01*
X143492857Y-92528571D01*
X143635714Y-92600000D01*
X143992857Y-92600000D01*
X144135714Y-92528571D01*
X144207142Y-92457142D01*
X144278571Y-92314285D01*
X144278571Y-91885714D01*
X144207142Y-91742857D01*
X144135714Y-91671428D01*
X142778571Y-93028571D02*
X144278571Y-93528571D01*
X142778571Y-94028571D01*
X142778571Y-94385714D02*
X142778571Y-95314285D01*
X143350000Y-94814285D01*
X143350000Y-95028571D01*
X143421428Y-95171428D01*
X143492857Y-95242857D01*
X143635714Y-95314285D01*
X143992857Y-95314285D01*
X144135714Y-95242857D01*
X144207142Y-95171428D01*
X144278571Y-95028571D01*
X144278571Y-94600000D01*
X144207142Y-94457142D01*
X144135714Y-94385714D01*
X170250000Y-79157142D02*
X170178571Y-79014285D01*
X170178571Y-78800000D01*
X170250000Y-78585714D01*
X170392857Y-78442857D01*
X170535714Y-78371428D01*
X170821428Y-78300000D01*
X171035714Y-78300000D01*
X171321428Y-78371428D01*
X171464285Y-78442857D01*
X171607142Y-78585714D01*
X171678571Y-78800000D01*
X171678571Y-78942857D01*
X171607142Y-79157142D01*
X171535714Y-79228571D01*
X171035714Y-79228571D01*
X171035714Y-78942857D01*
X171678571Y-79871428D02*
X170178571Y-79871428D01*
X171678571Y-80728571D01*
X170178571Y-80728571D01*
X171678571Y-81442857D02*
X170178571Y-81442857D01*
X170178571Y-81800000D01*
X170250000Y-82014285D01*
X170392857Y-82157142D01*
X170535714Y-82228571D01*
X170821428Y-82300000D01*
X171035714Y-82300000D01*
X171321428Y-82228571D01*
X171464285Y-82157142D01*
X171607142Y-82014285D01*
X171678571Y-81800000D01*
X171678571Y-81442857D01*
X124900000Y-90078571D02*
X124900000Y-88578571D01*
X124185714Y-90078571D02*
X124185714Y-88578571D01*
X123328571Y-90078571D01*
X123328571Y-88578571D01*
X121828571Y-90078571D02*
X122685714Y-90078571D01*
X122257142Y-90078571D02*
X122257142Y-88578571D01*
X122400000Y-88792857D01*
X122542857Y-88935714D01*
X122685714Y-89007142D01*
X161678571Y-117607142D02*
X160178571Y-117607142D01*
X161678571Y-118464285D01*
X160178571Y-118464285D01*
X161678571Y-119178571D02*
X160178571Y-119178571D01*
X160178571Y-119750000D01*
X160250000Y-119892857D01*
X160321428Y-119964285D01*
X160464285Y-120035714D01*
X160678571Y-120035714D01*
X160821428Y-119964285D01*
X160892857Y-119892857D01*
X160964285Y-119750000D01*
X160964285Y-119178571D01*
X160178571Y-120535714D02*
X161678571Y-121535714D01*
X160178571Y-121535714D02*
X161678571Y-120535714D01*
X162150000Y-112178571D02*
X162864285Y-112178571D01*
X162864285Y-110678571D01*
X161650000Y-112178571D02*
X161650000Y-110678571D01*
X160935714Y-112178571D02*
X160935714Y-110678571D01*
X160435714Y-111750000D01*
X159935714Y-110678571D01*
X159935714Y-112178571D01*
X182142857Y-110050000D02*
X182285714Y-109978571D01*
X182500000Y-109978571D01*
X182714285Y-110050000D01*
X182857142Y-110192857D01*
X182928571Y-110335714D01*
X183000000Y-110621428D01*
X183000000Y-110835714D01*
X182928571Y-111121428D01*
X182857142Y-111264285D01*
X182714285Y-111407142D01*
X182500000Y-111478571D01*
X182357142Y-111478571D01*
X182142857Y-111407142D01*
X182071428Y-111335714D01*
X182071428Y-110835714D01*
X182357142Y-110835714D01*
X181428571Y-111478571D02*
X181428571Y-109978571D01*
X180571428Y-111478571D01*
X180571428Y-109978571D01*
X179857142Y-111478571D02*
X179857142Y-109978571D01*
X179500000Y-109978571D01*
X179285714Y-110050000D01*
X179142857Y-110192857D01*
X179071428Y-110335714D01*
X179000000Y-110621428D01*
X179000000Y-110835714D01*
X179071428Y-111121428D01*
X179142857Y-111264285D01*
X179285714Y-111407142D01*
X179500000Y-111478571D01*
X179857142Y-111478571D01*
X162928571Y-116107142D02*
X161785714Y-116107142D01*
X162357142Y-116678571D02*
X162357142Y-115535714D01*
X160357142Y-115178571D02*
X161071428Y-115178571D01*
X161142857Y-115892857D01*
X161071428Y-115821428D01*
X160928571Y-115750000D01*
X160571428Y-115750000D01*
X160428571Y-115821428D01*
X160357142Y-115892857D01*
X160285714Y-116035714D01*
X160285714Y-116392857D01*
X160357142Y-116535714D01*
X160428571Y-116607142D01*
X160571428Y-116678571D01*
X160928571Y-116678571D01*
X161071428Y-116607142D01*
X161142857Y-116535714D01*
X159857142Y-115178571D02*
X159357142Y-116678571D01*
X158857142Y-115178571D01*
X168307142Y-78157142D02*
X168307142Y-79300000D01*
X168878571Y-78728571D02*
X167735714Y-78728571D01*
X167378571Y-79871428D02*
X167378571Y-80800000D01*
X167950000Y-80300000D01*
X167950000Y-80514285D01*
X168021428Y-80657142D01*
X168092857Y-80728571D01*
X168235714Y-80800000D01*
X168592857Y-80800000D01*
X168735714Y-80728571D01*
X168807142Y-80657142D01*
X168878571Y-80514285D01*
X168878571Y-80085714D01*
X168807142Y-79942857D01*
X168735714Y-79871428D01*
X167378571Y-81228571D02*
X168878571Y-81728571D01*
X167378571Y-82228571D01*
X167378571Y-82585714D02*
X167378571Y-83514285D01*
X167950000Y-83014285D01*
X167950000Y-83228571D01*
X168021428Y-83371428D01*
X168092857Y-83442857D01*
X168235714Y-83514285D01*
X168592857Y-83514285D01*
X168735714Y-83442857D01*
X168807142Y-83371428D01*
X168878571Y-83228571D01*
X168878571Y-82800000D01*
X168807142Y-82657142D01*
X168735714Y-82585714D01*
X180485714Y-112578571D02*
X181200000Y-112578571D01*
X181271428Y-113292857D01*
X181200000Y-113221428D01*
X181057142Y-113150000D01*
X180700000Y-113150000D01*
X180557142Y-113221428D01*
X180485714Y-113292857D01*
X180414285Y-113435714D01*
X180414285Y-113792857D01*
X180485714Y-113935714D01*
X180557142Y-114007142D01*
X180700000Y-114078571D01*
X181057142Y-114078571D01*
X181200000Y-114007142D01*
X181271428Y-113935714D01*
X179985714Y-112578571D02*
X179485714Y-114078571D01*
X178985714Y-112578571D01*
X147778571Y-91128571D02*
X147778571Y-91985714D01*
X149278571Y-91557142D02*
X147778571Y-91557142D01*
X147778571Y-92342857D02*
X149278571Y-93342857D01*
X147778571Y-93342857D02*
X149278571Y-92342857D01*
X149278571Y-94985714D02*
X148135714Y-94985714D01*
X149207142Y-94914285D02*
X148207142Y-94914285D01*
X149207142Y-94842857D02*
X148207142Y-94842857D01*
X149135714Y-94771428D02*
X148278571Y-94771428D01*
X149135714Y-94700000D02*
X148278571Y-94700000D01*
X149064285Y-94628571D02*
X148350000Y-94628571D01*
X149064285Y-94557142D02*
X148350000Y-94557142D01*
X148992857Y-94485714D02*
X148421428Y-94485714D01*
X148921428Y-94414285D02*
X148492857Y-94414285D01*
X148921428Y-94342857D02*
X148492857Y-94342857D01*
X148850000Y-94271428D02*
X148564285Y-94271428D01*
X148850000Y-94200000D02*
X148564285Y-94200000D01*
X148707142Y-94128571D02*
X148707142Y-94057142D01*
X148778571Y-94128571D02*
X148635714Y-94128571D01*
X149278571Y-95057142D02*
X148707142Y-93985714D01*
X148135714Y-95057142D01*
X148707142Y-93914285D02*
X148064285Y-95057142D01*
X149350000Y-95057142D01*
X148707142Y-93914285D01*
X166428571Y-121107142D02*
X165285714Y-121107142D01*
X165857142Y-121678571D02*
X165857142Y-120535714D01*
X163857142Y-120178571D02*
X164571428Y-120178571D01*
X164642857Y-120892857D01*
X164571428Y-120821428D01*
X164428571Y-120750000D01*
X164071428Y-120750000D01*
X163928571Y-120821428D01*
X163857142Y-120892857D01*
X163785714Y-121035714D01*
X163785714Y-121392857D01*
X163857142Y-121535714D01*
X163928571Y-121607142D01*
X164071428Y-121678571D01*
X164428571Y-121678571D01*
X164571428Y-121607142D01*
X164642857Y-121535714D01*
X163357142Y-120178571D02*
X162857142Y-121678571D01*
X162357142Y-120178571D01*
X145450000Y-92257142D02*
X145378571Y-92114285D01*
X145378571Y-91900000D01*
X145450000Y-91685714D01*
X145592857Y-91542857D01*
X145735714Y-91471428D01*
X146021428Y-91400000D01*
X146235714Y-91400000D01*
X146521428Y-91471428D01*
X146664285Y-91542857D01*
X146807142Y-91685714D01*
X146878571Y-91900000D01*
X146878571Y-92042857D01*
X146807142Y-92257142D01*
X146735714Y-92328571D01*
X146235714Y-92328571D01*
X146235714Y-92042857D01*
X146878571Y-92971428D02*
X145378571Y-92971428D01*
X146878571Y-93828571D01*
X145378571Y-93828571D01*
X146878571Y-94542857D02*
X145378571Y-94542857D01*
X145378571Y-94900000D01*
X145450000Y-95114285D01*
X145592857Y-95257142D01*
X145735714Y-95328571D01*
X146021428Y-95400000D01*
X146235714Y-95400000D01*
X146521428Y-95328571D01*
X146664285Y-95257142D01*
X146807142Y-95114285D01*
X146878571Y-94900000D01*
X146878571Y-94542857D01*
X163907142Y-78314285D02*
X163978571Y-78528571D01*
X163978571Y-78885714D01*
X163907142Y-79028571D01*
X163835714Y-79100000D01*
X163692857Y-79171428D01*
X163550000Y-79171428D01*
X163407142Y-79100000D01*
X163335714Y-79028571D01*
X163264285Y-78885714D01*
X163192857Y-78600000D01*
X163121428Y-78457142D01*
X163050000Y-78385714D01*
X162907142Y-78314285D01*
X162764285Y-78314285D01*
X162621428Y-78385714D01*
X162550000Y-78457142D01*
X162478571Y-78600000D01*
X162478571Y-78957142D01*
X162550000Y-79171428D01*
X163835714Y-80671428D02*
X163907142Y-80600000D01*
X163978571Y-80385714D01*
X163978571Y-80242857D01*
X163907142Y-80028571D01*
X163764285Y-79885714D01*
X163621428Y-79814285D01*
X163335714Y-79742857D01*
X163121428Y-79742857D01*
X162835714Y-79814285D01*
X162692857Y-79885714D01*
X162550000Y-80028571D01*
X162478571Y-80242857D01*
X162478571Y-80385714D01*
X162550000Y-80600000D01*
X162621428Y-80671428D01*
X163978571Y-82028571D02*
X163978571Y-81314285D01*
X162478571Y-81314285D01*
X166507142Y-78378571D02*
X166578571Y-78592857D01*
X166578571Y-78950000D01*
X166507142Y-79092857D01*
X166435714Y-79164285D01*
X166292857Y-79235714D01*
X166150000Y-79235714D01*
X166007142Y-79164285D01*
X165935714Y-79092857D01*
X165864285Y-78950000D01*
X165792857Y-78664285D01*
X165721428Y-78521428D01*
X165650000Y-78450000D01*
X165507142Y-78378571D01*
X165364285Y-78378571D01*
X165221428Y-78450000D01*
X165150000Y-78521428D01*
X165078571Y-78664285D01*
X165078571Y-79021428D01*
X165150000Y-79235714D01*
X166578571Y-79878571D02*
X165078571Y-79878571D01*
X165078571Y-80235714D01*
X165150000Y-80450000D01*
X165292857Y-80592857D01*
X165435714Y-80664285D01*
X165721428Y-80735714D01*
X165935714Y-80735714D01*
X166221428Y-80664285D01*
X166364285Y-80592857D01*
X166507142Y-80450000D01*
X166578571Y-80235714D01*
X166578571Y-79878571D01*
X166150000Y-81307142D02*
X166150000Y-82021428D01*
X166578571Y-81164285D02*
X165078571Y-81664285D01*
X166578571Y-82164285D01*
X125342857Y-110050000D02*
X125485714Y-109978571D01*
X125700000Y-109978571D01*
X125914285Y-110050000D01*
X126057142Y-110192857D01*
X126128571Y-110335714D01*
X126200000Y-110621428D01*
X126200000Y-110835714D01*
X126128571Y-111121428D01*
X126057142Y-111264285D01*
X125914285Y-111407142D01*
X125700000Y-111478571D01*
X125557142Y-111478571D01*
X125342857Y-111407142D01*
X125271428Y-111335714D01*
X125271428Y-110835714D01*
X125557142Y-110835714D01*
X124628571Y-111478571D02*
X124628571Y-109978571D01*
X123771428Y-111478571D01*
X123771428Y-109978571D01*
X123057142Y-111478571D02*
X123057142Y-109978571D01*
X122700000Y-109978571D01*
X122485714Y-110050000D01*
X122342857Y-110192857D01*
X122271428Y-110335714D01*
X122200000Y-110621428D01*
X122200000Y-110835714D01*
X122271428Y-111121428D01*
X122342857Y-111264285D01*
X122485714Y-111407142D01*
X122700000Y-111478571D01*
X123057142Y-111478571D01*
X158107142Y-107342500D02*
X158250000Y-107271071D01*
X158464285Y-107271071D01*
X158678571Y-107342500D01*
X158821428Y-107485357D01*
X158892857Y-107628214D01*
X158964285Y-107913928D01*
X158964285Y-108128214D01*
X158892857Y-108413928D01*
X158821428Y-108556785D01*
X158678571Y-108699642D01*
X158464285Y-108771071D01*
X158321428Y-108771071D01*
X158107142Y-108699642D01*
X158035714Y-108628214D01*
X158035714Y-108128214D01*
X158321428Y-108128214D01*
X157464285Y-108342500D02*
X156750000Y-108342500D01*
X157607142Y-108771071D02*
X157107142Y-107271071D01*
X156607142Y-108771071D01*
X156107142Y-107271071D02*
X156107142Y-108485357D01*
X156035714Y-108628214D01*
X155964285Y-108699642D01*
X155821428Y-108771071D01*
X155535714Y-108771071D01*
X155392857Y-108699642D01*
X155321428Y-108628214D01*
X155250000Y-108485357D01*
X155250000Y-107271071D01*
X153750000Y-107342500D02*
X153892857Y-107271071D01*
X154107142Y-107271071D01*
X154321428Y-107342500D01*
X154464285Y-107485357D01*
X154535714Y-107628214D01*
X154607142Y-107913928D01*
X154607142Y-108128214D01*
X154535714Y-108413928D01*
X154464285Y-108556785D01*
X154321428Y-108699642D01*
X154107142Y-108771071D01*
X153964285Y-108771071D01*
X153750000Y-108699642D01*
X153678571Y-108628214D01*
X153678571Y-108128214D01*
X153964285Y-108128214D01*
X153035714Y-107985357D02*
X152535714Y-107985357D01*
X152321428Y-108771071D02*
X153035714Y-108771071D01*
X153035714Y-107271071D01*
X152321428Y-107271071D01*
X149678571Y-108628214D02*
X149750000Y-108699642D01*
X149964285Y-108771071D01*
X150107142Y-108771071D01*
X150321428Y-108699642D01*
X150464285Y-108556785D01*
X150535714Y-108413928D01*
X150607142Y-108128214D01*
X150607142Y-107913928D01*
X150535714Y-107628214D01*
X150464285Y-107485357D01*
X150321428Y-107342500D01*
X150107142Y-107271071D01*
X149964285Y-107271071D01*
X149750000Y-107342500D01*
X149678571Y-107413928D01*
X148750000Y-107271071D02*
X148464285Y-107271071D01*
X148321428Y-107342500D01*
X148178571Y-107485357D01*
X148107142Y-107771071D01*
X148107142Y-108271071D01*
X148178571Y-108556785D01*
X148321428Y-108699642D01*
X148464285Y-108771071D01*
X148750000Y-108771071D01*
X148892857Y-108699642D01*
X149035714Y-108556785D01*
X149107142Y-108271071D01*
X149107142Y-107771071D01*
X149035714Y-107485357D01*
X148892857Y-107342500D01*
X148750000Y-107271071D01*
X147464285Y-108771071D02*
X147464285Y-107271071D01*
X146607142Y-108771071D01*
X146607142Y-107271071D01*
X146107142Y-107271071D02*
X145250000Y-107271071D01*
X145678571Y-108771071D02*
X145678571Y-107271071D01*
X143892857Y-108771071D02*
X144392857Y-108056785D01*
X144750000Y-108771071D02*
X144750000Y-107271071D01*
X144178571Y-107271071D01*
X144035714Y-107342500D01*
X143964285Y-107413928D01*
X143892857Y-107556785D01*
X143892857Y-107771071D01*
X143964285Y-107913928D01*
X144035714Y-107985357D01*
X144178571Y-108056785D01*
X144750000Y-108056785D01*
X142964285Y-107271071D02*
X142678571Y-107271071D01*
X142535714Y-107342500D01*
X142392857Y-107485357D01*
X142321428Y-107771071D01*
X142321428Y-108271071D01*
X142392857Y-108556785D01*
X142535714Y-108699642D01*
X142678571Y-108771071D01*
X142964285Y-108771071D01*
X143107142Y-108699642D01*
X143250000Y-108556785D01*
X143321428Y-108271071D01*
X143321428Y-107771071D01*
X143250000Y-107485357D01*
X143107142Y-107342500D01*
X142964285Y-107271071D01*
X140964285Y-108771071D02*
X141678571Y-108771071D01*
X141678571Y-107271071D01*
X139750000Y-108771071D02*
X140464285Y-108771071D01*
X140464285Y-107271071D01*
X139250000Y-107985357D02*
X138750000Y-107985357D01*
X138535714Y-108771071D02*
X139250000Y-108771071D01*
X139250000Y-107271071D01*
X138535714Y-107271071D01*
X137035714Y-108771071D02*
X137535714Y-108056785D01*
X137892857Y-108771071D02*
X137892857Y-107271071D01*
X137321428Y-107271071D01*
X137178571Y-107342500D01*
X137107142Y-107413928D01*
X137035714Y-107556785D01*
X137035714Y-107771071D01*
X137107142Y-107913928D01*
X137178571Y-107985357D01*
X137321428Y-108056785D01*
X137892857Y-108056785D01*
X150285714Y-109686071D02*
X149785714Y-111186071D01*
X149285714Y-109686071D01*
X148500000Y-109686071D02*
X148357142Y-109686071D01*
X148214285Y-109757500D01*
X148142857Y-109828928D01*
X148071428Y-109971785D01*
X148000000Y-110257500D01*
X148000000Y-110614642D01*
X148071428Y-110900357D01*
X148142857Y-111043214D01*
X148214285Y-111114642D01*
X148357142Y-111186071D01*
X148500000Y-111186071D01*
X148642857Y-111114642D01*
X148714285Y-111043214D01*
X148785714Y-110900357D01*
X148857142Y-110614642D01*
X148857142Y-110257500D01*
X148785714Y-109971785D01*
X148714285Y-109828928D01*
X148642857Y-109757500D01*
X148500000Y-109686071D01*
X147357142Y-111043214D02*
X147285714Y-111114642D01*
X147357142Y-111186071D01*
X147428571Y-111114642D01*
X147357142Y-111043214D01*
X147357142Y-111186071D01*
X145857142Y-111186071D02*
X146714285Y-111186071D01*
X146285714Y-111186071D02*
X146285714Y-109686071D01*
X146428571Y-109900357D01*
X146571428Y-110043214D01*
X146714285Y-110114642D01*
X151878571Y-92021428D02*
X151164285Y-91521428D01*
X151878571Y-91164285D02*
X150378571Y-91164285D01*
X150378571Y-91735714D01*
X150450000Y-91878571D01*
X150521428Y-91950000D01*
X150664285Y-92021428D01*
X150878571Y-92021428D01*
X151021428Y-91950000D01*
X151092857Y-91878571D01*
X151164285Y-91735714D01*
X151164285Y-91164285D01*
X150378571Y-92521428D02*
X151878571Y-93521428D01*
X150378571Y-93521428D02*
X151878571Y-92521428D01*
X150735714Y-94164285D02*
X151878571Y-94164285D01*
X150807142Y-94235714D02*
X151807142Y-94235714D01*
X150807142Y-94307142D02*
X151807142Y-94307142D01*
X150878571Y-94378571D02*
X151735714Y-94378571D01*
X150878571Y-94450000D02*
X151735714Y-94450000D01*
X150950000Y-94521428D02*
X151664285Y-94521428D01*
X150950000Y-94592857D02*
X151664285Y-94592857D01*
X151021428Y-94664285D02*
X151592857Y-94664285D01*
X151092857Y-94735714D02*
X151521428Y-94735714D01*
X151092857Y-94807142D02*
X151521428Y-94807142D01*
X151164285Y-94878571D02*
X151450000Y-94878571D01*
X151164285Y-94950000D02*
X151450000Y-94950000D01*
X151307142Y-95021428D02*
X151307142Y-95092857D01*
X151235714Y-95021428D02*
X151378571Y-95021428D01*
X150735714Y-94092857D02*
X151307142Y-95164285D01*
X151878571Y-94092857D01*
X151307142Y-95235714D02*
X151950000Y-94092857D01*
X150664285Y-94092857D01*
X151307142Y-95235714D01*
X154478571Y-92578571D02*
X153764285Y-92078571D01*
X154478571Y-91721428D02*
X152978571Y-91721428D01*
X152978571Y-92292857D01*
X153050000Y-92435714D01*
X153121428Y-92507142D01*
X153264285Y-92578571D01*
X153478571Y-92578571D01*
X153621428Y-92507142D01*
X153692857Y-92435714D01*
X153764285Y-92292857D01*
X153764285Y-91721428D01*
X154407142Y-93150000D02*
X154478571Y-93364285D01*
X154478571Y-93721428D01*
X154407142Y-93864285D01*
X154335714Y-93935714D01*
X154192857Y-94007142D01*
X154050000Y-94007142D01*
X153907142Y-93935714D01*
X153835714Y-93864285D01*
X153764285Y-93721428D01*
X153692857Y-93435714D01*
X153621428Y-93292857D01*
X153550000Y-93221428D01*
X153407142Y-93150000D01*
X153264285Y-93150000D01*
X153121428Y-93221428D01*
X153050000Y-93292857D01*
X152978571Y-93435714D01*
X152978571Y-93792857D01*
X153050000Y-94007142D01*
X152978571Y-94435714D02*
X152978571Y-95292857D01*
X154478571Y-94864285D02*
X152978571Y-94864285D01*
X162142857Y-112750000D02*
X162285714Y-112678571D01*
X162500000Y-112678571D01*
X162714285Y-112750000D01*
X162857142Y-112892857D01*
X162928571Y-113035714D01*
X163000000Y-113321428D01*
X163000000Y-113535714D01*
X162928571Y-113821428D01*
X162857142Y-113964285D01*
X162714285Y-114107142D01*
X162500000Y-114178571D01*
X162357142Y-114178571D01*
X162142857Y-114107142D01*
X162071428Y-114035714D01*
X162071428Y-113535714D01*
X162357142Y-113535714D01*
X161428571Y-114178571D02*
X161428571Y-112678571D01*
X160571428Y-114178571D01*
X160571428Y-112678571D01*
X159857142Y-114178571D02*
X159857142Y-112678571D01*
X159500000Y-112678571D01*
X159285714Y-112750000D01*
X159142857Y-112892857D01*
X159071428Y-113035714D01*
X159000000Y-113321428D01*
X159000000Y-113535714D01*
X159071428Y-113821428D01*
X159142857Y-113964285D01*
X159285714Y-114107142D01*
X159500000Y-114178571D01*
X159857142Y-114178571D01*
X125300000Y-106078571D02*
X125300000Y-104578571D01*
X124585714Y-106078571D02*
X124585714Y-104578571D01*
X123728571Y-106078571D01*
X123728571Y-104578571D01*
X123085714Y-104721428D02*
X123014285Y-104650000D01*
X122871428Y-104578571D01*
X122514285Y-104578571D01*
X122371428Y-104650000D01*
X122300000Y-104721428D01*
X122228571Y-104864285D01*
X122228571Y-105007142D01*
X122300000Y-105221428D01*
X123157142Y-106078571D01*
X122228571Y-106078571D01*
X127642857Y-108307142D02*
X126500000Y-108307142D01*
X127071428Y-108878571D02*
X127071428Y-107735714D01*
X125000000Y-108878571D02*
X125857142Y-108878571D01*
X125428571Y-108878571D02*
X125428571Y-107378571D01*
X125571428Y-107592857D01*
X125714285Y-107735714D01*
X125857142Y-107807142D01*
X124428571Y-107521428D02*
X124357142Y-107450000D01*
X124214285Y-107378571D01*
X123857142Y-107378571D01*
X123714285Y-107450000D01*
X123642857Y-107521428D01*
X123571428Y-107664285D01*
X123571428Y-107807142D01*
X123642857Y-108021428D01*
X124500000Y-108878571D01*
X123571428Y-108878571D01*
X123142857Y-107378571D02*
X122642857Y-108878571D01*
X122142857Y-107378571D01*
X157250000Y-118357142D02*
X157178571Y-118214285D01*
X157178571Y-118000000D01*
X157250000Y-117785714D01*
X157392857Y-117642857D01*
X157535714Y-117571428D01*
X157821428Y-117500000D01*
X158035714Y-117500000D01*
X158321428Y-117571428D01*
X158464285Y-117642857D01*
X158607142Y-117785714D01*
X158678571Y-118000000D01*
X158678571Y-118142857D01*
X158607142Y-118357142D01*
X158535714Y-118428571D01*
X158035714Y-118428571D01*
X158035714Y-118142857D01*
X158678571Y-119071428D02*
X157178571Y-119071428D01*
X158678571Y-119928571D01*
X157178571Y-119928571D01*
X158678571Y-120642857D02*
X157178571Y-120642857D01*
X157178571Y-121000000D01*
X157250000Y-121214285D01*
X157392857Y-121357142D01*
X157535714Y-121428571D01*
X157821428Y-121500000D01*
X158035714Y-121500000D01*
X158321428Y-121428571D01*
X158464285Y-121357142D01*
X158607142Y-121214285D01*
X158678571Y-121000000D01*
X158678571Y-120642857D01*
X178221428Y-120007142D02*
X178007142Y-120078571D01*
X177650000Y-120078571D01*
X177507142Y-120007142D01*
X177435714Y-119935714D01*
X177364285Y-119792857D01*
X177364285Y-119650000D01*
X177435714Y-119507142D01*
X177507142Y-119435714D01*
X177650000Y-119364285D01*
X177935714Y-119292857D01*
X178078571Y-119221428D01*
X178150000Y-119150000D01*
X178221428Y-119007142D01*
X178221428Y-118864285D01*
X178150000Y-118721428D01*
X178078571Y-118650000D01*
X177935714Y-118578571D01*
X177578571Y-118578571D01*
X177364285Y-118650000D01*
X175864285Y-120078571D02*
X176364285Y-119364285D01*
X176721428Y-120078571D02*
X176721428Y-118578571D01*
X176150000Y-118578571D01*
X176007142Y-118650000D01*
X175935714Y-118721428D01*
X175864285Y-118864285D01*
X175864285Y-119078571D01*
X175935714Y-119221428D01*
X176007142Y-119292857D01*
X176150000Y-119364285D01*
X176721428Y-119364285D01*
X175435714Y-118578571D02*
X174935714Y-120078571D01*
X174435714Y-118578571D01*
X180807142Y-95392857D02*
X180878571Y-95607142D01*
X180878571Y-95964285D01*
X180807142Y-96107142D01*
X180735714Y-96178571D01*
X180592857Y-96250000D01*
X180450000Y-96250000D01*
X180307142Y-96178571D01*
X180235714Y-96107142D01*
X180164285Y-95964285D01*
X180092857Y-95678571D01*
X180021428Y-95535714D01*
X179950000Y-95464285D01*
X179807142Y-95392857D01*
X179664285Y-95392857D01*
X179521428Y-95464285D01*
X179450000Y-95535714D01*
X179378571Y-95678571D01*
X179378571Y-96035714D01*
X179450000Y-96250000D01*
X179378571Y-96678571D02*
X179378571Y-97535714D01*
X180878571Y-97107142D02*
X179378571Y-97107142D01*
X180092857Y-98035714D02*
X180092857Y-98535714D01*
X180878571Y-98750000D02*
X180878571Y-98035714D01*
X179378571Y-98035714D01*
X179378571Y-98750000D01*
X180878571Y-99392857D02*
X179378571Y-99392857D01*
X179378571Y-99964285D01*
X179450000Y-100107142D01*
X179521428Y-100178571D01*
X179664285Y-100250000D01*
X179878571Y-100250000D01*
X180021428Y-100178571D01*
X180092857Y-100107142D01*
X180164285Y-99964285D01*
X180164285Y-99392857D01*
X180878571Y-100892857D02*
X179378571Y-100892857D01*
X179378571Y-101464285D01*
X179450000Y-101607142D01*
X179521428Y-101678571D01*
X179664285Y-101750000D01*
X179878571Y-101750000D01*
X180021428Y-101678571D01*
X180092857Y-101607142D01*
X180164285Y-101464285D01*
X180164285Y-100892857D01*
X180092857Y-102392857D02*
X180092857Y-102892857D01*
X180878571Y-103107142D02*
X180878571Y-102392857D01*
X179378571Y-102392857D01*
X179378571Y-103107142D01*
X180878571Y-104607142D02*
X180164285Y-104107142D01*
X180878571Y-103750000D02*
X179378571Y-103750000D01*
X179378571Y-104321428D01*
X179450000Y-104464285D01*
X179521428Y-104535714D01*
X179664285Y-104607142D01*
X179878571Y-104607142D01*
X180021428Y-104535714D01*
X180092857Y-104464285D01*
X180164285Y-104321428D01*
X180164285Y-103750000D01*
D11*
G04 #@! TO.C,D2*
X133864285Y-98852380D02*
X134435714Y-98852380D01*
X134150000Y-98852380D02*
X134150000Y-97852380D01*
X134245238Y-97995238D01*
X134340476Y-98090476D01*
X134435714Y-98138095D01*
G04 #@! TO.C,D1*
X173864285Y-98852380D02*
X174435714Y-98852380D01*
X174150000Y-98852380D02*
X174150000Y-97852380D01*
X174245238Y-97995238D01*
X174340476Y-98090476D01*
X174435714Y-98138095D01*
D12*
G04 #@! TO.C,D2*
X133650000Y-102750000D02*
X126350000Y-102750000D01*
X133650000Y-97250000D02*
X126350000Y-97250000D01*
X126350000Y-102750000D02*
X126350000Y-101600000D01*
G04 #@! TO.C,D1*
X173650000Y-97250000D02*
X166350000Y-97250000D01*
X166350000Y-102750000D02*
X166350000Y-101600000D01*
X173650000Y-102750000D02*
X166350000Y-102750000D01*
G04 #@! TD*
M02*
