G04 #@! TF.GenerationSoftware,KiCad,Pcbnew,6.0.9-8da3e8f707~117~ubuntu22.04.1*
G04 #@! TF.CreationDate,2022-12-19T13:51:41+00:00*
G04 #@! TF.ProjectId,gauge_servo,67617567-655f-4736-9572-766f2e6b6963,rev?*
G04 #@! TF.SameCoordinates,Original*
G04 #@! TF.FileFunction,Legend,Top*
G04 #@! TF.FilePolarity,Positive*
%FSLAX46Y46*%
G04 Gerber Fmt 4.6, Leading zero omitted, Abs format (unit mm)*
G04 Created by KiCad (PCBNEW 6.0.9-8da3e8f707~117~ubuntu22.04.1) date 2022-12-19 13:51:41*
%MOMM*%
%LPD*%
G01*
G04 APERTURE LIST*
%ADD10C,0.120000*%
G04 APERTURE END LIST*
D10*
G04 #@! TO.C,Q1*
X125000000Y-91575000D02*
X126675000Y-91575000D01*
X125000000Y-88455000D02*
X125650000Y-88455000D01*
X125000000Y-88455000D02*
X124350000Y-88455000D01*
X125000000Y-91575000D02*
X124350000Y-91575000D01*
G04 #@! TO.C,J3*
X178330000Y-110115000D02*
X175670000Y-110115000D01*
X178330000Y-117855000D02*
X177000000Y-117855000D01*
X178330000Y-115255000D02*
X175670000Y-115255000D01*
X175670000Y-115255000D02*
X175670000Y-110115000D01*
X178330000Y-115255000D02*
X178330000Y-110115000D01*
X178330000Y-116525000D02*
X178330000Y-117855000D01*
G04 #@! TO.C,U2*
X133090000Y-125110000D02*
X133090000Y-123850000D01*
X133090000Y-118290000D02*
X133090000Y-119550000D01*
X139100000Y-125110000D02*
X133090000Y-125110000D01*
X136850000Y-118290000D02*
X133090000Y-118290000D01*
G04 #@! TO.C,C2*
X143090000Y-121288748D02*
X143090000Y-122711252D01*
X144910000Y-121288748D02*
X144910000Y-122711252D01*
G04 #@! TO.C,J7*
X159270000Y-130330000D02*
X159270000Y-127670000D01*
X158000000Y-130330000D02*
X156670000Y-130330000D01*
X159270000Y-130330000D02*
X164410000Y-130330000D01*
X159270000Y-127670000D02*
X164410000Y-127670000D01*
X156670000Y-130330000D02*
X156670000Y-129000000D01*
X164410000Y-130330000D02*
X164410000Y-127670000D01*
G04 #@! TO.C,J4*
X161870000Y-77330000D02*
X161870000Y-76000000D01*
X164470000Y-77330000D02*
X172150000Y-77330000D01*
X164470000Y-74670000D02*
X172150000Y-74670000D01*
X164470000Y-77330000D02*
X164470000Y-74670000D01*
X172150000Y-77330000D02*
X172150000Y-74670000D01*
X163200000Y-77330000D02*
X161870000Y-77330000D01*
G04 #@! TO.C,C3*
X140090000Y-121288748D02*
X140090000Y-122711252D01*
X141910000Y-121288748D02*
X141910000Y-122711252D01*
G04 #@! TO.C,U1*
X137078000Y-100618000D02*
X158922000Y-100618000D01*
X158922000Y-100618000D02*
X158922000Y-117382000D01*
X158922000Y-117382000D02*
X137078000Y-117382000D01*
X137078000Y-117382000D02*
X137078000Y-100618000D01*
G04 #@! TO.C,R3*
X128522500Y-90252258D02*
X128522500Y-89777742D01*
X127477500Y-90252258D02*
X127477500Y-89777742D01*
G04 #@! TO.C,R12*
X160522500Y-114237258D02*
X160522500Y-113762742D01*
X159477500Y-114237258D02*
X159477500Y-113762742D01*
G04 #@! TO.C,J8*
X118670000Y-104145000D02*
X120000000Y-104145000D01*
X118670000Y-105475000D02*
X118670000Y-104145000D01*
X118670000Y-106745000D02*
X121330000Y-106745000D01*
X121330000Y-106745000D02*
X121330000Y-111885000D01*
X118670000Y-111885000D02*
X121330000Y-111885000D01*
X118670000Y-106745000D02*
X118670000Y-111885000D01*
G04 #@! TO.C,J12*
X164410000Y-125330000D02*
X164410000Y-122670000D01*
X156670000Y-125330000D02*
X156670000Y-124000000D01*
X159270000Y-125330000D02*
X164410000Y-125330000D01*
X158000000Y-125330000D02*
X156670000Y-125330000D01*
X159270000Y-125330000D02*
X159270000Y-122670000D01*
X159270000Y-122670000D02*
X164410000Y-122670000D01*
G04 #@! TO.C,R10*
X134254724Y-78477500D02*
X133745276Y-78477500D01*
X134254724Y-79522500D02*
X133745276Y-79522500D01*
G04 #@! TO.C,J1*
X174330000Y-115255000D02*
X171670000Y-115255000D01*
X174330000Y-116525000D02*
X174330000Y-117855000D01*
X174330000Y-110115000D02*
X171670000Y-110115000D01*
X171670000Y-115255000D02*
X171670000Y-110115000D01*
X174330000Y-115255000D02*
X174330000Y-110115000D01*
X174330000Y-117855000D02*
X173000000Y-117855000D01*
G04 #@! TO.C,J9*
X144920000Y-98830000D02*
X157680000Y-98830000D01*
X157680000Y-98830000D02*
X157680000Y-96170000D01*
X144920000Y-96170000D02*
X157680000Y-96170000D01*
X143650000Y-98830000D02*
X142320000Y-98830000D01*
X142320000Y-98830000D02*
X142320000Y-97500000D01*
X144920000Y-98830000D02*
X144920000Y-96170000D01*
G04 #@! TO.C,R11*
X162522500Y-114237258D02*
X162522500Y-113762742D01*
X161477500Y-114237258D02*
X161477500Y-113762742D01*
G04 #@! TO.C,J5*
X183330000Y-102530000D02*
X180670000Y-102530000D01*
X183330000Y-94850000D02*
X180670000Y-94850000D01*
X180670000Y-102530000D02*
X180670000Y-94850000D01*
X183330000Y-102530000D02*
X183330000Y-94850000D01*
X183330000Y-105130000D02*
X182000000Y-105130000D01*
X183330000Y-103800000D02*
X183330000Y-105130000D01*
G04 #@! TO.C,C5*
X133910000Y-76211252D02*
X133910000Y-74788748D01*
X132090000Y-76211252D02*
X132090000Y-74788748D01*
G04 #@! TO.C,R6*
X123762742Y-110522500D02*
X124237258Y-110522500D01*
X123762742Y-109477500D02*
X124237258Y-109477500D01*
G04 #@! TO.C,J11*
X170330000Y-115255000D02*
X170330000Y-110115000D01*
X170330000Y-115255000D02*
X167670000Y-115255000D01*
X170330000Y-110115000D02*
X167670000Y-110115000D01*
X170330000Y-117855000D02*
X169000000Y-117855000D01*
X170330000Y-116525000D02*
X170330000Y-117855000D01*
X167670000Y-115255000D02*
X167670000Y-110115000D01*
G04 #@! TO.C,J6*
X118670000Y-88145000D02*
X120000000Y-88145000D01*
X118670000Y-90745000D02*
X118670000Y-95885000D01*
X118670000Y-89475000D02*
X118670000Y-88145000D01*
X118670000Y-90745000D02*
X121330000Y-90745000D01*
X118670000Y-95885000D02*
X121330000Y-95885000D01*
X121330000Y-90745000D02*
X121330000Y-95885000D01*
G04 #@! TO.C,R7*
X127477500Y-106237258D02*
X127477500Y-105762742D01*
X128522500Y-106237258D02*
X128522500Y-105762742D01*
G04 #@! TO.C,R4*
X126762742Y-94537500D02*
X127237258Y-94537500D01*
X126762742Y-93492500D02*
X127237258Y-93492500D01*
G04 #@! TO.C,U4*
X159120000Y-92880000D02*
X158120000Y-92880000D01*
X159120000Y-67140000D02*
X159120000Y-73555000D01*
X140880000Y-92100000D02*
X140880000Y-92880000D01*
X140880000Y-67140000D02*
X140880000Y-73555000D01*
X140880000Y-67140000D02*
X159120000Y-67140000D01*
X159120000Y-92100000D02*
X159120000Y-92880000D01*
X140880000Y-73555000D02*
X140500000Y-73555000D01*
X140880000Y-92880000D02*
X141880000Y-92880000D01*
G04 #@! TO.C,R5*
X129762742Y-94537500D02*
X130237258Y-94537500D01*
X129762742Y-93492500D02*
X130237258Y-93492500D01*
G04 #@! TO.C,C4*
X169711252Y-80910000D02*
X168288748Y-80910000D01*
X169711252Y-79090000D02*
X168288748Y-79090000D01*
G04 #@! TO.C,C6*
X134490000Y-75640580D02*
X134490000Y-75359420D01*
X135510000Y-75640580D02*
X135510000Y-75359420D01*
G04 #@! TO.C,R1*
X159477500Y-110237258D02*
X159477500Y-109762742D01*
X160522500Y-110237258D02*
X160522500Y-109762742D01*
G04 #@! TO.C,R8*
X126762742Y-110522500D02*
X127237258Y-110522500D01*
X126762742Y-109477500D02*
X127237258Y-109477500D01*
G04 #@! TO.C,R2*
X123762742Y-94537500D02*
X124237258Y-94537500D01*
X123762742Y-93492500D02*
X124237258Y-93492500D01*
G04 #@! TO.C,U3*
X160570000Y-108208000D02*
X179620000Y-108208000D01*
X179620000Y-108208000D02*
X179620000Y-81792000D01*
X179620000Y-81792000D02*
X160570000Y-81792000D01*
X160570000Y-81792000D02*
X160570000Y-108208000D01*
G04 #@! TO.C,Q2*
X125000000Y-104440000D02*
X125650000Y-104440000D01*
X125000000Y-104440000D02*
X124350000Y-104440000D01*
X125000000Y-107560000D02*
X126675000Y-107560000D01*
X125000000Y-107560000D02*
X124350000Y-107560000D01*
G04 #@! TO.C,C7*
X134140580Y-80490000D02*
X133859420Y-80490000D01*
X134140580Y-81510000D02*
X133859420Y-81510000D01*
G04 #@! TO.C,C1*
X135910000Y-109711252D02*
X135910000Y-108288748D01*
X134090000Y-109711252D02*
X134090000Y-108288748D01*
G04 #@! TO.C,R9*
X129762742Y-110522500D02*
X130237258Y-110522500D01*
X129762742Y-109477500D02*
X130237258Y-109477500D01*
G04 #@! TO.C,J10*
X163670000Y-115255000D02*
X163670000Y-110115000D01*
X166330000Y-115255000D02*
X166330000Y-110115000D01*
X166330000Y-110115000D02*
X163670000Y-110115000D01*
X166330000Y-116525000D02*
X166330000Y-117855000D01*
X166330000Y-117855000D02*
X165000000Y-117855000D01*
X166330000Y-115255000D02*
X163670000Y-115255000D01*
G04 #@! TD*
M02*
