G04 #@! TF.GenerationSoftware,KiCad,Pcbnew,6.0.9-8da3e8f707~117~ubuntu22.04.1*
G04 #@! TF.CreationDate,2022-12-19T13:51:41+00:00*
G04 #@! TF.ProjectId,gauge_servo,67617567-655f-4736-9572-766f2e6b6963,rev?*
G04 #@! TF.SameCoordinates,Original*
G04 #@! TF.FileFunction,Copper,L3,Inr*
G04 #@! TF.FilePolarity,Positive*
%FSLAX46Y46*%
G04 Gerber Fmt 4.6, Leading zero omitted, Abs format (unit mm)*
G04 Created by KiCad (PCBNEW 6.0.9-8da3e8f707~117~ubuntu22.04.1) date 2022-12-19 13:51:41*
%MOMM*%
%LPD*%
G01*
G04 APERTURE LIST*
G04 #@! TA.AperFunction,ComponentPad*
%ADD10R,1.700000X1.700000*%
G04 #@! TD*
G04 #@! TA.AperFunction,ComponentPad*
%ADD11O,1.700000X1.700000*%
G04 #@! TD*
G04 #@! TA.AperFunction,ComponentPad*
%ADD12C,1.524000*%
G04 #@! TD*
G04 #@! TA.AperFunction,ComponentPad*
%ADD13C,5.600000*%
G04 #@! TD*
G04 #@! TA.AperFunction,ComponentPad*
%ADD14C,0.475000*%
G04 #@! TD*
G04 #@! TA.AperFunction,ComponentPad*
%ADD15C,4.000000*%
G04 #@! TD*
G04 #@! TA.AperFunction,ViaPad*
%ADD16C,3.048000*%
G04 #@! TD*
G04 #@! TA.AperFunction,ViaPad*
%ADD17C,0.762000*%
G04 #@! TD*
G04 APERTURE END LIST*
D10*
G04 #@! TO.N,SERVO_2*
G04 #@! TO.C,J3*
X177000000Y-116525000D03*
D11*
G04 #@! TO.N,+5V*
X177000000Y-113985000D03*
G04 #@! TO.N,GND*
X177000000Y-111445000D03*
G04 #@! TD*
D10*
G04 #@! TO.N,GND*
G04 #@! TO.C,J7*
X158000000Y-129000000D03*
D11*
G04 #@! TO.N,NPX2*
X160540000Y-129000000D03*
G04 #@! TO.N,+5V*
X163080000Y-129000000D03*
G04 #@! TD*
D10*
G04 #@! TO.N,SCL*
G04 #@! TO.C,J4*
X163200000Y-76000000D03*
D11*
G04 #@! TO.N,SDA*
X165740000Y-76000000D03*
G04 #@! TO.N,+3V3*
X168280000Y-76000000D03*
G04 #@! TO.N,GND*
X170820000Y-76000000D03*
G04 #@! TD*
D12*
G04 #@! TO.N,+12V*
G04 #@! TO.C,U1*
X138856000Y-115604000D03*
X138856000Y-113064000D03*
G04 #@! TO.N,GND*
X138856000Y-104936000D03*
X138856000Y-102396000D03*
G04 #@! TO.N,+5V*
X157398000Y-115604000D03*
X157398000Y-113064000D03*
G04 #@! TO.N,GND*
X157398000Y-104936000D03*
X157398000Y-102396000D03*
G04 #@! TD*
D10*
G04 #@! TO.N,Net-(J8-Pad1)*
G04 #@! TO.C,J8*
X120000000Y-105475000D03*
D11*
G04 #@! TO.N,+12V*
X120000000Y-108015000D03*
G04 #@! TO.N,GND*
X120000000Y-110555000D03*
G04 #@! TD*
D10*
G04 #@! TO.N,GND*
G04 #@! TO.C,J12*
X158000000Y-124000000D03*
D11*
G04 #@! TO.N,Net-(D2-Pad2)*
X160540000Y-124000000D03*
G04 #@! TO.N,+5V*
X163080000Y-124000000D03*
G04 #@! TD*
D13*
G04 #@! TO.N,N/C*
G04 #@! TO.C,REF\u002A\u002A*
X172000000Y-122000000D03*
G04 #@! TD*
D10*
G04 #@! TO.N,SERVO_1*
G04 #@! TO.C,J1*
X173000000Y-116525000D03*
D11*
G04 #@! TO.N,+5V*
X173000000Y-113985000D03*
G04 #@! TO.N,GND*
X173000000Y-111445000D03*
G04 #@! TD*
D10*
G04 #@! TO.N,+3V3*
G04 #@! TO.C,J9*
X143650000Y-97500000D03*
D11*
G04 #@! TO.N,GND*
X146190000Y-97500000D03*
G04 #@! TO.N,TXDO_PROG*
X148730000Y-97500000D03*
G04 #@! TO.N,RXDI_PROG*
X151270000Y-97500000D03*
G04 #@! TO.N,RESET*
X153810000Y-97500000D03*
G04 #@! TO.N,BOOT*
X156350000Y-97500000D03*
G04 #@! TD*
D13*
G04 #@! TO.N,N/C*
G04 #@! TO.C,REF\u002A\u002A*
X128000000Y-78000000D03*
G04 #@! TD*
D10*
G04 #@! TO.N,Net-(J5-Pad1)*
G04 #@! TO.C,J5*
X182000000Y-103800000D03*
D11*
G04 #@! TO.N,Net-(J5-Pad2)*
X182000000Y-101260000D03*
G04 #@! TO.N,Net-(J5-Pad3)*
X182000000Y-98720000D03*
G04 #@! TO.N,Net-(J5-Pad4)*
X182000000Y-96180000D03*
G04 #@! TD*
D10*
G04 #@! TO.N,+5V*
G04 #@! TO.C,J11*
X169000000Y-116525000D03*
D11*
G04 #@! TO.N,GND*
X169000000Y-113985000D03*
G04 #@! TO.N,LIMIT_2*
X169000000Y-111445000D03*
G04 #@! TD*
D10*
G04 #@! TO.N,Net-(J6-Pad1)*
G04 #@! TO.C,J6*
X120000000Y-89475000D03*
D11*
G04 #@! TO.N,+12V*
X120000000Y-92015000D03*
G04 #@! TO.N,GND*
X120000000Y-94555000D03*
G04 #@! TD*
D14*
G04 #@! TO.N,GND*
G04 #@! TO.C,U4*
X150082500Y-82090000D03*
X148557500Y-80565000D03*
X150082500Y-83615000D03*
X148557500Y-83615000D03*
X147795000Y-82852500D03*
X150845000Y-82852500D03*
X147795000Y-81327500D03*
X150082500Y-80565000D03*
X148557500Y-82090000D03*
X150845000Y-81327500D03*
X149320000Y-82852500D03*
X149320000Y-81327500D03*
G04 #@! TD*
D15*
G04 #@! TO.N,*
G04 #@! TO.C,U3*
X177080000Y-105922000D03*
X177080000Y-84078000D03*
D12*
G04 #@! TO.N,+5V*
X163110000Y-83570000D03*
G04 #@! TO.N,+3V3*
X163110000Y-86110000D03*
G04 #@! TO.N,GND*
X163110000Y-88650000D03*
G04 #@! TO.N,Net-(R1-Pad2)*
X163110000Y-91190000D03*
G04 #@! TO.N,B_IN_2*
X163110000Y-93730000D03*
G04 #@! TO.N,B_IN_1*
X163110000Y-96270000D03*
G04 #@! TO.N,STANDBY*
X163110000Y-98810000D03*
G04 #@! TO.N,A_IN_1*
X163110000Y-101350000D03*
G04 #@! TO.N,A_IN_2*
X163110000Y-103890000D03*
G04 #@! TO.N,Net-(R1-Pad2)*
X163110000Y-106430000D03*
G04 #@! TO.N,Net-(J5-Pad1)*
X178350000Y-101350000D03*
G04 #@! TO.N,Net-(J5-Pad2)*
X178350000Y-98810000D03*
G04 #@! TO.N,GND*
X178350000Y-96270000D03*
X178350000Y-93730000D03*
G04 #@! TO.N,Net-(J5-Pad3)*
X178350000Y-91190000D03*
G04 #@! TO.N,Net-(J5-Pad4)*
X178350000Y-88650000D03*
G04 #@! TO.N,+5V*
X171570000Y-85000000D03*
G04 #@! TO.N,GND*
X168070000Y-85000000D03*
G04 #@! TD*
D10*
G04 #@! TO.N,+5V*
G04 #@! TO.C,J10*
X165000000Y-116525000D03*
D11*
G04 #@! TO.N,GND*
X165000000Y-113985000D03*
G04 #@! TO.N,LIMIT_1*
X165000000Y-111445000D03*
G04 #@! TD*
D16*
G04 #@! TO.N,GND*
X131510000Y-86180000D03*
X140000000Y-127000000D03*
X168000000Y-105000000D03*
G04 #@! TO.N,+5V*
X172925360Y-95000000D03*
G04 #@! TO.N,+3V3*
X129000000Y-122000000D03*
X129078567Y-82586036D03*
X136043244Y-84545917D03*
X148577909Y-122756500D03*
D17*
G04 #@! TO.N,RESET*
X148000000Y-89000000D03*
G04 #@! TO.N,NPX1*
X161000000Y-76000000D03*
G04 #@! TO.N,SERVO_2*
X164620000Y-89960000D03*
X156960000Y-90020000D03*
G04 #@! TO.N,TXDO_PROG*
X149000000Y-91000000D03*
G04 #@! TO.N,RXDI_PROG*
X151000000Y-91000000D03*
G04 #@! TO.N,LIMIT_1*
X152000000Y-111000000D03*
G04 #@! TO.N,LIMIT_2*
X152000000Y-110000000D03*
G04 #@! TO.N,Net-(R1-Pad2)*
X164950000Y-104230000D03*
G04 #@! TD*
G04 #@! TA.AperFunction,Conductor*
G04 #@! TO.N,+12V*
G36*
X129693761Y-85020002D02*
G01*
X129740254Y-85073658D01*
X129750358Y-85143932D01*
X129736995Y-85184956D01*
X129648880Y-85351376D01*
X129553643Y-85611626D01*
X129494606Y-85882392D01*
X129472863Y-86158666D01*
X129488815Y-86435335D01*
X129489640Y-86439542D01*
X129489641Y-86439547D01*
X129510739Y-86547081D01*
X129542169Y-86707279D01*
X129631935Y-86969466D01*
X129756454Y-87217044D01*
X129913421Y-87445433D01*
X130099932Y-87650405D01*
X130103221Y-87653155D01*
X130309243Y-87825417D01*
X130309248Y-87825421D01*
X130312535Y-87828169D01*
X130366984Y-87862325D01*
X130543656Y-87973152D01*
X130543660Y-87973154D01*
X130547296Y-87975435D01*
X130799872Y-88089477D01*
X130803992Y-88090697D01*
X130803991Y-88090697D01*
X131061475Y-88166967D01*
X131061479Y-88166968D01*
X131065588Y-88168185D01*
X131069825Y-88168833D01*
X131069828Y-88168834D01*
X131298846Y-88203879D01*
X131339527Y-88210104D01*
X131480602Y-88212320D01*
X131612330Y-88214390D01*
X131612336Y-88214390D01*
X131616621Y-88214457D01*
X131891742Y-88181164D01*
X132112477Y-88123255D01*
X132155657Y-88111927D01*
X132155658Y-88111927D01*
X132159800Y-88110840D01*
X132415833Y-88004788D01*
X132655104Y-87864969D01*
X132796256Y-87754292D01*
X132862202Y-87728001D01*
X132931896Y-87741536D01*
X132983209Y-87790603D01*
X133000000Y-87853447D01*
X133000000Y-109000000D01*
X140874000Y-109000000D01*
X140942121Y-109020002D01*
X140988614Y-109073658D01*
X141000000Y-109126000D01*
X141000000Y-117874000D01*
X140979998Y-117942121D01*
X140926342Y-117988614D01*
X140874000Y-118000000D01*
X120652526Y-118000000D01*
X120584405Y-117979998D01*
X120545498Y-117940490D01*
X120405162Y-117714592D01*
X120403016Y-117711007D01*
X119834085Y-116723600D01*
X119832071Y-116719967D01*
X119801599Y-116662777D01*
X138161777Y-116662777D01*
X138171074Y-116674793D01*
X138214069Y-116704898D01*
X138223555Y-116710376D01*
X138414993Y-116799645D01*
X138425285Y-116803391D01*
X138629309Y-116858059D01*
X138640104Y-116859962D01*
X138850525Y-116878372D01*
X138861475Y-116878372D01*
X139071896Y-116859962D01*
X139082691Y-116858059D01*
X139286715Y-116803391D01*
X139297007Y-116799645D01*
X139488445Y-116710376D01*
X139497931Y-116704898D01*
X139541764Y-116674207D01*
X139550139Y-116663729D01*
X139543071Y-116650281D01*
X138868812Y-115976022D01*
X138854868Y-115968408D01*
X138853035Y-115968539D01*
X138846420Y-115972790D01*
X138168207Y-116651003D01*
X138161777Y-116662777D01*
X119801599Y-116662777D01*
X119794941Y-116650281D01*
X119296206Y-115714268D01*
X119294303Y-115710549D01*
X119244678Y-115609475D01*
X137581628Y-115609475D01*
X137600038Y-115819896D01*
X137601941Y-115830691D01*
X137656609Y-116034715D01*
X137660355Y-116045007D01*
X137749623Y-116236441D01*
X137755103Y-116245932D01*
X137785794Y-116289765D01*
X137796271Y-116298140D01*
X137809718Y-116291072D01*
X138483978Y-115616812D01*
X138490356Y-115605132D01*
X139220408Y-115605132D01*
X139220539Y-115606965D01*
X139224790Y-115613580D01*
X139903003Y-116291793D01*
X139914777Y-116298223D01*
X139926793Y-116288926D01*
X139956897Y-116245932D01*
X139962377Y-116236441D01*
X140051645Y-116045007D01*
X140055391Y-116034715D01*
X140110059Y-115830691D01*
X140111962Y-115819896D01*
X140130372Y-115609475D01*
X140130372Y-115598525D01*
X140111962Y-115388104D01*
X140110059Y-115377309D01*
X140055391Y-115173285D01*
X140051645Y-115162993D01*
X139962377Y-114971559D01*
X139956897Y-114962068D01*
X139926206Y-114918235D01*
X139915729Y-114909860D01*
X139902282Y-114916928D01*
X139228022Y-115591188D01*
X139220408Y-115605132D01*
X138490356Y-115605132D01*
X138491592Y-115602868D01*
X138491461Y-115601035D01*
X138487210Y-115594420D01*
X137808997Y-114916207D01*
X137797223Y-114909777D01*
X137785207Y-114919074D01*
X137755103Y-114962068D01*
X137749623Y-114971559D01*
X137660355Y-115162993D01*
X137656609Y-115173285D01*
X137601941Y-115377309D01*
X137600038Y-115388104D01*
X137581628Y-115598525D01*
X137581628Y-115609475D01*
X119244678Y-115609475D01*
X118792082Y-114687648D01*
X118790303Y-114683868D01*
X118537550Y-114122777D01*
X138161777Y-114122777D01*
X138171074Y-114134793D01*
X138214069Y-114164898D01*
X138223555Y-114170376D01*
X138329557Y-114219805D01*
X138382842Y-114266722D01*
X138402303Y-114334999D01*
X138381761Y-114402959D01*
X138329557Y-114448195D01*
X138223559Y-114497623D01*
X138214068Y-114503103D01*
X138170235Y-114533794D01*
X138161860Y-114544271D01*
X138168928Y-114557718D01*
X138843188Y-115231978D01*
X138857132Y-115239592D01*
X138858965Y-115239461D01*
X138865580Y-115235210D01*
X139543793Y-114556997D01*
X139550223Y-114545223D01*
X139540926Y-114533207D01*
X139497931Y-114503102D01*
X139488445Y-114497624D01*
X139382444Y-114448195D01*
X139329159Y-114401278D01*
X139309698Y-114333000D01*
X139330240Y-114265040D01*
X139382444Y-114219805D01*
X139488445Y-114170376D01*
X139497931Y-114164898D01*
X139541764Y-114134207D01*
X139550139Y-114123729D01*
X139543071Y-114110281D01*
X138868812Y-113436022D01*
X138854868Y-113428408D01*
X138853035Y-113428539D01*
X138846420Y-113432790D01*
X138168207Y-114111003D01*
X138161777Y-114122777D01*
X118537550Y-114122777D01*
X118322255Y-113644841D01*
X118320613Y-113641028D01*
X118260457Y-113494715D01*
X118085619Y-113069475D01*
X137581628Y-113069475D01*
X137600038Y-113279896D01*
X137601941Y-113290691D01*
X137656609Y-113494715D01*
X137660355Y-113505007D01*
X137749623Y-113696441D01*
X137755103Y-113705932D01*
X137785794Y-113749765D01*
X137796271Y-113758140D01*
X137809718Y-113751072D01*
X138483978Y-113076812D01*
X138490356Y-113065132D01*
X139220408Y-113065132D01*
X139220539Y-113066965D01*
X139224790Y-113073580D01*
X139903003Y-113751793D01*
X139914777Y-113758223D01*
X139926793Y-113748926D01*
X139956897Y-113705932D01*
X139962377Y-113696441D01*
X140051645Y-113505007D01*
X140055391Y-113494715D01*
X140110059Y-113290691D01*
X140111962Y-113279896D01*
X140130372Y-113069475D01*
X140130372Y-113058525D01*
X140111962Y-112848104D01*
X140110059Y-112837309D01*
X140055391Y-112633285D01*
X140051645Y-112622993D01*
X139962377Y-112431559D01*
X139956897Y-112422068D01*
X139926206Y-112378235D01*
X139915729Y-112369860D01*
X139902282Y-112376928D01*
X139228022Y-113051188D01*
X139220408Y-113065132D01*
X138490356Y-113065132D01*
X138491592Y-113062868D01*
X138491461Y-113061035D01*
X138487210Y-113054420D01*
X137808997Y-112376207D01*
X137797223Y-112369777D01*
X137785207Y-112379074D01*
X137755103Y-112422068D01*
X137749623Y-112431559D01*
X137660355Y-112622993D01*
X137656609Y-112633285D01*
X137601941Y-112837309D01*
X137600038Y-112848104D01*
X137581628Y-113058525D01*
X137581628Y-113069475D01*
X118085619Y-113069475D01*
X117887269Y-112587047D01*
X117885753Y-112583178D01*
X117669885Y-112004271D01*
X138161860Y-112004271D01*
X138168928Y-112017718D01*
X138843188Y-112691978D01*
X138857132Y-112699592D01*
X138858965Y-112699461D01*
X138865580Y-112695210D01*
X139543793Y-112016997D01*
X139550223Y-112005223D01*
X139540926Y-111993207D01*
X139497931Y-111963102D01*
X139488445Y-111957624D01*
X139297007Y-111868355D01*
X139286715Y-111864609D01*
X139082691Y-111809941D01*
X139071896Y-111808038D01*
X138861475Y-111789628D01*
X138850525Y-111789628D01*
X138640104Y-111808038D01*
X138629309Y-111809941D01*
X138425285Y-111864609D01*
X138414993Y-111868355D01*
X138223559Y-111957623D01*
X138214068Y-111963103D01*
X138170235Y-111993794D01*
X138161860Y-112004271D01*
X117669885Y-112004271D01*
X117487616Y-111515469D01*
X117486221Y-111511531D01*
X117188700Y-110624908D01*
X117154065Y-110521695D01*
X118637251Y-110521695D01*
X118637548Y-110526848D01*
X118637548Y-110526851D01*
X118643011Y-110621590D01*
X118650110Y-110744715D01*
X118651247Y-110749761D01*
X118651248Y-110749767D01*
X118671119Y-110837939D01*
X118699222Y-110962639D01*
X118783266Y-111169616D01*
X118899987Y-111360088D01*
X119046250Y-111528938D01*
X119218126Y-111671632D01*
X119411000Y-111784338D01*
X119619692Y-111864030D01*
X119624760Y-111865061D01*
X119624763Y-111865062D01*
X119732017Y-111886883D01*
X119838597Y-111908567D01*
X119843772Y-111908757D01*
X119843774Y-111908757D01*
X120056673Y-111916564D01*
X120056677Y-111916564D01*
X120061837Y-111916753D01*
X120066957Y-111916097D01*
X120066959Y-111916097D01*
X120278288Y-111889025D01*
X120278289Y-111889025D01*
X120283416Y-111888368D01*
X120288366Y-111886883D01*
X120492429Y-111825661D01*
X120492434Y-111825659D01*
X120497384Y-111824174D01*
X120697994Y-111725896D01*
X120879860Y-111596173D01*
X121038096Y-111438489D01*
X121097594Y-111355689D01*
X121165435Y-111261277D01*
X121168453Y-111257077D01*
X121267430Y-111056811D01*
X121332370Y-110843069D01*
X121361529Y-110621590D01*
X121363156Y-110555000D01*
X121344852Y-110332361D01*
X121290431Y-110115702D01*
X121201354Y-109910840D01*
X121080014Y-109723277D01*
X120929670Y-109558051D01*
X120925619Y-109554852D01*
X120925615Y-109554848D01*
X120758414Y-109422800D01*
X120758410Y-109422798D01*
X120754359Y-109419598D01*
X120712569Y-109396529D01*
X120662598Y-109346097D01*
X120647826Y-109276654D01*
X120672942Y-109210248D01*
X120700294Y-109183641D01*
X120875328Y-109058792D01*
X120883200Y-109052139D01*
X121034052Y-108901812D01*
X121040730Y-108893965D01*
X121165003Y-108721020D01*
X121170313Y-108712183D01*
X121264670Y-108521267D01*
X121268469Y-108511672D01*
X121330377Y-108307910D01*
X121332555Y-108297837D01*
X121333986Y-108286962D01*
X121331775Y-108272778D01*
X121318617Y-108269000D01*
X118683225Y-108269000D01*
X118669694Y-108272973D01*
X118668257Y-108282966D01*
X118698565Y-108417446D01*
X118701645Y-108427275D01*
X118781770Y-108624603D01*
X118786413Y-108633794D01*
X118897694Y-108815388D01*
X118903777Y-108823699D01*
X119043213Y-108984667D01*
X119050580Y-108991883D01*
X119214434Y-109127916D01*
X119222881Y-109133831D01*
X119291969Y-109174203D01*
X119340693Y-109225842D01*
X119353764Y-109295625D01*
X119327033Y-109361396D01*
X119286584Y-109394752D01*
X119273607Y-109401507D01*
X119269474Y-109404610D01*
X119269471Y-109404612D01*
X119245247Y-109422800D01*
X119094965Y-109535635D01*
X118940629Y-109697138D01*
X118814743Y-109881680D01*
X118720688Y-110084305D01*
X118660989Y-110299570D01*
X118637251Y-110521695D01*
X117154065Y-110521695D01*
X117123677Y-110431138D01*
X117122421Y-110427176D01*
X117094066Y-110332361D01*
X116904094Y-109697138D01*
X116795921Y-109335430D01*
X116794790Y-109331408D01*
X116658933Y-108815388D01*
X116504640Y-108229346D01*
X116503660Y-108225350D01*
X116250224Y-107114339D01*
X116249363Y-107110256D01*
X116106749Y-106373134D01*
X118641500Y-106373134D01*
X118648255Y-106435316D01*
X118699385Y-106571705D01*
X118786739Y-106688261D01*
X118903295Y-106775615D01*
X118911704Y-106778767D01*
X118911705Y-106778768D01*
X119020960Y-106819726D01*
X119077725Y-106862367D01*
X119102425Y-106928929D01*
X119087218Y-106998278D01*
X119067825Y-107024759D01*
X118944590Y-107153717D01*
X118938104Y-107161727D01*
X118818098Y-107337649D01*
X118813000Y-107346623D01*
X118723338Y-107539783D01*
X118719775Y-107549470D01*
X118664389Y-107749183D01*
X118665912Y-107757607D01*
X118678292Y-107761000D01*
X121318344Y-107761000D01*
X121331875Y-107757027D01*
X121333180Y-107747947D01*
X121291214Y-107580875D01*
X121287894Y-107571124D01*
X121202972Y-107375814D01*
X121198105Y-107366739D01*
X121082426Y-107187926D01*
X121076136Y-107179757D01*
X120932293Y-107021677D01*
X120901241Y-106957831D01*
X120909635Y-106887333D01*
X120954812Y-106832564D01*
X120981256Y-106818895D01*
X121088297Y-106778767D01*
X121096705Y-106775615D01*
X121213261Y-106688261D01*
X121300615Y-106571705D01*
X121351745Y-106435316D01*
X121358500Y-106373134D01*
X121358500Y-104576866D01*
X121351745Y-104514684D01*
X121300615Y-104378295D01*
X121213261Y-104261739D01*
X121096705Y-104174385D01*
X120960316Y-104123255D01*
X120898134Y-104116500D01*
X119101866Y-104116500D01*
X119039684Y-104123255D01*
X118903295Y-104174385D01*
X118786739Y-104261739D01*
X118699385Y-104378295D01*
X118648255Y-104514684D01*
X118641500Y-104576866D01*
X118641500Y-106373134D01*
X116106749Y-106373134D01*
X116032897Y-105991420D01*
X116032172Y-105987305D01*
X115852929Y-104861969D01*
X115852340Y-104857833D01*
X115817524Y-104580283D01*
X115710501Y-103727123D01*
X115710050Y-103722971D01*
X115605782Y-102588232D01*
X115605468Y-102584066D01*
X115552836Y-101684902D01*
X115538877Y-101446431D01*
X115538702Y-101442266D01*
X115509866Y-100303066D01*
X115509830Y-100298888D01*
X115518780Y-99159389D01*
X115518882Y-99155213D01*
X115565607Y-98016635D01*
X115565847Y-98012463D01*
X115650299Y-96876020D01*
X115650678Y-96871859D01*
X115772761Y-95738860D01*
X115773278Y-95734714D01*
X115802934Y-95525031D01*
X115932857Y-94606400D01*
X115933506Y-94602298D01*
X115941213Y-94558365D01*
X115947646Y-94521695D01*
X118637251Y-94521695D01*
X118637548Y-94526848D01*
X118637548Y-94526851D01*
X118643011Y-94621590D01*
X118650110Y-94744715D01*
X118651247Y-94749761D01*
X118651248Y-94749767D01*
X118671119Y-94837939D01*
X118699222Y-94962639D01*
X118783266Y-95169616D01*
X118899987Y-95360088D01*
X119046250Y-95528938D01*
X119218126Y-95671632D01*
X119411000Y-95784338D01*
X119619692Y-95864030D01*
X119624760Y-95865061D01*
X119624763Y-95865062D01*
X119732017Y-95886883D01*
X119838597Y-95908567D01*
X119843772Y-95908757D01*
X119843774Y-95908757D01*
X120056673Y-95916564D01*
X120056677Y-95916564D01*
X120061837Y-95916753D01*
X120066957Y-95916097D01*
X120066959Y-95916097D01*
X120278288Y-95889025D01*
X120278289Y-95889025D01*
X120283416Y-95888368D01*
X120288366Y-95886883D01*
X120492429Y-95825661D01*
X120492434Y-95825659D01*
X120497384Y-95824174D01*
X120697994Y-95725896D01*
X120879860Y-95596173D01*
X121038096Y-95438489D01*
X121097594Y-95355689D01*
X121165435Y-95261277D01*
X121168453Y-95257077D01*
X121267430Y-95056811D01*
X121332370Y-94843069D01*
X121361529Y-94621590D01*
X121361900Y-94606424D01*
X121363074Y-94558365D01*
X121363074Y-94558361D01*
X121363156Y-94555000D01*
X121344852Y-94332361D01*
X121290431Y-94115702D01*
X121201354Y-93910840D01*
X121080014Y-93723277D01*
X120929670Y-93558051D01*
X120925619Y-93554852D01*
X120925615Y-93554848D01*
X120758414Y-93422800D01*
X120758410Y-93422798D01*
X120754359Y-93419598D01*
X120712569Y-93396529D01*
X120662598Y-93346097D01*
X120647826Y-93276654D01*
X120672942Y-93210248D01*
X120700294Y-93183641D01*
X120875328Y-93058792D01*
X120883200Y-93052139D01*
X121034052Y-92901812D01*
X121040730Y-92893965D01*
X121165003Y-92721020D01*
X121170313Y-92712183D01*
X121264670Y-92521267D01*
X121268469Y-92511672D01*
X121330377Y-92307910D01*
X121332555Y-92297837D01*
X121333986Y-92286962D01*
X121331775Y-92272778D01*
X121318617Y-92269000D01*
X118683225Y-92269000D01*
X118669694Y-92272973D01*
X118668257Y-92282966D01*
X118698565Y-92417446D01*
X118701645Y-92427275D01*
X118781770Y-92624603D01*
X118786413Y-92633794D01*
X118897694Y-92815388D01*
X118903777Y-92823699D01*
X119043213Y-92984667D01*
X119050580Y-92991883D01*
X119214434Y-93127916D01*
X119222881Y-93133831D01*
X119291969Y-93174203D01*
X119340693Y-93225842D01*
X119353764Y-93295625D01*
X119327033Y-93361396D01*
X119286584Y-93394752D01*
X119273607Y-93401507D01*
X119269474Y-93404610D01*
X119269471Y-93404612D01*
X119171974Y-93477815D01*
X119094965Y-93535635D01*
X118940629Y-93697138D01*
X118814743Y-93881680D01*
X118720688Y-94084305D01*
X118660989Y-94299570D01*
X118637251Y-94521695D01*
X115947646Y-94521695D01*
X116130414Y-93479850D01*
X116131199Y-93475773D01*
X116146131Y-93404612D01*
X116365215Y-92360468D01*
X116366135Y-92356419D01*
X116386555Y-92272973D01*
X116558296Y-91571124D01*
X116636985Y-91249549D01*
X116638045Y-91245507D01*
X116882437Y-90373134D01*
X118641500Y-90373134D01*
X118648255Y-90435316D01*
X118699385Y-90571705D01*
X118786739Y-90688261D01*
X118903295Y-90775615D01*
X118911704Y-90778767D01*
X118911705Y-90778768D01*
X119020960Y-90819726D01*
X119077725Y-90862367D01*
X119102425Y-90928929D01*
X119087218Y-90998278D01*
X119067825Y-91024759D01*
X118944590Y-91153717D01*
X118938104Y-91161727D01*
X118818098Y-91337649D01*
X118813000Y-91346623D01*
X118723338Y-91539783D01*
X118719775Y-91549470D01*
X118664389Y-91749183D01*
X118665912Y-91757607D01*
X118678292Y-91761000D01*
X121318344Y-91761000D01*
X121331875Y-91757027D01*
X121333180Y-91747947D01*
X121291214Y-91580875D01*
X121287894Y-91571124D01*
X121202972Y-91375814D01*
X121198105Y-91366739D01*
X121082426Y-91187926D01*
X121076136Y-91179757D01*
X120932293Y-91021677D01*
X120901241Y-90957831D01*
X120909635Y-90887333D01*
X120954812Y-90832564D01*
X120981256Y-90818895D01*
X121088297Y-90778767D01*
X121096705Y-90775615D01*
X121213261Y-90688261D01*
X121300615Y-90571705D01*
X121351745Y-90435316D01*
X121358500Y-90373134D01*
X121358500Y-88576866D01*
X121351745Y-88514684D01*
X121300615Y-88378295D01*
X121213261Y-88261739D01*
X121096705Y-88174385D01*
X120960316Y-88123255D01*
X120898134Y-88116500D01*
X119101866Y-88116500D01*
X119039684Y-88123255D01*
X118903295Y-88174385D01*
X118786739Y-88261739D01*
X118699385Y-88378295D01*
X118648255Y-88514684D01*
X118641500Y-88576866D01*
X118641500Y-90373134D01*
X116882437Y-90373134D01*
X116945456Y-90148182D01*
X116946650Y-90144178D01*
X117290259Y-89057696D01*
X117291584Y-89053734D01*
X117458777Y-88580283D01*
X117671054Y-87979163D01*
X117672505Y-87975264D01*
X117714773Y-87867133D01*
X117924342Y-87331000D01*
X118087363Y-86913949D01*
X118088948Y-86910083D01*
X118538787Y-85863053D01*
X118540500Y-85859242D01*
X118562985Y-85811350D01*
X118909898Y-85072450D01*
X118956953Y-85019289D01*
X119023952Y-85000000D01*
X129625640Y-85000000D01*
X129693761Y-85020002D01*
G37*
G04 #@! TD.AperFunction*
G04 #@! TD*
G04 #@! TA.AperFunction,Conductor*
G04 #@! TO.N,+3V3*
G36*
X172679080Y-74020002D02*
G01*
X172694531Y-74031704D01*
X173300553Y-74568810D01*
X173303627Y-74571626D01*
X174023007Y-75253101D01*
X174130919Y-75355327D01*
X174133904Y-75358250D01*
X174934751Y-76168941D01*
X174937638Y-76171962D01*
X175711184Y-77008780D01*
X175713968Y-77011895D01*
X176459292Y-77873838D01*
X176461966Y-77877035D01*
X177130019Y-78703484D01*
X177178371Y-78763301D01*
X177180936Y-78766586D01*
X177664848Y-79407594D01*
X177867511Y-79676049D01*
X177869973Y-79679424D01*
X177955900Y-79801459D01*
X177978763Y-79868674D01*
X177961659Y-79937579D01*
X177910017Y-79986299D01*
X177852876Y-80000000D01*
X160000000Y-80000000D01*
X160000000Y-86000000D01*
X161710067Y-86000000D01*
X161778188Y-86020002D01*
X161824681Y-86073658D01*
X161835588Y-86115018D01*
X161854038Y-86325896D01*
X161855941Y-86336691D01*
X161910609Y-86540715D01*
X161914355Y-86551007D01*
X162003623Y-86742441D01*
X162009103Y-86751932D01*
X162039794Y-86795765D01*
X162050271Y-86804140D01*
X162063718Y-86797072D01*
X162860790Y-86000000D01*
X163359210Y-86000000D01*
X163380115Y-86020905D01*
X163414141Y-86083217D01*
X163409076Y-86154032D01*
X163380115Y-86199095D01*
X162422207Y-87157003D01*
X162415777Y-87168777D01*
X162425074Y-87180793D01*
X162468069Y-87210898D01*
X162477555Y-87216376D01*
X162582965Y-87265529D01*
X162636250Y-87312446D01*
X162655711Y-87380723D01*
X162635169Y-87448683D01*
X162582965Y-87493919D01*
X162477311Y-87543186D01*
X162477306Y-87543189D01*
X162472324Y-87545512D01*
X162467817Y-87548668D01*
X162467815Y-87548669D01*
X162294730Y-87669864D01*
X162294727Y-87669866D01*
X162290219Y-87673023D01*
X162133023Y-87830219D01*
X162129866Y-87834727D01*
X162129864Y-87834730D01*
X162031342Y-87975435D01*
X162005512Y-88012324D01*
X162003189Y-88017306D01*
X162003186Y-88017311D01*
X161929941Y-88174385D01*
X161911560Y-88213804D01*
X161910138Y-88219112D01*
X161910137Y-88219114D01*
X161907406Y-88229308D01*
X161854022Y-88428537D01*
X161834647Y-88650000D01*
X161854022Y-88871463D01*
X161911560Y-89086196D01*
X161913882Y-89091177D01*
X161913883Y-89091178D01*
X162003186Y-89282689D01*
X162003189Y-89282694D01*
X162005512Y-89287676D01*
X162008668Y-89292183D01*
X162008669Y-89292185D01*
X162056318Y-89360234D01*
X162133023Y-89469781D01*
X162290219Y-89626977D01*
X162294727Y-89630134D01*
X162294730Y-89630136D01*
X162349588Y-89668548D01*
X162472323Y-89754488D01*
X162477305Y-89756811D01*
X162477310Y-89756814D01*
X162582373Y-89805805D01*
X162635658Y-89852722D01*
X162655119Y-89920999D01*
X162634577Y-89988959D01*
X162582373Y-90034195D01*
X162477311Y-90083186D01*
X162477306Y-90083189D01*
X162472324Y-90085512D01*
X162467817Y-90088668D01*
X162467815Y-90088669D01*
X162294730Y-90209864D01*
X162294727Y-90209866D01*
X162290219Y-90213023D01*
X162133023Y-90370219D01*
X162129866Y-90374727D01*
X162129864Y-90374730D01*
X162008669Y-90547815D01*
X162005512Y-90552324D01*
X162003189Y-90557306D01*
X162003186Y-90557311D01*
X161913883Y-90748822D01*
X161911560Y-90753804D01*
X161854022Y-90968537D01*
X161834647Y-91190000D01*
X161854022Y-91411463D01*
X161911560Y-91626196D01*
X161913882Y-91631177D01*
X161913883Y-91631178D01*
X162003186Y-91822689D01*
X162003189Y-91822694D01*
X162005512Y-91827676D01*
X162008668Y-91832183D01*
X162008669Y-91832185D01*
X162048802Y-91889500D01*
X162133023Y-92009781D01*
X162290219Y-92166977D01*
X162294727Y-92170134D01*
X162294730Y-92170136D01*
X162344114Y-92204715D01*
X162472323Y-92294488D01*
X162477305Y-92296811D01*
X162477310Y-92296814D01*
X162582373Y-92345805D01*
X162635658Y-92392722D01*
X162655119Y-92460999D01*
X162634577Y-92528959D01*
X162582373Y-92574195D01*
X162477311Y-92623186D01*
X162477306Y-92623189D01*
X162472324Y-92625512D01*
X162467817Y-92628668D01*
X162467815Y-92628669D01*
X162294730Y-92749864D01*
X162294727Y-92749866D01*
X162290219Y-92753023D01*
X162133023Y-92910219D01*
X162005512Y-93092324D01*
X162003189Y-93097306D01*
X162003186Y-93097311D01*
X161915867Y-93284567D01*
X161911560Y-93293804D01*
X161854022Y-93508537D01*
X161834647Y-93730000D01*
X161854022Y-93951463D01*
X161911560Y-94166196D01*
X161913882Y-94171177D01*
X161913883Y-94171178D01*
X162003186Y-94362689D01*
X162003189Y-94362694D01*
X162005512Y-94367676D01*
X162133023Y-94549781D01*
X162290219Y-94706977D01*
X162294727Y-94710134D01*
X162294730Y-94710136D01*
X162313836Y-94723514D01*
X162472323Y-94834488D01*
X162477305Y-94836811D01*
X162477310Y-94836814D01*
X162582373Y-94885805D01*
X162635658Y-94932722D01*
X162655119Y-95000999D01*
X162634577Y-95068959D01*
X162582373Y-95114195D01*
X162477311Y-95163186D01*
X162477306Y-95163189D01*
X162472324Y-95165512D01*
X162467817Y-95168668D01*
X162467815Y-95168669D01*
X162294730Y-95289864D01*
X162294727Y-95289866D01*
X162290219Y-95293023D01*
X162133023Y-95450219D01*
X162129866Y-95454727D01*
X162129864Y-95454730D01*
X162030825Y-95596173D01*
X162005512Y-95632324D01*
X162003189Y-95637306D01*
X162003186Y-95637311D01*
X161913883Y-95828822D01*
X161911560Y-95833804D01*
X161910138Y-95839112D01*
X161910137Y-95839114D01*
X161892497Y-95904949D01*
X161854022Y-96048537D01*
X161834647Y-96270000D01*
X161854022Y-96491463D01*
X161884532Y-96605328D01*
X161901400Y-96668277D01*
X161911560Y-96706196D01*
X161913882Y-96711177D01*
X161913883Y-96711178D01*
X162003186Y-96902689D01*
X162003189Y-96902694D01*
X162005512Y-96907676D01*
X162008668Y-96912183D01*
X162008669Y-96912185D01*
X162112662Y-97060702D01*
X162133023Y-97089781D01*
X162290219Y-97246977D01*
X162294727Y-97250134D01*
X162294730Y-97250136D01*
X162340982Y-97282522D01*
X162472323Y-97374488D01*
X162477305Y-97376811D01*
X162477310Y-97376814D01*
X162582373Y-97425805D01*
X162635658Y-97472722D01*
X162655119Y-97540999D01*
X162634577Y-97608959D01*
X162582373Y-97654195D01*
X162477311Y-97703186D01*
X162477306Y-97703189D01*
X162472324Y-97705512D01*
X162467817Y-97708668D01*
X162467815Y-97708669D01*
X162294730Y-97829864D01*
X162294727Y-97829866D01*
X162290219Y-97833023D01*
X162133023Y-97990219D01*
X162129866Y-97994727D01*
X162129864Y-97994730D01*
X162045919Y-98114616D01*
X162005512Y-98172324D01*
X162003189Y-98177306D01*
X162003186Y-98177311D01*
X161943603Y-98305088D01*
X161911560Y-98373804D01*
X161854022Y-98588537D01*
X161834647Y-98810000D01*
X161854022Y-99031463D01*
X161911560Y-99246196D01*
X161913882Y-99251177D01*
X161913883Y-99251178D01*
X162003186Y-99442689D01*
X162003189Y-99442694D01*
X162005512Y-99447676D01*
X162133023Y-99629781D01*
X162290219Y-99786977D01*
X162294727Y-99790134D01*
X162294730Y-99790136D01*
X162361133Y-99836632D01*
X162472323Y-99914488D01*
X162477305Y-99916811D01*
X162477310Y-99916814D01*
X162582373Y-99965805D01*
X162635658Y-100012722D01*
X162655119Y-100080999D01*
X162634577Y-100148959D01*
X162582373Y-100194195D01*
X162477311Y-100243186D01*
X162477306Y-100243189D01*
X162472324Y-100245512D01*
X162467817Y-100248668D01*
X162467815Y-100248669D01*
X162294730Y-100369864D01*
X162294727Y-100369866D01*
X162290219Y-100373023D01*
X162133023Y-100530219D01*
X162129866Y-100534727D01*
X162129864Y-100534730D01*
X162008669Y-100707815D01*
X162005512Y-100712324D01*
X162003189Y-100717306D01*
X162003186Y-100717311D01*
X161969615Y-100789305D01*
X161911560Y-100913804D01*
X161854022Y-101128537D01*
X161834647Y-101350000D01*
X161854022Y-101571463D01*
X161911560Y-101786196D01*
X161913882Y-101791177D01*
X161913883Y-101791178D01*
X162003186Y-101982689D01*
X162003189Y-101982694D01*
X162005512Y-101987676D01*
X162133023Y-102169781D01*
X162290219Y-102326977D01*
X162294727Y-102330134D01*
X162294730Y-102330136D01*
X162361133Y-102376632D01*
X162472323Y-102454488D01*
X162477305Y-102456811D01*
X162477310Y-102456814D01*
X162582373Y-102505805D01*
X162635658Y-102552722D01*
X162655119Y-102620999D01*
X162634577Y-102688959D01*
X162582373Y-102734195D01*
X162477311Y-102783186D01*
X162477306Y-102783189D01*
X162472324Y-102785512D01*
X162467817Y-102788668D01*
X162467815Y-102788669D01*
X162294730Y-102909864D01*
X162294727Y-102909866D01*
X162290219Y-102913023D01*
X162133023Y-103070219D01*
X162129866Y-103074727D01*
X162129864Y-103074730D01*
X162028371Y-103219678D01*
X162005512Y-103252324D01*
X162003189Y-103257306D01*
X162003186Y-103257311D01*
X161949250Y-103372977D01*
X161911560Y-103453804D01*
X161854022Y-103668537D01*
X161834647Y-103890000D01*
X161854022Y-104111463D01*
X161911560Y-104326196D01*
X161913882Y-104331177D01*
X161913883Y-104331178D01*
X162003186Y-104522689D01*
X162003189Y-104522694D01*
X162005512Y-104527676D01*
X162008668Y-104532183D01*
X162008669Y-104532185D01*
X162124868Y-104698134D01*
X162133023Y-104709781D01*
X162290219Y-104866977D01*
X162294727Y-104870134D01*
X162294730Y-104870136D01*
X162329767Y-104894669D01*
X162472323Y-104994488D01*
X162477305Y-104996811D01*
X162477310Y-104996814D01*
X162582373Y-105045805D01*
X162635658Y-105092722D01*
X162655119Y-105160999D01*
X162634577Y-105228959D01*
X162582373Y-105274195D01*
X162477311Y-105323186D01*
X162477306Y-105323189D01*
X162472324Y-105325512D01*
X162467817Y-105328668D01*
X162467815Y-105328669D01*
X162294730Y-105449864D01*
X162294727Y-105449866D01*
X162290219Y-105453023D01*
X162133023Y-105610219D01*
X162129866Y-105614727D01*
X162129864Y-105614730D01*
X162028371Y-105759678D01*
X162005512Y-105792324D01*
X162003189Y-105797306D01*
X162003186Y-105797311D01*
X161949250Y-105912977D01*
X161911560Y-105993804D01*
X161854022Y-106208537D01*
X161834647Y-106430000D01*
X161854022Y-106651463D01*
X161900465Y-106824788D01*
X161904913Y-106841389D01*
X161903223Y-106912365D01*
X161863429Y-106971161D01*
X161798165Y-106999109D01*
X161783206Y-107000000D01*
X155000000Y-107000000D01*
X155000000Y-134013521D01*
X154979998Y-134081642D01*
X154926342Y-134128135D01*
X154892298Y-134138185D01*
X154444414Y-134203923D01*
X154440270Y-134204461D01*
X153307956Y-134332471D01*
X153303798Y-134332872D01*
X152437449Y-134401816D01*
X152167806Y-134423274D01*
X152163646Y-134423536D01*
X152063575Y-134428168D01*
X151025321Y-134476222D01*
X151021144Y-134476346D01*
X149881709Y-134491262D01*
X149877531Y-134491248D01*
X148738196Y-134468377D01*
X148734021Y-134468224D01*
X147596065Y-134407590D01*
X147591897Y-134407298D01*
X147153423Y-134369322D01*
X146456599Y-134308971D01*
X146452498Y-134308548D01*
X145321022Y-134172626D01*
X145316926Y-134172065D01*
X144729439Y-134081642D01*
X144190611Y-133998708D01*
X144186493Y-133998004D01*
X143529107Y-133874384D01*
X143066536Y-133787399D01*
X143062472Y-133786564D01*
X142196962Y-133593892D01*
X141950164Y-133538952D01*
X141946102Y-133537977D01*
X140842616Y-133253624D01*
X140838587Y-133252515D01*
X140730658Y-133220852D01*
X139745057Y-132931708D01*
X139741123Y-132930482D01*
X138894637Y-132651353D01*
X138658874Y-132573610D01*
X138654929Y-132572236D01*
X137817272Y-132264868D01*
X137585116Y-132179681D01*
X137581254Y-132178191D01*
X136525007Y-131750367D01*
X136521190Y-131748746D01*
X135479759Y-131286160D01*
X135475969Y-131284401D01*
X134450429Y-130787531D01*
X134446700Y-130785647D01*
X133438232Y-130255066D01*
X133434567Y-130253060D01*
X132444220Y-129689321D01*
X132440623Y-129687194D01*
X131469498Y-129090921D01*
X131465975Y-129088676D01*
X131383123Y-129033941D01*
X130515203Y-128460566D01*
X130511755Y-128458206D01*
X129999824Y-128095068D01*
X129582259Y-127798868D01*
X129578900Y-127796400D01*
X129569782Y-127789466D01*
X128671819Y-127106639D01*
X128668537Y-127104056D01*
X128514520Y-126978666D01*
X137962863Y-126978666D01*
X137978815Y-127255335D01*
X137979640Y-127259542D01*
X137979641Y-127259547D01*
X137991246Y-127318696D01*
X138032169Y-127527279D01*
X138033556Y-127531330D01*
X138110696Y-127756638D01*
X138121935Y-127789466D01*
X138246454Y-128037044D01*
X138403421Y-128265433D01*
X138589932Y-128470405D01*
X138593221Y-128473155D01*
X138799243Y-128645417D01*
X138799248Y-128645421D01*
X138802535Y-128648169D01*
X138856976Y-128682320D01*
X139033656Y-128793152D01*
X139033660Y-128793154D01*
X139037296Y-128795435D01*
X139289872Y-128909477D01*
X139293992Y-128910697D01*
X139293991Y-128910697D01*
X139551475Y-128986967D01*
X139551479Y-128986968D01*
X139555588Y-128988185D01*
X139559825Y-128988833D01*
X139559828Y-128988834D01*
X139788846Y-129023879D01*
X139829527Y-129030104D01*
X139970602Y-129032320D01*
X140102330Y-129034390D01*
X140102336Y-129034390D01*
X140106621Y-129034457D01*
X140381742Y-129001164D01*
X140649800Y-128930840D01*
X140905833Y-128824788D01*
X141145104Y-128684969D01*
X141363186Y-128513971D01*
X141402740Y-128473155D01*
X141488188Y-128384979D01*
X141556043Y-128314958D01*
X141558576Y-128311510D01*
X141558580Y-128311505D01*
X141717568Y-128095068D01*
X141720106Y-128091613D01*
X141852340Y-127848068D01*
X141950298Y-127588830D01*
X141966570Y-127517781D01*
X142011210Y-127322876D01*
X142011211Y-127322871D01*
X142012167Y-127318696D01*
X142036802Y-127042665D01*
X142037249Y-127000000D01*
X142035795Y-126978666D01*
X142018692Y-126727791D01*
X142018691Y-126727785D01*
X142018400Y-126723514D01*
X141962202Y-126452143D01*
X141869695Y-126190911D01*
X141742590Y-125944650D01*
X141583240Y-125717918D01*
X141394593Y-125514909D01*
X141373572Y-125497703D01*
X141207472Y-125361753D01*
X141180140Y-125339382D01*
X140943849Y-125194583D01*
X140939932Y-125192864D01*
X140939929Y-125192862D01*
X140828346Y-125143881D01*
X140690093Y-125083192D01*
X140685965Y-125082016D01*
X140685962Y-125082015D01*
X140603917Y-125058644D01*
X140423568Y-125007270D01*
X140419326Y-125006666D01*
X140419320Y-125006665D01*
X140153455Y-124968827D01*
X140149204Y-124968222D01*
X140003115Y-124967457D01*
X139876366Y-124966793D01*
X139876360Y-124966793D01*
X139872080Y-124966771D01*
X139867835Y-124967330D01*
X139867833Y-124967330D01*
X139856463Y-124968827D01*
X139597323Y-125002944D01*
X139330017Y-125076070D01*
X139326069Y-125077754D01*
X139079060Y-125183112D01*
X139079056Y-125183114D01*
X139075108Y-125184798D01*
X139055021Y-125196820D01*
X138840996Y-125324911D01*
X138840992Y-125324914D01*
X138837314Y-125327115D01*
X138621035Y-125500387D01*
X138430273Y-125701409D01*
X138268557Y-125926460D01*
X138138880Y-126171376D01*
X138091261Y-126301501D01*
X138058275Y-126391643D01*
X138043643Y-126431626D01*
X137984606Y-126702392D01*
X137962863Y-126978666D01*
X128514520Y-126978666D01*
X128206368Y-126727791D01*
X127784834Y-126384608D01*
X127781639Y-126381918D01*
X127015532Y-125714777D01*
X126922265Y-125633559D01*
X126919165Y-125630768D01*
X126776220Y-125497703D01*
X126085047Y-124854300D01*
X126082042Y-124851408D01*
X125983470Y-124753350D01*
X125274167Y-124047751D01*
X125271254Y-124044756D01*
X124769528Y-123511406D01*
X124490436Y-123214723D01*
X124487638Y-123211648D01*
X124481986Y-123205225D01*
X123734778Y-122356193D01*
X123732072Y-122353013D01*
X123007998Y-121473076D01*
X123005397Y-121469806D01*
X122310896Y-120566348D01*
X122308405Y-120562994D01*
X121644229Y-119636992D01*
X121641851Y-119633557D01*
X121349486Y-119196002D01*
X121328271Y-119128249D01*
X121347054Y-119059782D01*
X121399871Y-119012339D01*
X121454251Y-119000000D01*
X142000000Y-119000000D01*
X142000000Y-111000000D01*
X151105600Y-111000000D01*
X151106290Y-111006565D01*
X151123428Y-111169616D01*
X151125145Y-111185956D01*
X151182925Y-111363785D01*
X151276415Y-111525715D01*
X151401530Y-111664669D01*
X151406869Y-111668548D01*
X151495675Y-111733069D01*
X151552800Y-111774573D01*
X151558828Y-111777257D01*
X151558830Y-111777258D01*
X151627927Y-111808022D01*
X151723615Y-111850625D01*
X151793880Y-111865560D01*
X151900053Y-111888128D01*
X151900057Y-111888128D01*
X151906510Y-111889500D01*
X152093490Y-111889500D01*
X152099943Y-111888128D01*
X152099947Y-111888128D01*
X152206120Y-111865560D01*
X152276385Y-111850625D01*
X152372073Y-111808022D01*
X152441170Y-111777258D01*
X152441172Y-111777257D01*
X152447200Y-111774573D01*
X152504326Y-111733069D01*
X152593131Y-111668548D01*
X152598470Y-111664669D01*
X152723585Y-111525715D01*
X152817075Y-111363785D01*
X152874855Y-111185956D01*
X152876573Y-111169616D01*
X152893710Y-111006565D01*
X152894400Y-111000000D01*
X152874855Y-110814044D01*
X152817075Y-110636215D01*
X152774804Y-110562999D01*
X152758067Y-110494004D01*
X152774804Y-110437001D01*
X152781366Y-110425635D01*
X152817075Y-110363785D01*
X152874855Y-110185956D01*
X152894400Y-110000000D01*
X152874855Y-109814044D01*
X152817075Y-109636215D01*
X152723585Y-109474285D01*
X152674345Y-109419598D01*
X152602885Y-109340234D01*
X152602883Y-109340233D01*
X152598470Y-109335331D01*
X152447200Y-109225427D01*
X152441172Y-109222743D01*
X152441170Y-109222742D01*
X152282416Y-109152060D01*
X152282414Y-109152060D01*
X152276385Y-109149375D01*
X152184937Y-109129937D01*
X152099947Y-109111872D01*
X152099943Y-109111872D01*
X152093490Y-109110500D01*
X151906510Y-109110500D01*
X151900057Y-109111872D01*
X151900053Y-109111872D01*
X151815063Y-109129937D01*
X151723615Y-109149375D01*
X151717586Y-109152060D01*
X151717584Y-109152060D01*
X151558830Y-109222742D01*
X151558828Y-109222743D01*
X151552800Y-109225427D01*
X151401530Y-109335331D01*
X151397117Y-109340233D01*
X151397115Y-109340234D01*
X151325655Y-109419598D01*
X151276415Y-109474285D01*
X151182925Y-109636215D01*
X151125145Y-109814044D01*
X151105600Y-110000000D01*
X151125145Y-110185956D01*
X151182925Y-110363785D01*
X151218634Y-110425635D01*
X151225196Y-110437001D01*
X151241933Y-110505996D01*
X151225196Y-110562999D01*
X151182925Y-110636215D01*
X151125145Y-110814044D01*
X151105600Y-111000000D01*
X142000000Y-111000000D01*
X142000000Y-108000000D01*
X134126000Y-108000000D01*
X134057879Y-107979998D01*
X134011386Y-107926342D01*
X134000000Y-107874000D01*
X134000000Y-104936000D01*
X137580647Y-104936000D01*
X137600022Y-105157463D01*
X137657560Y-105372196D01*
X137659882Y-105377177D01*
X137659883Y-105377178D01*
X137749186Y-105568689D01*
X137749189Y-105568694D01*
X137751512Y-105573676D01*
X137754668Y-105578183D01*
X137754669Y-105578185D01*
X137777100Y-105610219D01*
X137879023Y-105755781D01*
X138036219Y-105912977D01*
X138040727Y-105916134D01*
X138040730Y-105916136D01*
X138049105Y-105922000D01*
X138218323Y-106040488D01*
X138223305Y-106042811D01*
X138223310Y-106042814D01*
X138414822Y-106132117D01*
X138419804Y-106134440D01*
X138425112Y-106135862D01*
X138425114Y-106135863D01*
X138490949Y-106153503D01*
X138634537Y-106191978D01*
X138856000Y-106211353D01*
X139077463Y-106191978D01*
X139221051Y-106153503D01*
X139286886Y-106135863D01*
X139286888Y-106135862D01*
X139292196Y-106134440D01*
X139297178Y-106132117D01*
X139488690Y-106042814D01*
X139488695Y-106042811D01*
X139493677Y-106040488D01*
X139662895Y-105922000D01*
X139671270Y-105916136D01*
X139671273Y-105916134D01*
X139675781Y-105912977D01*
X139832977Y-105755781D01*
X139934901Y-105610219D01*
X139957331Y-105578185D01*
X139957332Y-105578183D01*
X139960488Y-105573676D01*
X139962811Y-105568694D01*
X139962814Y-105568689D01*
X140052117Y-105377178D01*
X140052118Y-105377177D01*
X140054440Y-105372196D01*
X140111978Y-105157463D01*
X140131353Y-104936000D01*
X156122647Y-104936000D01*
X156142022Y-105157463D01*
X156199560Y-105372196D01*
X156201882Y-105377177D01*
X156201883Y-105377178D01*
X156291186Y-105568689D01*
X156291189Y-105568694D01*
X156293512Y-105573676D01*
X156296668Y-105578183D01*
X156296669Y-105578185D01*
X156319100Y-105610219D01*
X156421023Y-105755781D01*
X156578219Y-105912977D01*
X156582727Y-105916134D01*
X156582730Y-105916136D01*
X156591105Y-105922000D01*
X156760323Y-106040488D01*
X156765305Y-106042811D01*
X156765310Y-106042814D01*
X156956822Y-106132117D01*
X156961804Y-106134440D01*
X156967112Y-106135862D01*
X156967114Y-106135863D01*
X157032949Y-106153503D01*
X157176537Y-106191978D01*
X157398000Y-106211353D01*
X157619463Y-106191978D01*
X157763051Y-106153503D01*
X157828886Y-106135863D01*
X157828888Y-106135862D01*
X157834196Y-106134440D01*
X157839178Y-106132117D01*
X158030690Y-106042814D01*
X158030695Y-106042811D01*
X158035677Y-106040488D01*
X158204895Y-105922000D01*
X158213270Y-105916136D01*
X158213273Y-105916134D01*
X158217781Y-105912977D01*
X158374977Y-105755781D01*
X158476901Y-105610219D01*
X158499331Y-105578185D01*
X158499332Y-105578183D01*
X158502488Y-105573676D01*
X158504811Y-105568694D01*
X158504814Y-105568689D01*
X158594117Y-105377178D01*
X158594118Y-105377177D01*
X158596440Y-105372196D01*
X158653978Y-105157463D01*
X158673353Y-104936000D01*
X158653978Y-104714537D01*
X158596440Y-104499804D01*
X158557341Y-104415956D01*
X158504814Y-104303311D01*
X158504811Y-104303306D01*
X158502488Y-104298324D01*
X158427277Y-104190911D01*
X158378136Y-104120730D01*
X158378134Y-104120727D01*
X158374977Y-104116219D01*
X158217781Y-103959023D01*
X158213273Y-103955866D01*
X158213270Y-103955864D01*
X158085238Y-103866215D01*
X158035677Y-103831512D01*
X158030695Y-103829189D01*
X158030690Y-103829186D01*
X157925627Y-103780195D01*
X157872342Y-103733278D01*
X157852881Y-103665001D01*
X157873423Y-103597041D01*
X157925627Y-103551805D01*
X158030690Y-103502814D01*
X158030695Y-103502811D01*
X158035677Y-103500488D01*
X158208644Y-103379375D01*
X158213270Y-103376136D01*
X158213273Y-103376134D01*
X158217781Y-103372977D01*
X158374977Y-103215781D01*
X158396672Y-103184798D01*
X158499331Y-103038185D01*
X158499332Y-103038183D01*
X158502488Y-103033676D01*
X158504811Y-103028694D01*
X158504814Y-103028689D01*
X158594117Y-102837178D01*
X158594118Y-102837177D01*
X158596440Y-102832196D01*
X158598052Y-102826182D01*
X158615503Y-102761051D01*
X158653978Y-102617463D01*
X158673353Y-102396000D01*
X158653978Y-102174537D01*
X158596440Y-101959804D01*
X158556716Y-101874616D01*
X158504814Y-101763311D01*
X158504811Y-101763306D01*
X158502488Y-101758324D01*
X158486033Y-101734824D01*
X158378136Y-101580730D01*
X158378134Y-101580727D01*
X158374977Y-101576219D01*
X158217781Y-101419023D01*
X158213273Y-101415866D01*
X158213270Y-101415864D01*
X158085773Y-101326590D01*
X158035677Y-101291512D01*
X158030695Y-101289189D01*
X158030690Y-101289186D01*
X157839178Y-101199883D01*
X157839177Y-101199882D01*
X157834196Y-101197560D01*
X157828888Y-101196138D01*
X157828886Y-101196137D01*
X157763051Y-101178497D01*
X157619463Y-101140022D01*
X157398000Y-101120647D01*
X157176537Y-101140022D01*
X157032949Y-101178497D01*
X156967114Y-101196137D01*
X156967112Y-101196138D01*
X156961804Y-101197560D01*
X156956823Y-101199882D01*
X156956822Y-101199883D01*
X156765311Y-101289186D01*
X156765306Y-101289189D01*
X156760324Y-101291512D01*
X156755817Y-101294668D01*
X156755815Y-101294669D01*
X156582730Y-101415864D01*
X156582727Y-101415866D01*
X156578219Y-101419023D01*
X156421023Y-101576219D01*
X156417866Y-101580727D01*
X156417864Y-101580730D01*
X156309967Y-101734824D01*
X156293512Y-101758324D01*
X156291189Y-101763306D01*
X156291186Y-101763311D01*
X156239284Y-101874616D01*
X156199560Y-101959804D01*
X156142022Y-102174537D01*
X156122647Y-102396000D01*
X156142022Y-102617463D01*
X156180497Y-102761051D01*
X156197949Y-102826182D01*
X156199560Y-102832196D01*
X156201882Y-102837177D01*
X156201883Y-102837178D01*
X156291186Y-103028689D01*
X156291189Y-103028694D01*
X156293512Y-103033676D01*
X156296668Y-103038183D01*
X156296669Y-103038185D01*
X156399329Y-103184798D01*
X156421023Y-103215781D01*
X156578219Y-103372977D01*
X156582727Y-103376134D01*
X156582730Y-103376136D01*
X156587356Y-103379375D01*
X156760323Y-103500488D01*
X156765305Y-103502811D01*
X156765310Y-103502814D01*
X156870373Y-103551805D01*
X156923658Y-103598722D01*
X156943119Y-103666999D01*
X156922577Y-103734959D01*
X156870373Y-103780195D01*
X156765311Y-103829186D01*
X156765306Y-103829189D01*
X156760324Y-103831512D01*
X156755817Y-103834668D01*
X156755815Y-103834669D01*
X156582730Y-103955864D01*
X156582727Y-103955866D01*
X156578219Y-103959023D01*
X156421023Y-104116219D01*
X156417866Y-104120727D01*
X156417864Y-104120730D01*
X156368723Y-104190911D01*
X156293512Y-104298324D01*
X156291189Y-104303306D01*
X156291186Y-104303311D01*
X156238659Y-104415956D01*
X156199560Y-104499804D01*
X156142022Y-104714537D01*
X156122647Y-104936000D01*
X140131353Y-104936000D01*
X140111978Y-104714537D01*
X140054440Y-104499804D01*
X140015341Y-104415956D01*
X139962814Y-104303311D01*
X139962811Y-104303306D01*
X139960488Y-104298324D01*
X139885277Y-104190911D01*
X139836136Y-104120730D01*
X139836134Y-104120727D01*
X139832977Y-104116219D01*
X139675781Y-103959023D01*
X139671273Y-103955866D01*
X139671270Y-103955864D01*
X139543238Y-103866215D01*
X139493677Y-103831512D01*
X139488695Y-103829189D01*
X139488690Y-103829186D01*
X139383627Y-103780195D01*
X139330342Y-103733278D01*
X139310881Y-103665001D01*
X139331423Y-103597041D01*
X139383627Y-103551805D01*
X139488690Y-103502814D01*
X139488695Y-103502811D01*
X139493677Y-103500488D01*
X139666644Y-103379375D01*
X139671270Y-103376136D01*
X139671273Y-103376134D01*
X139675781Y-103372977D01*
X139832977Y-103215781D01*
X139854672Y-103184798D01*
X139957331Y-103038185D01*
X139957332Y-103038183D01*
X139960488Y-103033676D01*
X139962811Y-103028694D01*
X139962814Y-103028689D01*
X140052117Y-102837178D01*
X140052118Y-102837177D01*
X140054440Y-102832196D01*
X140056052Y-102826182D01*
X140073503Y-102761051D01*
X140111978Y-102617463D01*
X140131353Y-102396000D01*
X140111978Y-102174537D01*
X140054440Y-101959804D01*
X140014716Y-101874616D01*
X139962814Y-101763311D01*
X139962811Y-101763306D01*
X139960488Y-101758324D01*
X139944033Y-101734824D01*
X139836136Y-101580730D01*
X139836134Y-101580727D01*
X139832977Y-101576219D01*
X139675781Y-101419023D01*
X139671273Y-101415866D01*
X139671270Y-101415864D01*
X139543773Y-101326590D01*
X139493677Y-101291512D01*
X139488695Y-101289189D01*
X139488690Y-101289186D01*
X139297178Y-101199883D01*
X139297177Y-101199882D01*
X139292196Y-101197560D01*
X139286888Y-101196138D01*
X139286886Y-101196137D01*
X139221051Y-101178497D01*
X139077463Y-101140022D01*
X138856000Y-101120647D01*
X138634537Y-101140022D01*
X138490949Y-101178497D01*
X138425114Y-101196137D01*
X138425112Y-101196138D01*
X138419804Y-101197560D01*
X138414823Y-101199882D01*
X138414822Y-101199883D01*
X138223311Y-101289186D01*
X138223306Y-101289189D01*
X138218324Y-101291512D01*
X138213817Y-101294668D01*
X138213815Y-101294669D01*
X138040730Y-101415864D01*
X138040727Y-101415866D01*
X138036219Y-101419023D01*
X137879023Y-101576219D01*
X137875866Y-101580727D01*
X137875864Y-101580730D01*
X137767967Y-101734824D01*
X137751512Y-101758324D01*
X137749189Y-101763306D01*
X137749186Y-101763311D01*
X137697284Y-101874616D01*
X137657560Y-101959804D01*
X137600022Y-102174537D01*
X137580647Y-102396000D01*
X137600022Y-102617463D01*
X137638497Y-102761051D01*
X137655949Y-102826182D01*
X137657560Y-102832196D01*
X137659882Y-102837177D01*
X137659883Y-102837178D01*
X137749186Y-103028689D01*
X137749189Y-103028694D01*
X137751512Y-103033676D01*
X137754668Y-103038183D01*
X137754669Y-103038185D01*
X137857329Y-103184798D01*
X137879023Y-103215781D01*
X138036219Y-103372977D01*
X138040727Y-103376134D01*
X138040730Y-103376136D01*
X138045356Y-103379375D01*
X138218323Y-103500488D01*
X138223305Y-103502811D01*
X138223310Y-103502814D01*
X138328373Y-103551805D01*
X138381658Y-103598722D01*
X138401119Y-103666999D01*
X138380577Y-103734959D01*
X138328373Y-103780195D01*
X138223311Y-103829186D01*
X138223306Y-103829189D01*
X138218324Y-103831512D01*
X138213817Y-103834668D01*
X138213815Y-103834669D01*
X138040730Y-103955864D01*
X138040727Y-103955866D01*
X138036219Y-103959023D01*
X137879023Y-104116219D01*
X137875866Y-104120727D01*
X137875864Y-104120730D01*
X137826723Y-104190911D01*
X137751512Y-104298324D01*
X137749189Y-104303306D01*
X137749186Y-104303311D01*
X137696659Y-104415956D01*
X137657560Y-104499804D01*
X137600022Y-104714537D01*
X137580647Y-104936000D01*
X134000000Y-104936000D01*
X134000000Y-98394669D01*
X142292001Y-98394669D01*
X142292371Y-98401490D01*
X142297895Y-98452352D01*
X142301521Y-98467604D01*
X142346676Y-98588054D01*
X142355214Y-98603649D01*
X142431715Y-98705724D01*
X142444276Y-98718285D01*
X142546351Y-98794786D01*
X142561946Y-98803324D01*
X142682394Y-98848478D01*
X142697649Y-98852105D01*
X142748514Y-98857631D01*
X142755328Y-98858000D01*
X143377885Y-98858000D01*
X143393124Y-98853525D01*
X143394329Y-98852135D01*
X143396000Y-98844452D01*
X143396000Y-98839884D01*
X143904000Y-98839884D01*
X143908475Y-98855123D01*
X143909865Y-98856328D01*
X143917548Y-98857999D01*
X144544669Y-98857999D01*
X144551490Y-98857629D01*
X144602352Y-98852105D01*
X144617604Y-98848479D01*
X144738054Y-98803324D01*
X144753649Y-98794786D01*
X144855724Y-98718285D01*
X144868285Y-98705724D01*
X144944786Y-98603649D01*
X144953324Y-98588054D01*
X144994225Y-98478952D01*
X145036867Y-98422188D01*
X145103428Y-98397488D01*
X145172777Y-98412696D01*
X145207444Y-98440684D01*
X145232865Y-98470031D01*
X145232869Y-98470035D01*
X145236250Y-98473938D01*
X145408126Y-98616632D01*
X145601000Y-98729338D01*
X145809692Y-98809030D01*
X145814760Y-98810061D01*
X145814763Y-98810062D01*
X145922017Y-98831883D01*
X146028597Y-98853567D01*
X146033772Y-98853757D01*
X146033774Y-98853757D01*
X146246673Y-98861564D01*
X146246677Y-98861564D01*
X146251837Y-98861753D01*
X146256957Y-98861097D01*
X146256959Y-98861097D01*
X146468288Y-98834025D01*
X146468289Y-98834025D01*
X146473416Y-98833368D01*
X146509491Y-98822545D01*
X146682429Y-98770661D01*
X146682434Y-98770659D01*
X146687384Y-98769174D01*
X146887994Y-98670896D01*
X147069860Y-98541173D01*
X147228096Y-98383489D01*
X147235056Y-98373804D01*
X147358453Y-98202077D01*
X147359776Y-98203028D01*
X147406645Y-98159857D01*
X147476580Y-98147625D01*
X147542026Y-98175144D01*
X147569875Y-98206994D01*
X147629987Y-98305088D01*
X147776250Y-98473938D01*
X147948126Y-98616632D01*
X148141000Y-98729338D01*
X148349692Y-98809030D01*
X148354760Y-98810061D01*
X148354763Y-98810062D01*
X148462017Y-98831883D01*
X148568597Y-98853567D01*
X148573772Y-98853757D01*
X148573774Y-98853757D01*
X148786673Y-98861564D01*
X148786677Y-98861564D01*
X148791837Y-98861753D01*
X148796957Y-98861097D01*
X148796959Y-98861097D01*
X149008288Y-98834025D01*
X149008289Y-98834025D01*
X149013416Y-98833368D01*
X149049491Y-98822545D01*
X149222429Y-98770661D01*
X149222434Y-98770659D01*
X149227384Y-98769174D01*
X149427994Y-98670896D01*
X149609860Y-98541173D01*
X149768096Y-98383489D01*
X149775056Y-98373804D01*
X149898453Y-98202077D01*
X149899776Y-98203028D01*
X149946645Y-98159857D01*
X150016580Y-98147625D01*
X150082026Y-98175144D01*
X150109875Y-98206994D01*
X150169987Y-98305088D01*
X150316250Y-98473938D01*
X150488126Y-98616632D01*
X150681000Y-98729338D01*
X150889692Y-98809030D01*
X150894760Y-98810061D01*
X150894763Y-98810062D01*
X151002017Y-98831883D01*
X151108597Y-98853567D01*
X151113772Y-98853757D01*
X151113774Y-98853757D01*
X151326673Y-98861564D01*
X151326677Y-98861564D01*
X151331837Y-98861753D01*
X151336957Y-98861097D01*
X151336959Y-98861097D01*
X151548288Y-98834025D01*
X151548289Y-98834025D01*
X151553416Y-98833368D01*
X151589491Y-98822545D01*
X151762429Y-98770661D01*
X151762434Y-98770659D01*
X151767384Y-98769174D01*
X151967994Y-98670896D01*
X152149860Y-98541173D01*
X152308096Y-98383489D01*
X152315056Y-98373804D01*
X152438453Y-98202077D01*
X152439776Y-98203028D01*
X152486645Y-98159857D01*
X152556580Y-98147625D01*
X152622026Y-98175144D01*
X152649875Y-98206994D01*
X152709987Y-98305088D01*
X152856250Y-98473938D01*
X153028126Y-98616632D01*
X153221000Y-98729338D01*
X153429692Y-98809030D01*
X153434760Y-98810061D01*
X153434763Y-98810062D01*
X153542017Y-98831883D01*
X153648597Y-98853567D01*
X153653772Y-98853757D01*
X153653774Y-98853757D01*
X153866673Y-98861564D01*
X153866677Y-98861564D01*
X153871837Y-98861753D01*
X153876957Y-98861097D01*
X153876959Y-98861097D01*
X154088288Y-98834025D01*
X154088289Y-98834025D01*
X154093416Y-98833368D01*
X154129491Y-98822545D01*
X154302429Y-98770661D01*
X154302434Y-98770659D01*
X154307384Y-98769174D01*
X154507994Y-98670896D01*
X154689860Y-98541173D01*
X154848096Y-98383489D01*
X154855056Y-98373804D01*
X154978453Y-98202077D01*
X154979776Y-98203028D01*
X155026645Y-98159857D01*
X155096580Y-98147625D01*
X155162026Y-98175144D01*
X155189875Y-98206994D01*
X155249987Y-98305088D01*
X155396250Y-98473938D01*
X155568126Y-98616632D01*
X155761000Y-98729338D01*
X155969692Y-98809030D01*
X155974760Y-98810061D01*
X155974763Y-98810062D01*
X156082017Y-98831883D01*
X156188597Y-98853567D01*
X156193772Y-98853757D01*
X156193774Y-98853757D01*
X156406673Y-98861564D01*
X156406677Y-98861564D01*
X156411837Y-98861753D01*
X156416957Y-98861097D01*
X156416959Y-98861097D01*
X156628288Y-98834025D01*
X156628289Y-98834025D01*
X156633416Y-98833368D01*
X156669491Y-98822545D01*
X156842429Y-98770661D01*
X156842434Y-98770659D01*
X156847384Y-98769174D01*
X157047994Y-98670896D01*
X157229860Y-98541173D01*
X157388096Y-98383489D01*
X157518453Y-98202077D01*
X157539320Y-98159857D01*
X157615136Y-98006453D01*
X157615137Y-98006451D01*
X157617430Y-98001811D01*
X157682370Y-97788069D01*
X157711529Y-97566590D01*
X157713156Y-97500000D01*
X157694852Y-97277361D01*
X157640431Y-97060702D01*
X157551354Y-96855840D01*
X157430014Y-96668277D01*
X157279670Y-96503051D01*
X157275619Y-96499852D01*
X157275615Y-96499848D01*
X157108414Y-96367800D01*
X157108410Y-96367798D01*
X157104359Y-96364598D01*
X156908789Y-96256638D01*
X156903920Y-96254914D01*
X156903916Y-96254912D01*
X156703087Y-96183795D01*
X156703083Y-96183794D01*
X156698212Y-96182069D01*
X156693119Y-96181162D01*
X156693116Y-96181161D01*
X156483373Y-96143800D01*
X156483367Y-96143799D01*
X156478284Y-96142894D01*
X156404452Y-96141992D01*
X156260081Y-96140228D01*
X156260079Y-96140228D01*
X156254911Y-96140165D01*
X156034091Y-96173955D01*
X155821756Y-96243357D01*
X155623607Y-96346507D01*
X155619474Y-96349610D01*
X155619471Y-96349612D01*
X155536450Y-96411946D01*
X155444965Y-96480635D01*
X155441393Y-96484373D01*
X155342710Y-96587639D01*
X155290629Y-96642138D01*
X155183201Y-96799621D01*
X155128293Y-96844621D01*
X155057768Y-96852792D01*
X154994021Y-96821538D01*
X154973324Y-96797054D01*
X154892822Y-96672617D01*
X154892820Y-96672614D01*
X154890014Y-96668277D01*
X154739670Y-96503051D01*
X154735619Y-96499852D01*
X154735615Y-96499848D01*
X154568414Y-96367800D01*
X154568410Y-96367798D01*
X154564359Y-96364598D01*
X154368789Y-96256638D01*
X154363920Y-96254914D01*
X154363916Y-96254912D01*
X154163087Y-96183795D01*
X154163083Y-96183794D01*
X154158212Y-96182069D01*
X154153119Y-96181162D01*
X154153116Y-96181161D01*
X153943373Y-96143800D01*
X153943367Y-96143799D01*
X153938284Y-96142894D01*
X153864452Y-96141992D01*
X153720081Y-96140228D01*
X153720079Y-96140228D01*
X153714911Y-96140165D01*
X153494091Y-96173955D01*
X153281756Y-96243357D01*
X153083607Y-96346507D01*
X153079474Y-96349610D01*
X153079471Y-96349612D01*
X152996450Y-96411946D01*
X152904965Y-96480635D01*
X152901393Y-96484373D01*
X152802710Y-96587639D01*
X152750629Y-96642138D01*
X152643201Y-96799621D01*
X152588293Y-96844621D01*
X152517768Y-96852792D01*
X152454021Y-96821538D01*
X152433324Y-96797054D01*
X152352822Y-96672617D01*
X152352820Y-96672614D01*
X152350014Y-96668277D01*
X152199670Y-96503051D01*
X152195619Y-96499852D01*
X152195615Y-96499848D01*
X152028414Y-96367800D01*
X152028410Y-96367798D01*
X152024359Y-96364598D01*
X151828789Y-96256638D01*
X151823920Y-96254914D01*
X151823916Y-96254912D01*
X151623087Y-96183795D01*
X151623083Y-96183794D01*
X151618212Y-96182069D01*
X151613119Y-96181162D01*
X151613116Y-96181161D01*
X151403373Y-96143800D01*
X151403367Y-96143799D01*
X151398284Y-96142894D01*
X151324452Y-96141992D01*
X151180081Y-96140228D01*
X151180079Y-96140228D01*
X151174911Y-96140165D01*
X150954091Y-96173955D01*
X150741756Y-96243357D01*
X150543607Y-96346507D01*
X150539474Y-96349610D01*
X150539471Y-96349612D01*
X150456450Y-96411946D01*
X150364965Y-96480635D01*
X150361393Y-96484373D01*
X150262710Y-96587639D01*
X150210629Y-96642138D01*
X150103201Y-96799621D01*
X150048293Y-96844621D01*
X149977768Y-96852792D01*
X149914021Y-96821538D01*
X149893324Y-96797054D01*
X149812822Y-96672617D01*
X149812820Y-96672614D01*
X149810014Y-96668277D01*
X149659670Y-96503051D01*
X149655619Y-96499852D01*
X149655615Y-96499848D01*
X149488414Y-96367800D01*
X149488410Y-96367798D01*
X149484359Y-96364598D01*
X149288789Y-96256638D01*
X149283920Y-96254914D01*
X149283916Y-96254912D01*
X149083087Y-96183795D01*
X149083083Y-96183794D01*
X149078212Y-96182069D01*
X149073119Y-96181162D01*
X149073116Y-96181161D01*
X148863373Y-96143800D01*
X148863367Y-96143799D01*
X148858284Y-96142894D01*
X148784452Y-96141992D01*
X148640081Y-96140228D01*
X148640079Y-96140228D01*
X148634911Y-96140165D01*
X148414091Y-96173955D01*
X148201756Y-96243357D01*
X148003607Y-96346507D01*
X147999474Y-96349610D01*
X147999471Y-96349612D01*
X147916450Y-96411946D01*
X147824965Y-96480635D01*
X147821393Y-96484373D01*
X147722710Y-96587639D01*
X147670629Y-96642138D01*
X147563201Y-96799621D01*
X147508293Y-96844621D01*
X147437768Y-96852792D01*
X147374021Y-96821538D01*
X147353324Y-96797054D01*
X147272822Y-96672617D01*
X147272820Y-96672614D01*
X147270014Y-96668277D01*
X147119670Y-96503051D01*
X147115619Y-96499852D01*
X147115615Y-96499848D01*
X146948414Y-96367800D01*
X146948410Y-96367798D01*
X146944359Y-96364598D01*
X146748789Y-96256638D01*
X146743920Y-96254914D01*
X146743916Y-96254912D01*
X146543087Y-96183795D01*
X146543083Y-96183794D01*
X146538212Y-96182069D01*
X146533119Y-96181162D01*
X146533116Y-96181161D01*
X146323373Y-96143800D01*
X146323367Y-96143799D01*
X146318284Y-96142894D01*
X146244452Y-96141992D01*
X146100081Y-96140228D01*
X146100079Y-96140228D01*
X146094911Y-96140165D01*
X145874091Y-96173955D01*
X145661756Y-96243357D01*
X145463607Y-96346507D01*
X145459474Y-96349610D01*
X145459471Y-96349612D01*
X145376450Y-96411946D01*
X145284965Y-96480635D01*
X145281393Y-96484373D01*
X145203898Y-96565466D01*
X145142374Y-96600895D01*
X145071462Y-96597438D01*
X145013676Y-96556192D01*
X144994823Y-96522644D01*
X144953324Y-96411946D01*
X144944786Y-96396351D01*
X144868285Y-96294276D01*
X144855724Y-96281715D01*
X144753649Y-96205214D01*
X144738054Y-96196676D01*
X144617606Y-96151522D01*
X144602351Y-96147895D01*
X144551486Y-96142369D01*
X144544672Y-96142000D01*
X143922115Y-96142000D01*
X143906876Y-96146475D01*
X143905671Y-96147865D01*
X143904000Y-96155548D01*
X143904000Y-98839884D01*
X143396000Y-98839884D01*
X143396000Y-97772115D01*
X143391525Y-97756876D01*
X143390135Y-97755671D01*
X143382452Y-97754000D01*
X142310116Y-97754000D01*
X142294877Y-97758475D01*
X142293672Y-97759865D01*
X142292001Y-97767548D01*
X142292001Y-98394669D01*
X134000000Y-98394669D01*
X134000000Y-97227885D01*
X142292000Y-97227885D01*
X142296475Y-97243124D01*
X142297865Y-97244329D01*
X142305548Y-97246000D01*
X143377885Y-97246000D01*
X143393124Y-97241525D01*
X143394329Y-97240135D01*
X143396000Y-97232452D01*
X143396000Y-96160116D01*
X143391525Y-96144877D01*
X143390135Y-96143672D01*
X143382452Y-96142001D01*
X142755331Y-96142001D01*
X142748510Y-96142371D01*
X142697648Y-96147895D01*
X142682396Y-96151521D01*
X142561946Y-96196676D01*
X142546351Y-96205214D01*
X142444276Y-96281715D01*
X142431715Y-96294276D01*
X142355214Y-96396351D01*
X142346676Y-96411946D01*
X142301522Y-96532394D01*
X142297895Y-96547649D01*
X142292369Y-96598514D01*
X142292000Y-96605328D01*
X142292000Y-97227885D01*
X134000000Y-97227885D01*
X134000000Y-91000000D01*
X148105600Y-91000000D01*
X148125145Y-91185956D01*
X148182925Y-91363785D01*
X148186228Y-91369507D01*
X148186229Y-91369508D01*
X148210452Y-91411463D01*
X148276415Y-91525715D01*
X148280833Y-91530622D01*
X148280834Y-91530623D01*
X148371375Y-91631178D01*
X148401530Y-91664669D01*
X148552800Y-91774573D01*
X148558828Y-91777257D01*
X148558830Y-91777258D01*
X148682198Y-91832185D01*
X148723615Y-91850625D01*
X148815062Y-91870062D01*
X148900053Y-91888128D01*
X148900057Y-91888128D01*
X148906510Y-91889500D01*
X149093490Y-91889500D01*
X149099943Y-91888128D01*
X149099947Y-91888128D01*
X149184937Y-91870063D01*
X149276385Y-91850625D01*
X149317802Y-91832185D01*
X149441170Y-91777258D01*
X149441172Y-91777257D01*
X149447200Y-91774573D01*
X149598470Y-91664669D01*
X149628626Y-91631178D01*
X149719166Y-91530623D01*
X149719167Y-91530622D01*
X149723585Y-91525715D01*
X149789548Y-91411463D01*
X149813771Y-91369508D01*
X149813772Y-91369507D01*
X149817075Y-91363785D01*
X149874855Y-91185956D01*
X149875545Y-91179392D01*
X149876754Y-91173704D01*
X149910483Y-91111231D01*
X149972633Y-91076911D01*
X150043472Y-91081640D01*
X150100509Y-91123916D01*
X150123246Y-91173704D01*
X150124455Y-91179392D01*
X150125145Y-91185956D01*
X150182925Y-91363785D01*
X150186228Y-91369507D01*
X150186229Y-91369508D01*
X150210452Y-91411463D01*
X150276415Y-91525715D01*
X150280833Y-91530622D01*
X150280834Y-91530623D01*
X150371375Y-91631178D01*
X150401530Y-91664669D01*
X150552800Y-91774573D01*
X150558828Y-91777257D01*
X150558830Y-91777258D01*
X150682198Y-91832185D01*
X150723615Y-91850625D01*
X150815062Y-91870062D01*
X150900053Y-91888128D01*
X150900057Y-91888128D01*
X150906510Y-91889500D01*
X151093490Y-91889500D01*
X151099943Y-91888128D01*
X151099947Y-91888128D01*
X151184937Y-91870063D01*
X151276385Y-91850625D01*
X151317802Y-91832185D01*
X151441170Y-91777258D01*
X151441172Y-91777257D01*
X151447200Y-91774573D01*
X151598470Y-91664669D01*
X151628626Y-91631178D01*
X151719166Y-91530623D01*
X151719167Y-91530622D01*
X151723585Y-91525715D01*
X151789548Y-91411463D01*
X151813771Y-91369508D01*
X151813772Y-91369507D01*
X151817075Y-91363785D01*
X151874855Y-91185956D01*
X151894400Y-91000000D01*
X151874855Y-90814044D01*
X151867268Y-90790692D01*
X151832819Y-90684669D01*
X151817075Y-90636215D01*
X151723585Y-90474285D01*
X151688497Y-90435316D01*
X151602885Y-90340234D01*
X151602883Y-90340233D01*
X151598470Y-90335331D01*
X151447200Y-90225427D01*
X151441172Y-90222743D01*
X151441170Y-90222742D01*
X151282416Y-90152060D01*
X151282414Y-90152060D01*
X151276385Y-90149375D01*
X151184937Y-90129937D01*
X151099947Y-90111872D01*
X151099943Y-90111872D01*
X151093490Y-90110500D01*
X150906510Y-90110500D01*
X150900057Y-90111872D01*
X150900053Y-90111872D01*
X150815062Y-90129938D01*
X150723615Y-90149375D01*
X150717586Y-90152060D01*
X150717584Y-90152060D01*
X150558830Y-90222742D01*
X150558828Y-90222743D01*
X150552800Y-90225427D01*
X150401530Y-90335331D01*
X150397117Y-90340233D01*
X150397115Y-90340234D01*
X150311503Y-90435316D01*
X150276415Y-90474285D01*
X150182925Y-90636215D01*
X150167181Y-90684669D01*
X150132733Y-90790692D01*
X150125145Y-90814044D01*
X150124455Y-90820608D01*
X150123246Y-90826296D01*
X150089517Y-90888769D01*
X150027367Y-90923089D01*
X149956528Y-90918360D01*
X149899491Y-90876084D01*
X149876754Y-90826296D01*
X149875545Y-90820608D01*
X149874855Y-90814044D01*
X149867268Y-90790692D01*
X149832819Y-90684669D01*
X149817075Y-90636215D01*
X149723585Y-90474285D01*
X149688497Y-90435316D01*
X149602885Y-90340234D01*
X149602883Y-90340233D01*
X149598470Y-90335331D01*
X149447200Y-90225427D01*
X149441172Y-90222743D01*
X149441170Y-90222742D01*
X149282416Y-90152060D01*
X149282414Y-90152060D01*
X149276385Y-90149375D01*
X149184937Y-90129937D01*
X149099947Y-90111872D01*
X149099943Y-90111872D01*
X149093490Y-90110500D01*
X148906510Y-90110500D01*
X148900057Y-90111872D01*
X148900053Y-90111872D01*
X148815062Y-90129938D01*
X148723615Y-90149375D01*
X148717586Y-90152060D01*
X148717584Y-90152060D01*
X148558830Y-90222742D01*
X148558828Y-90222743D01*
X148552800Y-90225427D01*
X148401530Y-90335331D01*
X148397117Y-90340233D01*
X148397115Y-90340234D01*
X148311503Y-90435316D01*
X148276415Y-90474285D01*
X148182925Y-90636215D01*
X148167181Y-90684669D01*
X148132733Y-90790692D01*
X148125145Y-90814044D01*
X148105600Y-91000000D01*
X134000000Y-91000000D01*
X134000000Y-90020000D01*
X156065600Y-90020000D01*
X156085145Y-90205956D01*
X156087185Y-90212234D01*
X156087185Y-90212235D01*
X156118861Y-90309722D01*
X156142925Y-90383785D01*
X156236415Y-90545715D01*
X156240833Y-90550622D01*
X156240834Y-90550623D01*
X156317902Y-90636215D01*
X156361530Y-90684669D01*
X156366869Y-90688548D01*
X156486707Y-90775615D01*
X156512800Y-90794573D01*
X156518828Y-90797257D01*
X156518830Y-90797258D01*
X156677584Y-90867940D01*
X156683615Y-90870625D01*
X156768977Y-90888769D01*
X156860053Y-90908128D01*
X156860057Y-90908128D01*
X156866510Y-90909500D01*
X157053490Y-90909500D01*
X157059943Y-90908128D01*
X157059947Y-90908128D01*
X157151023Y-90888769D01*
X157236385Y-90870625D01*
X157242416Y-90867940D01*
X157401170Y-90797258D01*
X157401172Y-90797257D01*
X157407200Y-90794573D01*
X157433294Y-90775615D01*
X157553131Y-90688548D01*
X157558470Y-90684669D01*
X157602099Y-90636215D01*
X157679166Y-90550623D01*
X157679167Y-90550622D01*
X157683585Y-90545715D01*
X157777075Y-90383785D01*
X157801139Y-90309722D01*
X157832815Y-90212235D01*
X157832815Y-90212234D01*
X157834855Y-90205956D01*
X157854400Y-90020000D01*
X157845363Y-89934022D01*
X157835545Y-89840608D01*
X157835545Y-89840607D01*
X157834855Y-89834044D01*
X157777075Y-89656215D01*
X157760195Y-89626977D01*
X157686888Y-89500006D01*
X157683585Y-89494285D01*
X157679166Y-89489377D01*
X157562885Y-89360234D01*
X157562883Y-89360233D01*
X157558470Y-89355331D01*
X157407200Y-89245427D01*
X157401172Y-89242743D01*
X157401170Y-89242742D01*
X157242416Y-89172060D01*
X157242414Y-89172060D01*
X157236385Y-89169375D01*
X157144938Y-89149938D01*
X157059947Y-89131872D01*
X157059943Y-89131872D01*
X157053490Y-89130500D01*
X156866510Y-89130500D01*
X156860057Y-89131872D01*
X156860053Y-89131872D01*
X156775063Y-89149937D01*
X156683615Y-89169375D01*
X156677586Y-89172060D01*
X156677584Y-89172060D01*
X156518830Y-89242742D01*
X156518828Y-89242743D01*
X156512800Y-89245427D01*
X156361530Y-89355331D01*
X156357117Y-89360233D01*
X156357115Y-89360234D01*
X156240834Y-89489377D01*
X156236415Y-89494285D01*
X156233112Y-89500006D01*
X156159806Y-89626977D01*
X156142925Y-89656215D01*
X156085145Y-89834044D01*
X156084455Y-89840607D01*
X156084455Y-89840608D01*
X156074637Y-89934022D01*
X156065600Y-90020000D01*
X134000000Y-90020000D01*
X134000000Y-89000000D01*
X147105600Y-89000000D01*
X147125145Y-89185956D01*
X147182925Y-89363785D01*
X147186228Y-89369507D01*
X147186229Y-89369508D01*
X147255435Y-89489377D01*
X147276415Y-89525715D01*
X147280833Y-89530622D01*
X147280834Y-89530623D01*
X147339894Y-89596215D01*
X147401530Y-89664669D01*
X147406869Y-89668548D01*
X147520388Y-89751024D01*
X147552800Y-89774573D01*
X147558828Y-89777257D01*
X147558830Y-89777258D01*
X147717584Y-89847940D01*
X147723615Y-89850625D01*
X147815063Y-89870063D01*
X147900053Y-89888128D01*
X147900057Y-89888128D01*
X147906510Y-89889500D01*
X148093490Y-89889500D01*
X148099943Y-89888128D01*
X148099947Y-89888128D01*
X148184938Y-89870062D01*
X148276385Y-89850625D01*
X148282416Y-89847940D01*
X148441170Y-89777258D01*
X148441172Y-89777257D01*
X148447200Y-89774573D01*
X148479613Y-89751024D01*
X148593131Y-89668548D01*
X148598470Y-89664669D01*
X148660107Y-89596215D01*
X148719166Y-89530623D01*
X148719167Y-89530622D01*
X148723585Y-89525715D01*
X148744565Y-89489377D01*
X148813771Y-89369508D01*
X148813772Y-89369507D01*
X148817075Y-89363785D01*
X148874855Y-89185956D01*
X148894400Y-89000000D01*
X148893710Y-88993435D01*
X148875545Y-88820608D01*
X148875545Y-88820607D01*
X148874855Y-88814044D01*
X148817075Y-88636215D01*
X148723585Y-88474285D01*
X148682393Y-88428537D01*
X148602885Y-88340234D01*
X148602883Y-88340233D01*
X148598470Y-88335331D01*
X148447200Y-88225427D01*
X148441172Y-88222743D01*
X148441170Y-88222742D01*
X148282416Y-88152060D01*
X148282414Y-88152060D01*
X148276385Y-88149375D01*
X148184938Y-88129938D01*
X148099947Y-88111872D01*
X148099943Y-88111872D01*
X148093490Y-88110500D01*
X147906510Y-88110500D01*
X147900057Y-88111872D01*
X147900053Y-88111872D01*
X147815062Y-88129938D01*
X147723615Y-88149375D01*
X147717586Y-88152060D01*
X147717584Y-88152060D01*
X147558830Y-88222742D01*
X147558828Y-88222743D01*
X147552800Y-88225427D01*
X147401530Y-88335331D01*
X147397117Y-88340233D01*
X147397115Y-88340234D01*
X147317607Y-88428537D01*
X147276415Y-88474285D01*
X147182925Y-88636215D01*
X147125145Y-88814044D01*
X147124455Y-88820607D01*
X147124455Y-88820608D01*
X147106290Y-88993435D01*
X147105600Y-89000000D01*
X134000000Y-89000000D01*
X134000000Y-84000000D01*
X119653191Y-84000000D01*
X119585070Y-83979998D01*
X119538577Y-83926342D01*
X119528473Y-83856068D01*
X119540971Y-83816706D01*
X119544866Y-83809077D01*
X119546831Y-83805381D01*
X120079734Y-82842018D01*
X147044353Y-82842018D01*
X147060685Y-83008583D01*
X147062909Y-83015268D01*
X147062909Y-83015269D01*
X147073059Y-83045781D01*
X147113513Y-83167391D01*
X147200212Y-83310548D01*
X147316473Y-83430940D01*
X147456517Y-83522582D01*
X147613384Y-83580920D01*
X147677896Y-83589528D01*
X147708084Y-83593556D01*
X147772961Y-83622392D01*
X147811949Y-83681725D01*
X147816818Y-83706152D01*
X147823185Y-83771083D01*
X147825409Y-83777768D01*
X147825409Y-83777769D01*
X147834594Y-83805381D01*
X147876013Y-83929891D01*
X147879660Y-83935913D01*
X147879661Y-83935915D01*
X147932416Y-84023023D01*
X147962712Y-84073048D01*
X148078973Y-84193440D01*
X148219017Y-84285082D01*
X148375884Y-84343420D01*
X148382865Y-84344351D01*
X148382867Y-84344352D01*
X148534797Y-84364624D01*
X148534801Y-84364624D01*
X148541778Y-84365555D01*
X148548790Y-84364917D01*
X148548793Y-84364917D01*
X148701435Y-84351026D01*
X148701438Y-84351025D01*
X148708453Y-84350387D01*
X148737451Y-84340965D01*
X148860930Y-84300844D01*
X148860932Y-84300843D01*
X148867626Y-84298668D01*
X148939085Y-84256070D01*
X149005333Y-84216579D01*
X149005335Y-84216578D01*
X149011385Y-84212971D01*
X149132585Y-84097554D01*
X149216258Y-83971616D01*
X149270616Y-83925946D01*
X149341036Y-83916914D01*
X149405160Y-83947388D01*
X149428981Y-83976072D01*
X149487712Y-84073048D01*
X149603973Y-84193440D01*
X149744017Y-84285082D01*
X149900884Y-84343420D01*
X149907865Y-84344351D01*
X149907867Y-84344352D01*
X150059797Y-84364624D01*
X150059801Y-84364624D01*
X150066778Y-84365555D01*
X150073790Y-84364917D01*
X150073793Y-84364917D01*
X150226435Y-84351026D01*
X150226438Y-84351025D01*
X150233453Y-84350387D01*
X150262451Y-84340965D01*
X150385930Y-84300844D01*
X150385932Y-84300843D01*
X150392626Y-84298668D01*
X150464085Y-84256070D01*
X150530333Y-84216579D01*
X150530335Y-84216578D01*
X150536385Y-84212971D01*
X150657585Y-84097554D01*
X150661486Y-84091683D01*
X150746302Y-83964025D01*
X150746303Y-83964023D01*
X150750203Y-83958153D01*
X150788981Y-83856068D01*
X150807134Y-83808281D01*
X150807135Y-83808278D01*
X150809635Y-83801696D01*
X150823760Y-83701188D01*
X150853048Y-83636514D01*
X150912652Y-83597940D01*
X150937114Y-83593242D01*
X150988934Y-83588526D01*
X150988936Y-83588526D01*
X150995953Y-83587887D01*
X151002651Y-83585711D01*
X151002654Y-83585710D01*
X151148430Y-83538344D01*
X151148432Y-83538343D01*
X151155126Y-83536168D01*
X151192487Y-83513896D01*
X151292833Y-83454079D01*
X151292835Y-83454078D01*
X151298885Y-83450471D01*
X151420085Y-83335054D01*
X151425143Y-83327441D01*
X151508802Y-83201525D01*
X151508803Y-83201523D01*
X151512703Y-83195653D01*
X151572135Y-83039196D01*
X151595427Y-82873461D01*
X151595720Y-82852500D01*
X151577064Y-82686179D01*
X151522024Y-82528125D01*
X151516137Y-82518703D01*
X151437067Y-82392166D01*
X151433334Y-82386192D01*
X151315404Y-82267435D01*
X151299329Y-82257233D01*
X151202476Y-82195769D01*
X151155677Y-82142380D01*
X151145172Y-82072165D01*
X151174296Y-82007417D01*
X151205472Y-81981156D01*
X151252684Y-81953012D01*
X151292833Y-81929079D01*
X151292835Y-81929078D01*
X151298885Y-81925471D01*
X151420085Y-81810054D01*
X151423986Y-81804183D01*
X151508802Y-81676525D01*
X151508803Y-81676523D01*
X151512703Y-81670653D01*
X151551127Y-81569500D01*
X151569634Y-81520781D01*
X151569635Y-81520778D01*
X151572135Y-81514196D01*
X151595427Y-81348461D01*
X151595720Y-81327500D01*
X151577064Y-81161179D01*
X151522024Y-81003125D01*
X151516137Y-80993703D01*
X151437067Y-80867166D01*
X151433334Y-80861192D01*
X151315404Y-80742435D01*
X151301951Y-80733897D01*
X151261003Y-80707911D01*
X151174094Y-80652757D01*
X151147693Y-80643356D01*
X151023063Y-80598977D01*
X151023058Y-80598976D01*
X151016428Y-80596615D01*
X151009440Y-80595782D01*
X151009437Y-80595781D01*
X150971691Y-80591280D01*
X150933494Y-80586725D01*
X150868221Y-80558799D01*
X150828408Y-80500016D01*
X150823198Y-80475656D01*
X150815349Y-80405678D01*
X150814564Y-80398679D01*
X150759524Y-80240625D01*
X150753637Y-80231203D01*
X150674567Y-80104666D01*
X150670834Y-80098692D01*
X150552904Y-79979935D01*
X150411594Y-79890257D01*
X150350982Y-79868674D01*
X150260563Y-79836477D01*
X150260558Y-79836476D01*
X150253928Y-79834115D01*
X150246940Y-79833282D01*
X150246937Y-79833281D01*
X150132650Y-79819653D01*
X150087741Y-79814298D01*
X150080739Y-79815034D01*
X150080737Y-79815034D01*
X149928294Y-79831057D01*
X149928292Y-79831057D01*
X149921294Y-79831793D01*
X149838187Y-79860085D01*
X149769529Y-79883457D01*
X149769526Y-79883458D01*
X149762859Y-79885728D01*
X149620311Y-79973425D01*
X149500734Y-80090523D01*
X149496918Y-80096444D01*
X149496915Y-80096448D01*
X149425507Y-80207251D01*
X149371793Y-80253676D01*
X149301506Y-80263691D01*
X149236963Y-80234115D01*
X149212742Y-80205766D01*
X149186905Y-80164420D01*
X149145834Y-80098692D01*
X149027904Y-79979935D01*
X148886594Y-79890257D01*
X148825982Y-79868674D01*
X148735563Y-79836477D01*
X148735558Y-79836476D01*
X148728928Y-79834115D01*
X148721940Y-79833282D01*
X148721937Y-79833281D01*
X148607650Y-79819653D01*
X148562741Y-79814298D01*
X148555739Y-79815034D01*
X148555737Y-79815034D01*
X148403294Y-79831057D01*
X148403292Y-79831057D01*
X148396294Y-79831793D01*
X148313187Y-79860085D01*
X148244529Y-79883457D01*
X148244526Y-79883458D01*
X148237859Y-79885728D01*
X148095311Y-79973425D01*
X147975734Y-80090523D01*
X147971919Y-80096443D01*
X147971918Y-80096444D01*
X147971916Y-80096448D01*
X147885071Y-80231203D01*
X147827829Y-80388474D01*
X147816816Y-80475656D01*
X147816606Y-80477315D01*
X147788225Y-80542391D01*
X147729165Y-80581793D01*
X147704774Y-80586832D01*
X147669873Y-80590501D01*
X147640794Y-80593557D01*
X147640792Y-80593557D01*
X147633794Y-80594293D01*
X147579133Y-80612901D01*
X147482029Y-80645957D01*
X147482026Y-80645958D01*
X147475359Y-80648228D01*
X147332811Y-80735925D01*
X147213234Y-80853023D01*
X147209419Y-80858943D01*
X147209418Y-80858944D01*
X147169090Y-80921521D01*
X147122571Y-80993703D01*
X147065329Y-81150974D01*
X147044353Y-81317018D01*
X147060685Y-81483583D01*
X147062909Y-81490268D01*
X147062909Y-81490269D01*
X147073059Y-81520781D01*
X147113513Y-81642391D01*
X147117160Y-81648413D01*
X147117161Y-81648415D01*
X147140867Y-81687557D01*
X147200212Y-81785548D01*
X147316473Y-81905940D01*
X147322365Y-81909795D01*
X147322369Y-81909799D01*
X147437862Y-81985375D01*
X147483911Y-82039412D01*
X147493434Y-82109767D01*
X147463409Y-82174102D01*
X147434891Y-82198124D01*
X147338811Y-82257233D01*
X147338807Y-82257236D01*
X147332811Y-82260925D01*
X147213234Y-82378023D01*
X147209419Y-82383943D01*
X147209418Y-82383944D01*
X147156851Y-82465512D01*
X147122571Y-82518703D01*
X147065329Y-82675974D01*
X147044353Y-82842018D01*
X120079734Y-82842018D01*
X120098421Y-82808236D01*
X120100492Y-82804633D01*
X120132994Y-82750219D01*
X120684875Y-81826264D01*
X120687043Y-81822768D01*
X121303529Y-80864332D01*
X121305839Y-80860868D01*
X121380150Y-80753350D01*
X121915785Y-79978351D01*
X121953747Y-79923425D01*
X121956179Y-79920028D01*
X122634813Y-79004578D01*
X122637357Y-79001263D01*
X123345968Y-78108820D01*
X123348620Y-78105592D01*
X123544149Y-77875440D01*
X123898344Y-77458525D01*
X124086425Y-77237139D01*
X124089160Y-77234025D01*
X124788945Y-76463623D01*
X124849549Y-76426649D01*
X124920527Y-76428311D01*
X124979338Y-76468081D01*
X125007312Y-76533335D01*
X124996730Y-76599575D01*
X124997077Y-76599714D01*
X124995810Y-76602866D01*
X124995809Y-76602868D01*
X124979952Y-76642313D01*
X124863411Y-76932218D01*
X124862491Y-76935492D01*
X124862489Y-76935497D01*
X124768279Y-77270661D01*
X124766437Y-77277213D01*
X124765875Y-77280570D01*
X124765875Y-77280571D01*
X124752322Y-77361564D01*
X124707290Y-77630663D01*
X124686661Y-77988434D01*
X124704792Y-78346340D01*
X124705329Y-78349695D01*
X124705330Y-78349701D01*
X124710308Y-78380777D01*
X124761470Y-78700195D01*
X124856033Y-79045859D01*
X124987374Y-79379288D01*
X125018151Y-79437909D01*
X125144949Y-79679424D01*
X125153957Y-79696582D01*
X125155858Y-79699411D01*
X125155864Y-79699421D01*
X125283540Y-79889421D01*
X125353834Y-79994029D01*
X125584665Y-80268150D01*
X125843751Y-80515738D01*
X126128061Y-80733897D01*
X126160056Y-80753350D01*
X126431355Y-80918303D01*
X126431360Y-80918306D01*
X126434270Y-80920075D01*
X126437358Y-80921521D01*
X126437357Y-80921521D01*
X126755710Y-81070649D01*
X126755720Y-81070653D01*
X126758794Y-81072093D01*
X126762012Y-81073195D01*
X126762015Y-81073196D01*
X127094615Y-81187071D01*
X127094623Y-81187073D01*
X127097838Y-81188174D01*
X127447435Y-81266959D01*
X127499728Y-81272917D01*
X127800114Y-81307142D01*
X127800122Y-81307142D01*
X127803497Y-81307527D01*
X127806901Y-81307545D01*
X127806904Y-81307545D01*
X128001227Y-81308562D01*
X128161857Y-81309403D01*
X128165243Y-81309053D01*
X128165245Y-81309053D01*
X128514932Y-81272917D01*
X128514941Y-81272916D01*
X128518324Y-81272566D01*
X128521657Y-81271852D01*
X128521660Y-81271851D01*
X128694186Y-81234864D01*
X128868727Y-81197446D01*
X129208968Y-81084922D01*
X129535066Y-80936311D01*
X129683640Y-80848094D01*
X129840262Y-80755099D01*
X129840267Y-80755096D01*
X129843207Y-80753350D01*
X129857745Y-80742435D01*
X130051958Y-80596615D01*
X130129786Y-80538180D01*
X130391451Y-80293319D01*
X130625140Y-80021630D01*
X130752392Y-79836477D01*
X130826190Y-79729101D01*
X130826195Y-79729094D01*
X130828120Y-79726292D01*
X130829732Y-79723298D01*
X130829737Y-79723290D01*
X130996395Y-79413772D01*
X130998017Y-79410760D01*
X131132842Y-79078724D01*
X131143142Y-79042568D01*
X131222693Y-78763301D01*
X131231020Y-78734070D01*
X131291401Y-78380828D01*
X131293511Y-78346340D01*
X131313168Y-78024928D01*
X131313278Y-78023131D01*
X131313359Y-78000000D01*
X131293979Y-77642159D01*
X131236066Y-77288505D01*
X131140297Y-76943173D01*
X131137243Y-76935497D01*
X131009052Y-76613369D01*
X131007793Y-76610205D01*
X130967092Y-76533335D01*
X130841702Y-76296513D01*
X130841698Y-76296506D01*
X130840103Y-76293494D01*
X130641393Y-76000000D01*
X160105600Y-76000000D01*
X160125145Y-76185956D01*
X160182925Y-76363785D01*
X160276415Y-76525715D01*
X160280833Y-76530622D01*
X160280834Y-76530623D01*
X160396752Y-76659362D01*
X160401530Y-76664669D01*
X160406869Y-76668548D01*
X160458799Y-76706277D01*
X160552800Y-76774573D01*
X160558828Y-76777257D01*
X160558830Y-76777258D01*
X160717584Y-76847940D01*
X160723615Y-76850625D01*
X160815062Y-76870062D01*
X160900053Y-76888128D01*
X160900057Y-76888128D01*
X160906510Y-76889500D01*
X161093490Y-76889500D01*
X161099943Y-76888128D01*
X161099947Y-76888128D01*
X161184938Y-76870062D01*
X161276385Y-76850625D01*
X161282416Y-76847940D01*
X161441170Y-76777258D01*
X161441172Y-76777257D01*
X161447200Y-76774573D01*
X161541202Y-76706277D01*
X161593131Y-76668548D01*
X161598470Y-76664669D01*
X161603249Y-76659362D01*
X161621863Y-76638688D01*
X161682309Y-76601448D01*
X161753293Y-76602799D01*
X161812278Y-76642313D01*
X161840536Y-76707443D01*
X161841500Y-76722998D01*
X161841500Y-76898134D01*
X161848255Y-76960316D01*
X161899385Y-77096705D01*
X161986739Y-77213261D01*
X162103295Y-77300615D01*
X162239684Y-77351745D01*
X162301866Y-77358500D01*
X164098134Y-77358500D01*
X164160316Y-77351745D01*
X164296705Y-77300615D01*
X164413261Y-77213261D01*
X164500615Y-77096705D01*
X164522799Y-77037529D01*
X164544598Y-76979382D01*
X164587240Y-76922618D01*
X164653802Y-76897918D01*
X164723150Y-76913126D01*
X164757817Y-76941114D01*
X164786250Y-76973938D01*
X164958126Y-77116632D01*
X165151000Y-77229338D01*
X165155825Y-77231180D01*
X165155826Y-77231181D01*
X165228612Y-77258975D01*
X165359692Y-77309030D01*
X165364760Y-77310061D01*
X165364763Y-77310062D01*
X165459862Y-77329410D01*
X165578597Y-77353567D01*
X165583772Y-77353757D01*
X165583774Y-77353757D01*
X165796673Y-77361564D01*
X165796677Y-77361564D01*
X165801837Y-77361753D01*
X165806957Y-77361097D01*
X165806959Y-77361097D01*
X166018288Y-77334025D01*
X166018289Y-77334025D01*
X166023416Y-77333368D01*
X166028366Y-77331883D01*
X166232429Y-77270661D01*
X166232434Y-77270659D01*
X166237384Y-77269174D01*
X166437994Y-77170896D01*
X166619860Y-77041173D01*
X166649241Y-77011895D01*
X166708884Y-76952460D01*
X166778096Y-76883489D01*
X166803641Y-76847940D01*
X166908453Y-76702077D01*
X166909640Y-76702930D01*
X166956960Y-76659362D01*
X167026897Y-76647145D01*
X167092338Y-76674678D01*
X167120166Y-76706511D01*
X167177694Y-76800388D01*
X167183777Y-76808699D01*
X167323213Y-76969667D01*
X167330580Y-76976883D01*
X167494434Y-77112916D01*
X167502881Y-77118831D01*
X167686756Y-77226279D01*
X167696042Y-77230729D01*
X167895001Y-77306703D01*
X167904899Y-77309579D01*
X168008250Y-77330606D01*
X168022299Y-77329410D01*
X168026000Y-77319065D01*
X168026000Y-77318517D01*
X168534000Y-77318517D01*
X168538064Y-77332359D01*
X168551478Y-77334393D01*
X168558184Y-77333534D01*
X168568262Y-77331392D01*
X168772255Y-77270191D01*
X168781842Y-77266433D01*
X168973095Y-77172739D01*
X168981945Y-77167464D01*
X169155328Y-77043792D01*
X169163200Y-77037139D01*
X169314052Y-76886812D01*
X169320730Y-76878965D01*
X169448022Y-76701819D01*
X169449279Y-76702722D01*
X169496373Y-76659362D01*
X169566311Y-76647145D01*
X169631751Y-76674678D01*
X169659579Y-76706511D01*
X169719987Y-76805088D01*
X169866250Y-76973938D01*
X170038126Y-77116632D01*
X170231000Y-77229338D01*
X170235825Y-77231180D01*
X170235826Y-77231181D01*
X170308612Y-77258975D01*
X170439692Y-77309030D01*
X170444760Y-77310061D01*
X170444763Y-77310062D01*
X170539862Y-77329410D01*
X170658597Y-77353567D01*
X170663772Y-77353757D01*
X170663774Y-77353757D01*
X170876673Y-77361564D01*
X170876677Y-77361564D01*
X170881837Y-77361753D01*
X170886957Y-77361097D01*
X170886959Y-77361097D01*
X171098288Y-77334025D01*
X171098289Y-77334025D01*
X171103416Y-77333368D01*
X171108366Y-77331883D01*
X171312429Y-77270661D01*
X171312434Y-77270659D01*
X171317384Y-77269174D01*
X171517994Y-77170896D01*
X171699860Y-77041173D01*
X171729241Y-77011895D01*
X171788884Y-76952460D01*
X171858096Y-76883489D01*
X171883641Y-76847940D01*
X171985435Y-76706277D01*
X171988453Y-76702077D01*
X172001995Y-76674678D01*
X172085136Y-76506453D01*
X172085137Y-76506451D01*
X172087430Y-76501811D01*
X172152370Y-76288069D01*
X172181529Y-76066590D01*
X172183156Y-76000000D01*
X172164852Y-75777361D01*
X172110431Y-75560702D01*
X172021354Y-75355840D01*
X171900014Y-75168277D01*
X171749670Y-75003051D01*
X171745619Y-74999852D01*
X171745615Y-74999848D01*
X171578414Y-74867800D01*
X171578410Y-74867798D01*
X171574359Y-74864598D01*
X171538028Y-74844542D01*
X171469458Y-74806690D01*
X171378789Y-74756638D01*
X171373920Y-74754914D01*
X171373916Y-74754912D01*
X171173087Y-74683795D01*
X171173083Y-74683794D01*
X171168212Y-74682069D01*
X171163119Y-74681162D01*
X171163116Y-74681161D01*
X170953373Y-74643800D01*
X170953367Y-74643799D01*
X170948284Y-74642894D01*
X170874452Y-74641992D01*
X170730081Y-74640228D01*
X170730079Y-74640228D01*
X170724911Y-74640165D01*
X170504091Y-74673955D01*
X170291756Y-74743357D01*
X170234586Y-74773118D01*
X170164142Y-74809789D01*
X170093607Y-74846507D01*
X170089474Y-74849610D01*
X170089471Y-74849612D01*
X169989024Y-74925030D01*
X169914965Y-74980635D01*
X169911393Y-74984373D01*
X169803729Y-75097037D01*
X169760629Y-75142138D01*
X169679106Y-75261647D01*
X169652898Y-75300066D01*
X169597987Y-75345069D01*
X169527462Y-75353240D01*
X169463715Y-75321986D01*
X169443018Y-75297502D01*
X169362426Y-75172926D01*
X169356136Y-75164757D01*
X169212806Y-75007240D01*
X169205273Y-75000215D01*
X169038139Y-74868222D01*
X169029552Y-74862517D01*
X168843117Y-74759599D01*
X168833705Y-74755369D01*
X168632959Y-74684280D01*
X168622988Y-74681646D01*
X168551837Y-74668972D01*
X168538540Y-74670432D01*
X168534000Y-74684989D01*
X168534000Y-77318517D01*
X168026000Y-77318517D01*
X168026000Y-74683102D01*
X168022082Y-74669758D01*
X168007806Y-74667771D01*
X167969324Y-74673660D01*
X167959288Y-74676051D01*
X167756868Y-74742212D01*
X167747359Y-74746209D01*
X167558463Y-74844542D01*
X167549738Y-74850036D01*
X167379433Y-74977905D01*
X167371726Y-74984748D01*
X167224590Y-75138717D01*
X167218109Y-75146722D01*
X167113498Y-75300074D01*
X167058587Y-75345076D01*
X166988062Y-75353247D01*
X166924315Y-75321993D01*
X166903618Y-75297509D01*
X166822822Y-75172617D01*
X166822820Y-75172614D01*
X166820014Y-75168277D01*
X166669670Y-75003051D01*
X166665619Y-74999852D01*
X166665615Y-74999848D01*
X166498414Y-74867800D01*
X166498410Y-74867798D01*
X166494359Y-74864598D01*
X166458028Y-74844542D01*
X166389458Y-74806690D01*
X166298789Y-74756638D01*
X166293920Y-74754914D01*
X166293916Y-74754912D01*
X166093087Y-74683795D01*
X166093083Y-74683794D01*
X166088212Y-74682069D01*
X166083119Y-74681162D01*
X166083116Y-74681161D01*
X165873373Y-74643800D01*
X165873367Y-74643799D01*
X165868284Y-74642894D01*
X165794452Y-74641992D01*
X165650081Y-74640228D01*
X165650079Y-74640228D01*
X165644911Y-74640165D01*
X165424091Y-74673955D01*
X165211756Y-74743357D01*
X165154586Y-74773118D01*
X165084142Y-74809789D01*
X165013607Y-74846507D01*
X165009474Y-74849610D01*
X165009471Y-74849612D01*
X164909024Y-74925030D01*
X164834965Y-74980635D01*
X164778537Y-75039684D01*
X164754283Y-75065064D01*
X164692759Y-75100494D01*
X164621846Y-75097037D01*
X164564060Y-75055791D01*
X164545207Y-75022243D01*
X164503767Y-74911703D01*
X164500615Y-74903295D01*
X164413261Y-74786739D01*
X164296705Y-74699385D01*
X164160316Y-74648255D01*
X164098134Y-74641500D01*
X162301866Y-74641500D01*
X162239684Y-74648255D01*
X162103295Y-74699385D01*
X161986739Y-74786739D01*
X161899385Y-74903295D01*
X161848255Y-75039684D01*
X161841500Y-75101866D01*
X161841500Y-75277002D01*
X161821498Y-75345123D01*
X161767842Y-75391616D01*
X161697568Y-75401720D01*
X161632988Y-75372226D01*
X161621863Y-75361312D01*
X161616475Y-75355327D01*
X161607287Y-75345123D01*
X161602884Y-75340233D01*
X161602883Y-75340232D01*
X161598470Y-75335331D01*
X161549932Y-75300066D01*
X161452542Y-75229308D01*
X161452541Y-75229307D01*
X161447200Y-75225427D01*
X161441172Y-75222743D01*
X161441170Y-75222742D01*
X161282416Y-75152060D01*
X161282414Y-75152060D01*
X161276385Y-75149375D01*
X161184937Y-75129937D01*
X161099947Y-75111872D01*
X161099943Y-75111872D01*
X161093490Y-75110500D01*
X160906510Y-75110500D01*
X160900057Y-75111872D01*
X160900053Y-75111872D01*
X160815063Y-75129937D01*
X160723615Y-75149375D01*
X160717586Y-75152060D01*
X160717584Y-75152060D01*
X160558830Y-75222742D01*
X160558828Y-75222743D01*
X160552800Y-75225427D01*
X160547459Y-75229307D01*
X160547458Y-75229308D01*
X160450068Y-75300066D01*
X160401530Y-75335331D01*
X160397117Y-75340233D01*
X160397115Y-75340234D01*
X160280834Y-75469377D01*
X160276415Y-75474285D01*
X160273112Y-75480006D01*
X160229264Y-75555954D01*
X160182925Y-75636215D01*
X160125145Y-75814044D01*
X160105600Y-76000000D01*
X130641393Y-76000000D01*
X130639190Y-75996746D01*
X130407403Y-75723432D01*
X130147454Y-75476750D01*
X129943229Y-75321172D01*
X129865091Y-75261647D01*
X129865089Y-75261646D01*
X129862384Y-75259585D01*
X129859472Y-75257828D01*
X129859467Y-75257825D01*
X129558443Y-75076236D01*
X129558437Y-75076233D01*
X129555528Y-75074478D01*
X129230475Y-74923593D01*
X129037391Y-74858238D01*
X128894255Y-74809789D01*
X128894250Y-74809788D01*
X128891028Y-74808697D01*
X128669563Y-74759599D01*
X128544493Y-74731871D01*
X128544487Y-74731870D01*
X128541158Y-74731132D01*
X128537769Y-74730758D01*
X128537764Y-74730757D01*
X128188338Y-74692180D01*
X128188333Y-74692180D01*
X128184957Y-74691807D01*
X128181558Y-74691801D01*
X128181557Y-74691801D01*
X128012080Y-74691505D01*
X127826592Y-74691182D01*
X127713413Y-74703277D01*
X127473639Y-74728901D01*
X127473631Y-74728902D01*
X127470256Y-74729263D01*
X127120117Y-74805606D01*
X126780271Y-74919317D01*
X126587716Y-75007882D01*
X126517472Y-75018175D01*
X126452812Y-74988857D01*
X126414267Y-74929235D01*
X126414075Y-74858238D01*
X126447619Y-74802697D01*
X126475346Y-74775968D01*
X126478402Y-74773118D01*
X127299568Y-74032437D01*
X127363548Y-74001664D01*
X127383960Y-74000000D01*
X172610959Y-74000000D01*
X172679080Y-74020002D01*
G37*
G04 #@! TD.AperFunction*
G04 #@! TD*
G04 #@! TA.AperFunction,Conductor*
G04 #@! TO.N,+5V*
G36*
X178781107Y-81020002D02*
G01*
X178818358Y-81056915D01*
X179153201Y-81567635D01*
X179155434Y-81571167D01*
X179748301Y-82544349D01*
X179750415Y-82547952D01*
X180310689Y-83540253D01*
X180312683Y-83543925D01*
X180839765Y-84554285D01*
X180841635Y-84558021D01*
X181334905Y-85585254D01*
X181336651Y-85589050D01*
X181795604Y-86632099D01*
X181797223Y-86635951D01*
X182221330Y-87693616D01*
X182222821Y-87697519D01*
X182611642Y-88768705D01*
X182613002Y-88772655D01*
X182966085Y-89856113D01*
X182967312Y-89860100D01*
X183271198Y-90909500D01*
X183284289Y-90954708D01*
X183285378Y-90958717D01*
X183504799Y-91822689D01*
X183565886Y-92063219D01*
X183566847Y-92067285D01*
X183810574Y-93180453D01*
X183811400Y-93184548D01*
X184018089Y-94305195D01*
X184018779Y-94309316D01*
X184188203Y-95436232D01*
X184188755Y-95440374D01*
X184244626Y-95919588D01*
X184282374Y-96243357D01*
X184320717Y-96572236D01*
X184321131Y-96576383D01*
X184407148Y-97611560D01*
X184415496Y-97712029D01*
X184415772Y-97716183D01*
X184430625Y-98014530D01*
X184472432Y-98854327D01*
X184472571Y-98858503D01*
X184482341Y-99447676D01*
X184491321Y-99989174D01*
X184491475Y-99998478D01*
X184491488Y-100001538D01*
X184489610Y-100240635D01*
X184487257Y-100540238D01*
X184487195Y-100543316D01*
X184485933Y-100582401D01*
X184451043Y-101662596D01*
X184450390Y-101682811D01*
X184450187Y-101686956D01*
X184413861Y-102241187D01*
X184375655Y-102824087D01*
X184375313Y-102828251D01*
X184263123Y-103962271D01*
X184262643Y-103966421D01*
X184112914Y-105096106D01*
X184112296Y-105100239D01*
X184018534Y-105663560D01*
X183927825Y-106208537D01*
X183925199Y-106224311D01*
X183924448Y-106228403D01*
X183813018Y-106783533D01*
X183700178Y-107345689D01*
X183699288Y-107349771D01*
X183438103Y-108458984D01*
X183437078Y-108463035D01*
X183139257Y-109562993D01*
X183138100Y-109567000D01*
X182818395Y-110609457D01*
X182803981Y-110656456D01*
X182802697Y-110660408D01*
X182468167Y-111634715D01*
X182432626Y-111738227D01*
X182431208Y-111742144D01*
X182028856Y-112798567D01*
X182025612Y-112807084D01*
X182024067Y-112810948D01*
X181882118Y-113149457D01*
X181583384Y-113861854D01*
X181581705Y-113865679D01*
X181106432Y-114901379D01*
X181104627Y-114905147D01*
X180595259Y-115924551D01*
X180593331Y-115928253D01*
X180169557Y-116710376D01*
X180050467Y-116930169D01*
X180048416Y-116933809D01*
X179472630Y-117917177D01*
X179470460Y-117920747D01*
X178862367Y-118884516D01*
X178860079Y-118888012D01*
X178220383Y-119831066D01*
X178217980Y-119834485D01*
X177547375Y-120755802D01*
X177544861Y-120759139D01*
X176853558Y-121645561D01*
X176844048Y-121657755D01*
X176841438Y-121660989D01*
X176537677Y-122024928D01*
X176111237Y-122535849D01*
X176108507Y-122539012D01*
X175349711Y-123389171D01*
X175346878Y-123392242D01*
X175209566Y-123536182D01*
X175148072Y-123571665D01*
X175077157Y-123568270D01*
X175019335Y-123527074D01*
X174992964Y-123461157D01*
X175001653Y-123401806D01*
X175131562Y-123081877D01*
X175131564Y-123081872D01*
X175132842Y-123078724D01*
X175143142Y-123042568D01*
X175163527Y-122971006D01*
X175231020Y-122734070D01*
X175245689Y-122648255D01*
X175290829Y-122384175D01*
X175290829Y-122384173D01*
X175291401Y-122380828D01*
X175293004Y-122354628D01*
X175313168Y-122024928D01*
X175313278Y-122023131D01*
X175313359Y-122000000D01*
X175293979Y-121642159D01*
X175236066Y-121288505D01*
X175140297Y-120943173D01*
X175137243Y-120935497D01*
X175009052Y-120613369D01*
X175007793Y-120610205D01*
X174907310Y-120420425D01*
X174841702Y-120296513D01*
X174841698Y-120296506D01*
X174840103Y-120293494D01*
X174639190Y-119996746D01*
X174407403Y-119723432D01*
X174147454Y-119476750D01*
X173862384Y-119259585D01*
X173859472Y-119257828D01*
X173859467Y-119257825D01*
X173558443Y-119076236D01*
X173558437Y-119076233D01*
X173555528Y-119074478D01*
X173230475Y-118923593D01*
X173060751Y-118866145D01*
X172894255Y-118809789D01*
X172894250Y-118809788D01*
X172891028Y-118808697D01*
X172692681Y-118764724D01*
X172544493Y-118731871D01*
X172544487Y-118731870D01*
X172541158Y-118731132D01*
X172537769Y-118730758D01*
X172537764Y-118730757D01*
X172188338Y-118692180D01*
X172188333Y-118692180D01*
X172184957Y-118691807D01*
X172181558Y-118691801D01*
X172181557Y-118691801D01*
X172012080Y-118691505D01*
X171826592Y-118691182D01*
X171713413Y-118703277D01*
X171473639Y-118728901D01*
X171473631Y-118728902D01*
X171470256Y-118729263D01*
X171120117Y-118805606D01*
X170780271Y-118919317D01*
X170777178Y-118920739D01*
X170777177Y-118920740D01*
X170770974Y-118923593D01*
X170454694Y-119069066D01*
X170451760Y-119070822D01*
X170451758Y-119070823D01*
X170172539Y-119237932D01*
X170147193Y-119253101D01*
X170144467Y-119255163D01*
X170144465Y-119255164D01*
X170138620Y-119259585D01*
X169861367Y-119469270D01*
X169600559Y-119715043D01*
X169367819Y-119987546D01*
X169365900Y-119990358D01*
X169365897Y-119990363D01*
X169272624Y-120127097D01*
X169165871Y-120283591D01*
X168997077Y-120599714D01*
X168863411Y-120932218D01*
X168862491Y-120935492D01*
X168862489Y-120935497D01*
X168860332Y-120943173D01*
X168766437Y-121277213D01*
X168707290Y-121630663D01*
X168686661Y-121988434D01*
X168704792Y-122346340D01*
X168705329Y-122349695D01*
X168705330Y-122349701D01*
X168710316Y-122380828D01*
X168761470Y-122700195D01*
X168856033Y-123045859D01*
X168878095Y-123101866D01*
X168973898Y-123345076D01*
X168987374Y-123379288D01*
X169153957Y-123696582D01*
X169155858Y-123699411D01*
X169155864Y-123699421D01*
X169208238Y-123777361D01*
X169353834Y-123994029D01*
X169584665Y-124268150D01*
X169843751Y-124515738D01*
X170128061Y-124733897D01*
X170130979Y-124735671D01*
X170431355Y-124918303D01*
X170431360Y-124918306D01*
X170434270Y-124920075D01*
X170437358Y-124921521D01*
X170437357Y-124921521D01*
X170755710Y-125070649D01*
X170755720Y-125070653D01*
X170758794Y-125072093D01*
X170762012Y-125073195D01*
X170762015Y-125073196D01*
X171094615Y-125187071D01*
X171094623Y-125187073D01*
X171097838Y-125188174D01*
X171447435Y-125266959D01*
X171499728Y-125272917D01*
X171800114Y-125307142D01*
X171800122Y-125307142D01*
X171803497Y-125307527D01*
X171806901Y-125307545D01*
X171806904Y-125307545D01*
X172001227Y-125308562D01*
X172161857Y-125309403D01*
X172165243Y-125309053D01*
X172165245Y-125309053D01*
X172514932Y-125272917D01*
X172514941Y-125272916D01*
X172518324Y-125272566D01*
X172521657Y-125271852D01*
X172521660Y-125271851D01*
X172694186Y-125234864D01*
X172868727Y-125197446D01*
X173208968Y-125084922D01*
X173335188Y-125027400D01*
X173404365Y-124995875D01*
X173474647Y-124985827D01*
X173539204Y-125015371D01*
X173577540Y-125075128D01*
X173577484Y-125146124D01*
X173541822Y-125203352D01*
X173400002Y-125333534D01*
X172901356Y-125791259D01*
X172898232Y-125794033D01*
X172033625Y-126536401D01*
X172030410Y-126539069D01*
X171141722Y-127252317D01*
X171138421Y-127254878D01*
X170226541Y-127938292D01*
X170223157Y-127940742D01*
X169289125Y-128593545D01*
X169285670Y-128595876D01*
X169022081Y-128767380D01*
X168330472Y-129217375D01*
X168326932Y-129219595D01*
X167351685Y-129809062D01*
X167348074Y-129811163D01*
X166598079Y-130231181D01*
X166414439Y-130334025D01*
X166353838Y-130367963D01*
X166350186Y-130369930D01*
X165337944Y-130893506D01*
X165334292Y-130895319D01*
X164549519Y-131268796D01*
X164305287Y-131385027D01*
X164301485Y-131386760D01*
X163256824Y-131842076D01*
X163252967Y-131843681D01*
X162193818Y-132264098D01*
X162189909Y-132265575D01*
X161117410Y-132650641D01*
X161113455Y-132651988D01*
X160028733Y-133001299D01*
X160024736Y-133002513D01*
X158929082Y-133315652D01*
X158925046Y-133316734D01*
X158552210Y-133410038D01*
X157819539Y-133593393D01*
X157815527Y-133594326D01*
X156812535Y-133810265D01*
X156701464Y-133834178D01*
X156697366Y-133834989D01*
X156148421Y-133934254D01*
X156077828Y-133926693D01*
X156022529Y-133882167D01*
X156000000Y-133810265D01*
X156000000Y-129898134D01*
X156641500Y-129898134D01*
X156648255Y-129960316D01*
X156699385Y-130096705D01*
X156786739Y-130213261D01*
X156903295Y-130300615D01*
X157039684Y-130351745D01*
X157101866Y-130358500D01*
X158898134Y-130358500D01*
X158960316Y-130351745D01*
X159096705Y-130300615D01*
X159213261Y-130213261D01*
X159300615Y-130096705D01*
X159322799Y-130037529D01*
X159344598Y-129979382D01*
X159387240Y-129922618D01*
X159453802Y-129897918D01*
X159523150Y-129913126D01*
X159557817Y-129941114D01*
X159586250Y-129973938D01*
X159758126Y-130116632D01*
X159951000Y-130229338D01*
X160159692Y-130309030D01*
X160164760Y-130310061D01*
X160164763Y-130310062D01*
X160259862Y-130329410D01*
X160378597Y-130353567D01*
X160383772Y-130353757D01*
X160383774Y-130353757D01*
X160596673Y-130361564D01*
X160596677Y-130361564D01*
X160601837Y-130361753D01*
X160606957Y-130361097D01*
X160606959Y-130361097D01*
X160818288Y-130334025D01*
X160818289Y-130334025D01*
X160823416Y-130333368D01*
X160828366Y-130331883D01*
X161032429Y-130270661D01*
X161032434Y-130270659D01*
X161037384Y-130269174D01*
X161237994Y-130170896D01*
X161419860Y-130041173D01*
X161578096Y-129883489D01*
X161708453Y-129702077D01*
X161709640Y-129702930D01*
X161756960Y-129659362D01*
X161826897Y-129647145D01*
X161892338Y-129674678D01*
X161920166Y-129706511D01*
X161977694Y-129800388D01*
X161983777Y-129808699D01*
X162123213Y-129969667D01*
X162130580Y-129976883D01*
X162294434Y-130112916D01*
X162302881Y-130118831D01*
X162486756Y-130226279D01*
X162496042Y-130230729D01*
X162695001Y-130306703D01*
X162704899Y-130309579D01*
X162808250Y-130330606D01*
X162822299Y-130329410D01*
X162826000Y-130319065D01*
X162826000Y-130318517D01*
X163334000Y-130318517D01*
X163338064Y-130332359D01*
X163351478Y-130334393D01*
X163358184Y-130333534D01*
X163368262Y-130331392D01*
X163572255Y-130270191D01*
X163581842Y-130266433D01*
X163773095Y-130172739D01*
X163781945Y-130167464D01*
X163955328Y-130043792D01*
X163963200Y-130037139D01*
X164114052Y-129886812D01*
X164120730Y-129878965D01*
X164245003Y-129706020D01*
X164250313Y-129697183D01*
X164344670Y-129506267D01*
X164348469Y-129496672D01*
X164410377Y-129292910D01*
X164412555Y-129282837D01*
X164413986Y-129271962D01*
X164411775Y-129257778D01*
X164398617Y-129254000D01*
X163352115Y-129254000D01*
X163336876Y-129258475D01*
X163335671Y-129259865D01*
X163334000Y-129267548D01*
X163334000Y-130318517D01*
X162826000Y-130318517D01*
X162826000Y-128727885D01*
X163334000Y-128727885D01*
X163338475Y-128743124D01*
X163339865Y-128744329D01*
X163347548Y-128746000D01*
X164398344Y-128746000D01*
X164411875Y-128742027D01*
X164413180Y-128732947D01*
X164371214Y-128565875D01*
X164367894Y-128556124D01*
X164282972Y-128360814D01*
X164278105Y-128351739D01*
X164162426Y-128172926D01*
X164156136Y-128164757D01*
X164012806Y-128007240D01*
X164005273Y-128000215D01*
X163838139Y-127868222D01*
X163829552Y-127862517D01*
X163643117Y-127759599D01*
X163633705Y-127755369D01*
X163432959Y-127684280D01*
X163422988Y-127681646D01*
X163351837Y-127668972D01*
X163338540Y-127670432D01*
X163334000Y-127684989D01*
X163334000Y-128727885D01*
X162826000Y-128727885D01*
X162826000Y-127683102D01*
X162822082Y-127669758D01*
X162807806Y-127667771D01*
X162769324Y-127673660D01*
X162759288Y-127676051D01*
X162556868Y-127742212D01*
X162547359Y-127746209D01*
X162358463Y-127844542D01*
X162349738Y-127850036D01*
X162179433Y-127977905D01*
X162171726Y-127984748D01*
X162024590Y-128138717D01*
X162018109Y-128146722D01*
X161913498Y-128300074D01*
X161858587Y-128345076D01*
X161788062Y-128353247D01*
X161724315Y-128321993D01*
X161703618Y-128297509D01*
X161622822Y-128172617D01*
X161622820Y-128172614D01*
X161620014Y-128168277D01*
X161469670Y-128003051D01*
X161465619Y-127999852D01*
X161465615Y-127999848D01*
X161298414Y-127867800D01*
X161298410Y-127867798D01*
X161294359Y-127864598D01*
X161258028Y-127844542D01*
X161242136Y-127835769D01*
X161098789Y-127756638D01*
X161093920Y-127754914D01*
X161093916Y-127754912D01*
X160893087Y-127683795D01*
X160893083Y-127683794D01*
X160888212Y-127682069D01*
X160883119Y-127681162D01*
X160883116Y-127681161D01*
X160673373Y-127643800D01*
X160673367Y-127643799D01*
X160668284Y-127642894D01*
X160594452Y-127641992D01*
X160450081Y-127640228D01*
X160450079Y-127640228D01*
X160444911Y-127640165D01*
X160224091Y-127673955D01*
X160011756Y-127743357D01*
X159813607Y-127846507D01*
X159809474Y-127849610D01*
X159809471Y-127849612D01*
X159639100Y-127977530D01*
X159634965Y-127980635D01*
X159558036Y-128061137D01*
X159554283Y-128065064D01*
X159492759Y-128100494D01*
X159421846Y-128097037D01*
X159364060Y-128055791D01*
X159345207Y-128022243D01*
X159303767Y-127911703D01*
X159300615Y-127903295D01*
X159213261Y-127786739D01*
X159096705Y-127699385D01*
X158960316Y-127648255D01*
X158898134Y-127641500D01*
X157101866Y-127641500D01*
X157039684Y-127648255D01*
X156903295Y-127699385D01*
X156786739Y-127786739D01*
X156699385Y-127903295D01*
X156648255Y-128039684D01*
X156641500Y-128101866D01*
X156641500Y-129898134D01*
X156000000Y-129898134D01*
X156000000Y-124898134D01*
X156641500Y-124898134D01*
X156648255Y-124960316D01*
X156699385Y-125096705D01*
X156786739Y-125213261D01*
X156903295Y-125300615D01*
X157039684Y-125351745D01*
X157101866Y-125358500D01*
X158898134Y-125358500D01*
X158960316Y-125351745D01*
X159096705Y-125300615D01*
X159213261Y-125213261D01*
X159300615Y-125096705D01*
X159322799Y-125037529D01*
X159344598Y-124979382D01*
X159387240Y-124922618D01*
X159453802Y-124897918D01*
X159523150Y-124913126D01*
X159557817Y-124941114D01*
X159586250Y-124973938D01*
X159758126Y-125116632D01*
X159951000Y-125229338D01*
X160159692Y-125309030D01*
X160164760Y-125310061D01*
X160164763Y-125310062D01*
X160259862Y-125329410D01*
X160378597Y-125353567D01*
X160383772Y-125353757D01*
X160383774Y-125353757D01*
X160596673Y-125361564D01*
X160596677Y-125361564D01*
X160601837Y-125361753D01*
X160606957Y-125361097D01*
X160606959Y-125361097D01*
X160818288Y-125334025D01*
X160818289Y-125334025D01*
X160823416Y-125333368D01*
X160828366Y-125331883D01*
X161032429Y-125270661D01*
X161032434Y-125270659D01*
X161037384Y-125269174D01*
X161237994Y-125170896D01*
X161419860Y-125041173D01*
X161578096Y-124883489D01*
X161687084Y-124731816D01*
X161708453Y-124702077D01*
X161709640Y-124702930D01*
X161756960Y-124659362D01*
X161826897Y-124647145D01*
X161892338Y-124674678D01*
X161920166Y-124706511D01*
X161977694Y-124800388D01*
X161983777Y-124808699D01*
X162123213Y-124969667D01*
X162130580Y-124976883D01*
X162294434Y-125112916D01*
X162302881Y-125118831D01*
X162486756Y-125226279D01*
X162496042Y-125230729D01*
X162695001Y-125306703D01*
X162704899Y-125309579D01*
X162808250Y-125330606D01*
X162822299Y-125329410D01*
X162826000Y-125319065D01*
X162826000Y-125318517D01*
X163334000Y-125318517D01*
X163338064Y-125332359D01*
X163351478Y-125334393D01*
X163358184Y-125333534D01*
X163368262Y-125331392D01*
X163572255Y-125270191D01*
X163581842Y-125266433D01*
X163773095Y-125172739D01*
X163781945Y-125167464D01*
X163955328Y-125043792D01*
X163963200Y-125037139D01*
X164114052Y-124886812D01*
X164120730Y-124878965D01*
X164245003Y-124706020D01*
X164250313Y-124697183D01*
X164344670Y-124506267D01*
X164348469Y-124496672D01*
X164410377Y-124292910D01*
X164412555Y-124282837D01*
X164413986Y-124271962D01*
X164411775Y-124257778D01*
X164398617Y-124254000D01*
X163352115Y-124254000D01*
X163336876Y-124258475D01*
X163335671Y-124259865D01*
X163334000Y-124267548D01*
X163334000Y-125318517D01*
X162826000Y-125318517D01*
X162826000Y-123727885D01*
X163334000Y-123727885D01*
X163338475Y-123743124D01*
X163339865Y-123744329D01*
X163347548Y-123746000D01*
X164398344Y-123746000D01*
X164411875Y-123742027D01*
X164413180Y-123732947D01*
X164371214Y-123565875D01*
X164367894Y-123556124D01*
X164282972Y-123360814D01*
X164278105Y-123351739D01*
X164162426Y-123172926D01*
X164156136Y-123164757D01*
X164012806Y-123007240D01*
X164005273Y-123000215D01*
X163838139Y-122868222D01*
X163829552Y-122862517D01*
X163643117Y-122759599D01*
X163633705Y-122755369D01*
X163432959Y-122684280D01*
X163422988Y-122681646D01*
X163351837Y-122668972D01*
X163338540Y-122670432D01*
X163334000Y-122684989D01*
X163334000Y-123727885D01*
X162826000Y-123727885D01*
X162826000Y-122683102D01*
X162822082Y-122669758D01*
X162807806Y-122667771D01*
X162769324Y-122673660D01*
X162759288Y-122676051D01*
X162556868Y-122742212D01*
X162547359Y-122746209D01*
X162358463Y-122844542D01*
X162349738Y-122850036D01*
X162179433Y-122977905D01*
X162171726Y-122984748D01*
X162024590Y-123138717D01*
X162018109Y-123146722D01*
X161913498Y-123300074D01*
X161858587Y-123345076D01*
X161788062Y-123353247D01*
X161724315Y-123321993D01*
X161703618Y-123297509D01*
X161622822Y-123172617D01*
X161622820Y-123172614D01*
X161620014Y-123168277D01*
X161469670Y-123003051D01*
X161465619Y-122999852D01*
X161465615Y-122999848D01*
X161298414Y-122867800D01*
X161298410Y-122867798D01*
X161294359Y-122864598D01*
X161258028Y-122844542D01*
X161242136Y-122835769D01*
X161098789Y-122756638D01*
X161093920Y-122754914D01*
X161093916Y-122754912D01*
X160893087Y-122683795D01*
X160893083Y-122683794D01*
X160888212Y-122682069D01*
X160883119Y-122681162D01*
X160883116Y-122681161D01*
X160673373Y-122643800D01*
X160673367Y-122643799D01*
X160668284Y-122642894D01*
X160594452Y-122641992D01*
X160450081Y-122640228D01*
X160450079Y-122640228D01*
X160444911Y-122640165D01*
X160224091Y-122673955D01*
X160011756Y-122743357D01*
X159813607Y-122846507D01*
X159809474Y-122849610D01*
X159809471Y-122849612D01*
X159639100Y-122977530D01*
X159634965Y-122980635D01*
X159572636Y-123045859D01*
X159554283Y-123065064D01*
X159492759Y-123100494D01*
X159421846Y-123097037D01*
X159364060Y-123055791D01*
X159345207Y-123022243D01*
X159303767Y-122911703D01*
X159300615Y-122903295D01*
X159213261Y-122786739D01*
X159096705Y-122699385D01*
X158960316Y-122648255D01*
X158898134Y-122641500D01*
X157101866Y-122641500D01*
X157039684Y-122648255D01*
X156903295Y-122699385D01*
X156786739Y-122786739D01*
X156699385Y-122903295D01*
X156648255Y-123039684D01*
X156641500Y-123101866D01*
X156641500Y-124898134D01*
X156000000Y-124898134D01*
X156000000Y-117419669D01*
X163642001Y-117419669D01*
X163642371Y-117426490D01*
X163647895Y-117477352D01*
X163651521Y-117492604D01*
X163696676Y-117613054D01*
X163705214Y-117628649D01*
X163781715Y-117730724D01*
X163794276Y-117743285D01*
X163896351Y-117819786D01*
X163911946Y-117828324D01*
X164032394Y-117873478D01*
X164047649Y-117877105D01*
X164098514Y-117882631D01*
X164105328Y-117883000D01*
X164727885Y-117883000D01*
X164743124Y-117878525D01*
X164744329Y-117877135D01*
X164746000Y-117869452D01*
X164746000Y-117864884D01*
X165254000Y-117864884D01*
X165258475Y-117880123D01*
X165259865Y-117881328D01*
X165267548Y-117882999D01*
X165894669Y-117882999D01*
X165901490Y-117882629D01*
X165952352Y-117877105D01*
X165967604Y-117873479D01*
X166088054Y-117828324D01*
X166103649Y-117819786D01*
X166205724Y-117743285D01*
X166218285Y-117730724D01*
X166294786Y-117628649D01*
X166303324Y-117613054D01*
X166348478Y-117492606D01*
X166352105Y-117477351D01*
X166357631Y-117426486D01*
X166358000Y-117419672D01*
X166358000Y-117419669D01*
X167642001Y-117419669D01*
X167642371Y-117426490D01*
X167647895Y-117477352D01*
X167651521Y-117492604D01*
X167696676Y-117613054D01*
X167705214Y-117628649D01*
X167781715Y-117730724D01*
X167794276Y-117743285D01*
X167896351Y-117819786D01*
X167911946Y-117828324D01*
X168032394Y-117873478D01*
X168047649Y-117877105D01*
X168098514Y-117882631D01*
X168105328Y-117883000D01*
X168727885Y-117883000D01*
X168743124Y-117878525D01*
X168744329Y-117877135D01*
X168746000Y-117869452D01*
X168746000Y-117864884D01*
X169254000Y-117864884D01*
X169258475Y-117880123D01*
X169259865Y-117881328D01*
X169267548Y-117882999D01*
X169894669Y-117882999D01*
X169901490Y-117882629D01*
X169952352Y-117877105D01*
X169967604Y-117873479D01*
X170088054Y-117828324D01*
X170103649Y-117819786D01*
X170205724Y-117743285D01*
X170218285Y-117730724D01*
X170294786Y-117628649D01*
X170303324Y-117613054D01*
X170348478Y-117492606D01*
X170352105Y-117477351D01*
X170357631Y-117426486D01*
X170357813Y-117423134D01*
X171641500Y-117423134D01*
X171648255Y-117485316D01*
X171699385Y-117621705D01*
X171786739Y-117738261D01*
X171903295Y-117825615D01*
X172039684Y-117876745D01*
X172101866Y-117883500D01*
X173898134Y-117883500D01*
X173960316Y-117876745D01*
X174096705Y-117825615D01*
X174213261Y-117738261D01*
X174300615Y-117621705D01*
X174351745Y-117485316D01*
X174358500Y-117423134D01*
X175641500Y-117423134D01*
X175648255Y-117485316D01*
X175699385Y-117621705D01*
X175786739Y-117738261D01*
X175903295Y-117825615D01*
X176039684Y-117876745D01*
X176101866Y-117883500D01*
X177898134Y-117883500D01*
X177960316Y-117876745D01*
X178096705Y-117825615D01*
X178213261Y-117738261D01*
X178300615Y-117621705D01*
X178351745Y-117485316D01*
X178358500Y-117423134D01*
X178358500Y-115626866D01*
X178351745Y-115564684D01*
X178300615Y-115428295D01*
X178213261Y-115311739D01*
X178096705Y-115224385D01*
X177977687Y-115179767D01*
X177920923Y-115137125D01*
X177896223Y-115070564D01*
X177911430Y-115001215D01*
X177932977Y-114972535D01*
X178034052Y-114871812D01*
X178040730Y-114863965D01*
X178165003Y-114691020D01*
X178170313Y-114682183D01*
X178264670Y-114491267D01*
X178268469Y-114481672D01*
X178330377Y-114277910D01*
X178332555Y-114267837D01*
X178333986Y-114256962D01*
X178331775Y-114242778D01*
X178318617Y-114239000D01*
X175683225Y-114239000D01*
X175669694Y-114242973D01*
X175668257Y-114252966D01*
X175698565Y-114387446D01*
X175701645Y-114397275D01*
X175781770Y-114594603D01*
X175786413Y-114603794D01*
X175897694Y-114785388D01*
X175903777Y-114793699D01*
X176043213Y-114954667D01*
X176050577Y-114961879D01*
X176055522Y-114965985D01*
X176095156Y-115024889D01*
X176096653Y-115095870D01*
X176059537Y-115156392D01*
X176019264Y-115180910D01*
X175911705Y-115221232D01*
X175911704Y-115221233D01*
X175903295Y-115224385D01*
X175786739Y-115311739D01*
X175699385Y-115428295D01*
X175648255Y-115564684D01*
X175641500Y-115626866D01*
X175641500Y-117423134D01*
X174358500Y-117423134D01*
X174358500Y-115626866D01*
X174351745Y-115564684D01*
X174300615Y-115428295D01*
X174213261Y-115311739D01*
X174096705Y-115224385D01*
X173977687Y-115179767D01*
X173920923Y-115137125D01*
X173896223Y-115070564D01*
X173911430Y-115001215D01*
X173932977Y-114972535D01*
X174034052Y-114871812D01*
X174040730Y-114863965D01*
X174165003Y-114691020D01*
X174170313Y-114682183D01*
X174264670Y-114491267D01*
X174268469Y-114481672D01*
X174330377Y-114277910D01*
X174332555Y-114267837D01*
X174333986Y-114256962D01*
X174331775Y-114242778D01*
X174318617Y-114239000D01*
X171683225Y-114239000D01*
X171669694Y-114242973D01*
X171668257Y-114252966D01*
X171698565Y-114387446D01*
X171701645Y-114397275D01*
X171781770Y-114594603D01*
X171786413Y-114603794D01*
X171897694Y-114785388D01*
X171903777Y-114793699D01*
X172043213Y-114954667D01*
X172050577Y-114961879D01*
X172055522Y-114965985D01*
X172095156Y-115024889D01*
X172096653Y-115095870D01*
X172059537Y-115156392D01*
X172019264Y-115180910D01*
X171911705Y-115221232D01*
X171911704Y-115221233D01*
X171903295Y-115224385D01*
X171786739Y-115311739D01*
X171699385Y-115428295D01*
X171648255Y-115564684D01*
X171641500Y-115626866D01*
X171641500Y-117423134D01*
X170357813Y-117423134D01*
X170358000Y-117419672D01*
X170358000Y-116797115D01*
X170353525Y-116781876D01*
X170352135Y-116780671D01*
X170344452Y-116779000D01*
X169272115Y-116779000D01*
X169256876Y-116783475D01*
X169255671Y-116784865D01*
X169254000Y-116792548D01*
X169254000Y-117864884D01*
X168746000Y-117864884D01*
X168746000Y-116797115D01*
X168741525Y-116781876D01*
X168740135Y-116780671D01*
X168732452Y-116779000D01*
X167660116Y-116779000D01*
X167644877Y-116783475D01*
X167643672Y-116784865D01*
X167642001Y-116792548D01*
X167642001Y-117419669D01*
X166358000Y-117419669D01*
X166358000Y-116797115D01*
X166353525Y-116781876D01*
X166352135Y-116780671D01*
X166344452Y-116779000D01*
X165272115Y-116779000D01*
X165256876Y-116783475D01*
X165255671Y-116784865D01*
X165254000Y-116792548D01*
X165254000Y-117864884D01*
X164746000Y-117864884D01*
X164746000Y-116797115D01*
X164741525Y-116781876D01*
X164740135Y-116780671D01*
X164732452Y-116779000D01*
X163660116Y-116779000D01*
X163644877Y-116783475D01*
X163643672Y-116784865D01*
X163642001Y-116792548D01*
X163642001Y-117419669D01*
X156000000Y-117419669D01*
X156000000Y-116662777D01*
X156703777Y-116662777D01*
X156713074Y-116674793D01*
X156756069Y-116704898D01*
X156765555Y-116710376D01*
X156956993Y-116799645D01*
X156967285Y-116803391D01*
X157171309Y-116858059D01*
X157182104Y-116859962D01*
X157392525Y-116878372D01*
X157403475Y-116878372D01*
X157613896Y-116859962D01*
X157624691Y-116858059D01*
X157828715Y-116803391D01*
X157839007Y-116799645D01*
X158030445Y-116710376D01*
X158039931Y-116704898D01*
X158083764Y-116674207D01*
X158092139Y-116663729D01*
X158085071Y-116650281D01*
X157410812Y-115976022D01*
X157396868Y-115968408D01*
X157395035Y-115968539D01*
X157388420Y-115972790D01*
X156710207Y-116651003D01*
X156703777Y-116662777D01*
X156000000Y-116662777D01*
X156000000Y-116179404D01*
X156020002Y-116111283D01*
X156073658Y-116064790D01*
X156143932Y-116054686D01*
X156208512Y-116084180D01*
X156240195Y-116126154D01*
X156291623Y-116236441D01*
X156297103Y-116245932D01*
X156327794Y-116289765D01*
X156338271Y-116298140D01*
X156351718Y-116291072D01*
X157025978Y-115616812D01*
X157032356Y-115605132D01*
X157762408Y-115605132D01*
X157762539Y-115606965D01*
X157766790Y-115613580D01*
X158445003Y-116291793D01*
X158456777Y-116298223D01*
X158468793Y-116288926D01*
X158498897Y-116245932D01*
X158504377Y-116236441D01*
X158593645Y-116045007D01*
X158597391Y-116034715D01*
X158652059Y-115830691D01*
X158653962Y-115819896D01*
X158672372Y-115609475D01*
X158672372Y-115598525D01*
X158653962Y-115388104D01*
X158652059Y-115377309D01*
X158597391Y-115173285D01*
X158593645Y-115162993D01*
X158504377Y-114971559D01*
X158498897Y-114962068D01*
X158468206Y-114918235D01*
X158457729Y-114909860D01*
X158444282Y-114916928D01*
X157770022Y-115591188D01*
X157762408Y-115605132D01*
X157032356Y-115605132D01*
X157033592Y-115602868D01*
X157033461Y-115601035D01*
X157029210Y-115594420D01*
X156350997Y-114916207D01*
X156339223Y-114909777D01*
X156327207Y-114919074D01*
X156297103Y-114962068D01*
X156291623Y-114971559D01*
X156240195Y-115081846D01*
X156193278Y-115135131D01*
X156125000Y-115154592D01*
X156057040Y-115134050D01*
X156010975Y-115080027D01*
X156000000Y-115028596D01*
X156000000Y-114122777D01*
X156703777Y-114122777D01*
X156713074Y-114134793D01*
X156756069Y-114164898D01*
X156765555Y-114170376D01*
X156871557Y-114219805D01*
X156924842Y-114266722D01*
X156944303Y-114334999D01*
X156923761Y-114402959D01*
X156871557Y-114448195D01*
X156765559Y-114497623D01*
X156756068Y-114503103D01*
X156712235Y-114533794D01*
X156703860Y-114544271D01*
X156710928Y-114557718D01*
X157385188Y-115231978D01*
X157399132Y-115239592D01*
X157400965Y-115239461D01*
X157407580Y-115235210D01*
X158085793Y-114556997D01*
X158092223Y-114545223D01*
X158082926Y-114533207D01*
X158039931Y-114503102D01*
X158030445Y-114497624D01*
X157924444Y-114448195D01*
X157871159Y-114401278D01*
X157851698Y-114333000D01*
X157872240Y-114265040D01*
X157924444Y-114219805D01*
X158030445Y-114170376D01*
X158039931Y-114164898D01*
X158083764Y-114134207D01*
X158092139Y-114123729D01*
X158085071Y-114110281D01*
X157926485Y-113951695D01*
X163637251Y-113951695D01*
X163637548Y-113956848D01*
X163637548Y-113956851D01*
X163643011Y-114051590D01*
X163650110Y-114174715D01*
X163651247Y-114179761D01*
X163651248Y-114179767D01*
X163664597Y-114239000D01*
X163699222Y-114392639D01*
X163783266Y-114599616D01*
X163899987Y-114790088D01*
X164046250Y-114958938D01*
X164050225Y-114962238D01*
X164050231Y-114962244D01*
X164055425Y-114966556D01*
X164095059Y-115025460D01*
X164096555Y-115096441D01*
X164059439Y-115156962D01*
X164019168Y-115181480D01*
X163911946Y-115221676D01*
X163896351Y-115230214D01*
X163794276Y-115306715D01*
X163781715Y-115319276D01*
X163705214Y-115421351D01*
X163696676Y-115436946D01*
X163651522Y-115557394D01*
X163647895Y-115572649D01*
X163642369Y-115623514D01*
X163642000Y-115630328D01*
X163642000Y-116252885D01*
X163646475Y-116268124D01*
X163647865Y-116269329D01*
X163655548Y-116271000D01*
X166339884Y-116271000D01*
X166355123Y-116266525D01*
X166356328Y-116265135D01*
X166357999Y-116257452D01*
X166357999Y-115630331D01*
X166357629Y-115623510D01*
X166352105Y-115572648D01*
X166348479Y-115557396D01*
X166303324Y-115436946D01*
X166294786Y-115421351D01*
X166218285Y-115319276D01*
X166205724Y-115306715D01*
X166103649Y-115230214D01*
X166088054Y-115221676D01*
X165977813Y-115180348D01*
X165921049Y-115137706D01*
X165896349Y-115071145D01*
X165911557Y-115001796D01*
X165933104Y-114973115D01*
X166034430Y-114872144D01*
X166034440Y-114872132D01*
X166038096Y-114868489D01*
X166097594Y-114785689D01*
X166165435Y-114691277D01*
X166168453Y-114687077D01*
X166262087Y-114497623D01*
X166265136Y-114491453D01*
X166265137Y-114491451D01*
X166267430Y-114486811D01*
X166332370Y-114273069D01*
X166361529Y-114051590D01*
X166363156Y-113985000D01*
X166360418Y-113951695D01*
X167637251Y-113951695D01*
X167637548Y-113956848D01*
X167637548Y-113956851D01*
X167643011Y-114051590D01*
X167650110Y-114174715D01*
X167651247Y-114179761D01*
X167651248Y-114179767D01*
X167664597Y-114239000D01*
X167699222Y-114392639D01*
X167783266Y-114599616D01*
X167899987Y-114790088D01*
X168046250Y-114958938D01*
X168050225Y-114962238D01*
X168050231Y-114962244D01*
X168055425Y-114966556D01*
X168095059Y-115025460D01*
X168096555Y-115096441D01*
X168059439Y-115156962D01*
X168019168Y-115181480D01*
X167911946Y-115221676D01*
X167896351Y-115230214D01*
X167794276Y-115306715D01*
X167781715Y-115319276D01*
X167705214Y-115421351D01*
X167696676Y-115436946D01*
X167651522Y-115557394D01*
X167647895Y-115572649D01*
X167642369Y-115623514D01*
X167642000Y-115630328D01*
X167642000Y-116252885D01*
X167646475Y-116268124D01*
X167647865Y-116269329D01*
X167655548Y-116271000D01*
X170339884Y-116271000D01*
X170355123Y-116266525D01*
X170356328Y-116265135D01*
X170357999Y-116257452D01*
X170357999Y-115630331D01*
X170357629Y-115623510D01*
X170352105Y-115572648D01*
X170348479Y-115557396D01*
X170303324Y-115436946D01*
X170294786Y-115421351D01*
X170218285Y-115319276D01*
X170205724Y-115306715D01*
X170103649Y-115230214D01*
X170088054Y-115221676D01*
X169977813Y-115180348D01*
X169921049Y-115137706D01*
X169896349Y-115071145D01*
X169911557Y-115001796D01*
X169933104Y-114973115D01*
X170034430Y-114872144D01*
X170034440Y-114872132D01*
X170038096Y-114868489D01*
X170097594Y-114785689D01*
X170165435Y-114691277D01*
X170168453Y-114687077D01*
X170262087Y-114497623D01*
X170265136Y-114491453D01*
X170265137Y-114491451D01*
X170267430Y-114486811D01*
X170332370Y-114273069D01*
X170361529Y-114051590D01*
X170363156Y-113985000D01*
X170344852Y-113762361D01*
X170290431Y-113545702D01*
X170201354Y-113340840D01*
X170080014Y-113153277D01*
X169929670Y-112988051D01*
X169925619Y-112984852D01*
X169925615Y-112984848D01*
X169758414Y-112852800D01*
X169758410Y-112852798D01*
X169754359Y-112849598D01*
X169713053Y-112826796D01*
X169663084Y-112776364D01*
X169648312Y-112706921D01*
X169673428Y-112640516D01*
X169700780Y-112613909D01*
X169744603Y-112582650D01*
X169879860Y-112486173D01*
X170038096Y-112328489D01*
X170097594Y-112245689D01*
X170165435Y-112151277D01*
X170168453Y-112147077D01*
X170197624Y-112088055D01*
X170265136Y-111951453D01*
X170265137Y-111951451D01*
X170267430Y-111946811D01*
X170315186Y-111789628D01*
X170330865Y-111738023D01*
X170330865Y-111738021D01*
X170332370Y-111733069D01*
X170361529Y-111511590D01*
X170363156Y-111445000D01*
X170360418Y-111411695D01*
X171637251Y-111411695D01*
X171637548Y-111416848D01*
X171637548Y-111416851D01*
X171643011Y-111511590D01*
X171650110Y-111634715D01*
X171651247Y-111639761D01*
X171651248Y-111639767D01*
X171671119Y-111727939D01*
X171699222Y-111852639D01*
X171783266Y-112059616D01*
X171899987Y-112250088D01*
X172046250Y-112418938D01*
X172218126Y-112561632D01*
X172258369Y-112585148D01*
X172291955Y-112604774D01*
X172340679Y-112656412D01*
X172353750Y-112726195D01*
X172327019Y-112791967D01*
X172286562Y-112825327D01*
X172278457Y-112829546D01*
X172269738Y-112835036D01*
X172099433Y-112962905D01*
X172091726Y-112969748D01*
X171944590Y-113123717D01*
X171938104Y-113131727D01*
X171818098Y-113307649D01*
X171813000Y-113316623D01*
X171723338Y-113509783D01*
X171719775Y-113519470D01*
X171664389Y-113719183D01*
X171665912Y-113727607D01*
X171678292Y-113731000D01*
X174318344Y-113731000D01*
X174331875Y-113727027D01*
X174333180Y-113717947D01*
X174291214Y-113550875D01*
X174287894Y-113541124D01*
X174202972Y-113345814D01*
X174198105Y-113336739D01*
X174082426Y-113157926D01*
X174076136Y-113149757D01*
X173932806Y-112992240D01*
X173925273Y-112985215D01*
X173758139Y-112853222D01*
X173749556Y-112847520D01*
X173712602Y-112827120D01*
X173662631Y-112776687D01*
X173647859Y-112707245D01*
X173672975Y-112640839D01*
X173700327Y-112614232D01*
X173741101Y-112585148D01*
X173879860Y-112486173D01*
X174038096Y-112328489D01*
X174097594Y-112245689D01*
X174165435Y-112151277D01*
X174168453Y-112147077D01*
X174197624Y-112088055D01*
X174265136Y-111951453D01*
X174265137Y-111951451D01*
X174267430Y-111946811D01*
X174315186Y-111789628D01*
X174330865Y-111738023D01*
X174330865Y-111738021D01*
X174332370Y-111733069D01*
X174361529Y-111511590D01*
X174363156Y-111445000D01*
X174360418Y-111411695D01*
X175637251Y-111411695D01*
X175637548Y-111416848D01*
X175637548Y-111416851D01*
X175643011Y-111511590D01*
X175650110Y-111634715D01*
X175651247Y-111639761D01*
X175651248Y-111639767D01*
X175671119Y-111727939D01*
X175699222Y-111852639D01*
X175783266Y-112059616D01*
X175899987Y-112250088D01*
X176046250Y-112418938D01*
X176218126Y-112561632D01*
X176258369Y-112585148D01*
X176291955Y-112604774D01*
X176340679Y-112656412D01*
X176353750Y-112726195D01*
X176327019Y-112791967D01*
X176286562Y-112825327D01*
X176278457Y-112829546D01*
X176269738Y-112835036D01*
X176099433Y-112962905D01*
X176091726Y-112969748D01*
X175944590Y-113123717D01*
X175938104Y-113131727D01*
X175818098Y-113307649D01*
X175813000Y-113316623D01*
X175723338Y-113509783D01*
X175719775Y-113519470D01*
X175664389Y-113719183D01*
X175665912Y-113727607D01*
X175678292Y-113731000D01*
X178318344Y-113731000D01*
X178331875Y-113727027D01*
X178333180Y-113717947D01*
X178291214Y-113550875D01*
X178287894Y-113541124D01*
X178202972Y-113345814D01*
X178198105Y-113336739D01*
X178082426Y-113157926D01*
X178076136Y-113149757D01*
X177932806Y-112992240D01*
X177925273Y-112985215D01*
X177758139Y-112853222D01*
X177749556Y-112847520D01*
X177712602Y-112827120D01*
X177662631Y-112776687D01*
X177647859Y-112707245D01*
X177672975Y-112640839D01*
X177700327Y-112614232D01*
X177741101Y-112585148D01*
X177879860Y-112486173D01*
X178038096Y-112328489D01*
X178097594Y-112245689D01*
X178165435Y-112151277D01*
X178168453Y-112147077D01*
X178197624Y-112088055D01*
X178265136Y-111951453D01*
X178265137Y-111951451D01*
X178267430Y-111946811D01*
X178315186Y-111789628D01*
X178330865Y-111738023D01*
X178330865Y-111738021D01*
X178332370Y-111733069D01*
X178361529Y-111511590D01*
X178363156Y-111445000D01*
X178344852Y-111222361D01*
X178290431Y-111005702D01*
X178201354Y-110800840D01*
X178080014Y-110613277D01*
X177929670Y-110448051D01*
X177925619Y-110444852D01*
X177925615Y-110444848D01*
X177758414Y-110312800D01*
X177758410Y-110312798D01*
X177754359Y-110309598D01*
X177558789Y-110201638D01*
X177553920Y-110199914D01*
X177553916Y-110199912D01*
X177353087Y-110128795D01*
X177353083Y-110128794D01*
X177348212Y-110127069D01*
X177343119Y-110126162D01*
X177343116Y-110126161D01*
X177133373Y-110088800D01*
X177133367Y-110088799D01*
X177128284Y-110087894D01*
X177054452Y-110086992D01*
X176910081Y-110085228D01*
X176910079Y-110085228D01*
X176904911Y-110085165D01*
X176684091Y-110118955D01*
X176471756Y-110188357D01*
X176273607Y-110291507D01*
X176269474Y-110294610D01*
X176269471Y-110294612D01*
X176245247Y-110312800D01*
X176094965Y-110425635D01*
X175940629Y-110587138D01*
X175814743Y-110771680D01*
X175720688Y-110974305D01*
X175660989Y-111189570D01*
X175637251Y-111411695D01*
X174360418Y-111411695D01*
X174344852Y-111222361D01*
X174290431Y-111005702D01*
X174201354Y-110800840D01*
X174080014Y-110613277D01*
X173929670Y-110448051D01*
X173925619Y-110444852D01*
X173925615Y-110444848D01*
X173758414Y-110312800D01*
X173758410Y-110312798D01*
X173754359Y-110309598D01*
X173558789Y-110201638D01*
X173553920Y-110199914D01*
X173553916Y-110199912D01*
X173353087Y-110128795D01*
X173353083Y-110128794D01*
X173348212Y-110127069D01*
X173343119Y-110126162D01*
X173343116Y-110126161D01*
X173133373Y-110088800D01*
X173133367Y-110088799D01*
X173128284Y-110087894D01*
X173054452Y-110086992D01*
X172910081Y-110085228D01*
X172910079Y-110085228D01*
X172904911Y-110085165D01*
X172684091Y-110118955D01*
X172471756Y-110188357D01*
X172273607Y-110291507D01*
X172269474Y-110294610D01*
X172269471Y-110294612D01*
X172245247Y-110312800D01*
X172094965Y-110425635D01*
X171940629Y-110587138D01*
X171814743Y-110771680D01*
X171720688Y-110974305D01*
X171660989Y-111189570D01*
X171637251Y-111411695D01*
X170360418Y-111411695D01*
X170344852Y-111222361D01*
X170290431Y-111005702D01*
X170201354Y-110800840D01*
X170080014Y-110613277D01*
X169929670Y-110448051D01*
X169925619Y-110444852D01*
X169925615Y-110444848D01*
X169758414Y-110312800D01*
X169758410Y-110312798D01*
X169754359Y-110309598D01*
X169558789Y-110201638D01*
X169553920Y-110199914D01*
X169553916Y-110199912D01*
X169353087Y-110128795D01*
X169353083Y-110128794D01*
X169348212Y-110127069D01*
X169343119Y-110126162D01*
X169343116Y-110126161D01*
X169133373Y-110088800D01*
X169133367Y-110088799D01*
X169128284Y-110087894D01*
X169054452Y-110086992D01*
X168910081Y-110085228D01*
X168910079Y-110085228D01*
X168904911Y-110085165D01*
X168684091Y-110118955D01*
X168471756Y-110188357D01*
X168273607Y-110291507D01*
X168269474Y-110294610D01*
X168269471Y-110294612D01*
X168245247Y-110312800D01*
X168094965Y-110425635D01*
X167940629Y-110587138D01*
X167814743Y-110771680D01*
X167720688Y-110974305D01*
X167660989Y-111189570D01*
X167637251Y-111411695D01*
X167637548Y-111416848D01*
X167637548Y-111416851D01*
X167643011Y-111511590D01*
X167650110Y-111634715D01*
X167651247Y-111639761D01*
X167651248Y-111639767D01*
X167671119Y-111727939D01*
X167699222Y-111852639D01*
X167783266Y-112059616D01*
X167899987Y-112250088D01*
X168046250Y-112418938D01*
X168218126Y-112561632D01*
X168258369Y-112585148D01*
X168291445Y-112604476D01*
X168340169Y-112656114D01*
X168353240Y-112725897D01*
X168326509Y-112791669D01*
X168286055Y-112825027D01*
X168273607Y-112831507D01*
X168269474Y-112834610D01*
X168269471Y-112834612D01*
X168099100Y-112962530D01*
X168094965Y-112965635D01*
X167940629Y-113127138D01*
X167937715Y-113131410D01*
X167937714Y-113131411D01*
X167925404Y-113149457D01*
X167814743Y-113311680D01*
X167720688Y-113514305D01*
X167660989Y-113729570D01*
X167637251Y-113951695D01*
X166360418Y-113951695D01*
X166344852Y-113762361D01*
X166290431Y-113545702D01*
X166201354Y-113340840D01*
X166080014Y-113153277D01*
X165929670Y-112988051D01*
X165925619Y-112984852D01*
X165925615Y-112984848D01*
X165758414Y-112852800D01*
X165758410Y-112852798D01*
X165754359Y-112849598D01*
X165713053Y-112826796D01*
X165663084Y-112776364D01*
X165648312Y-112706921D01*
X165673428Y-112640516D01*
X165700780Y-112613909D01*
X165744603Y-112582650D01*
X165879860Y-112486173D01*
X166038096Y-112328489D01*
X166097594Y-112245689D01*
X166165435Y-112151277D01*
X166168453Y-112147077D01*
X166197624Y-112088055D01*
X166265136Y-111951453D01*
X166265137Y-111951451D01*
X166267430Y-111946811D01*
X166315186Y-111789628D01*
X166330865Y-111738023D01*
X166330865Y-111738021D01*
X166332370Y-111733069D01*
X166361529Y-111511590D01*
X166363156Y-111445000D01*
X166344852Y-111222361D01*
X166290431Y-111005702D01*
X166201354Y-110800840D01*
X166080014Y-110613277D01*
X165929670Y-110448051D01*
X165925619Y-110444852D01*
X165925615Y-110444848D01*
X165758414Y-110312800D01*
X165758410Y-110312798D01*
X165754359Y-110309598D01*
X165558789Y-110201638D01*
X165553920Y-110199914D01*
X165553916Y-110199912D01*
X165353087Y-110128795D01*
X165353083Y-110128794D01*
X165348212Y-110127069D01*
X165343119Y-110126162D01*
X165343116Y-110126161D01*
X165133373Y-110088800D01*
X165133367Y-110088799D01*
X165128284Y-110087894D01*
X165054452Y-110086992D01*
X164910081Y-110085228D01*
X164910079Y-110085228D01*
X164904911Y-110085165D01*
X164684091Y-110118955D01*
X164471756Y-110188357D01*
X164273607Y-110291507D01*
X164269474Y-110294610D01*
X164269471Y-110294612D01*
X164245247Y-110312800D01*
X164094965Y-110425635D01*
X163940629Y-110587138D01*
X163814743Y-110771680D01*
X163720688Y-110974305D01*
X163660989Y-111189570D01*
X163637251Y-111411695D01*
X163637548Y-111416848D01*
X163637548Y-111416851D01*
X163643011Y-111511590D01*
X163650110Y-111634715D01*
X163651247Y-111639761D01*
X163651248Y-111639767D01*
X163671119Y-111727939D01*
X163699222Y-111852639D01*
X163783266Y-112059616D01*
X163899987Y-112250088D01*
X164046250Y-112418938D01*
X164218126Y-112561632D01*
X164258369Y-112585148D01*
X164291445Y-112604476D01*
X164340169Y-112656114D01*
X164353240Y-112725897D01*
X164326509Y-112791669D01*
X164286055Y-112825027D01*
X164273607Y-112831507D01*
X164269474Y-112834610D01*
X164269471Y-112834612D01*
X164099100Y-112962530D01*
X164094965Y-112965635D01*
X163940629Y-113127138D01*
X163937715Y-113131410D01*
X163937714Y-113131411D01*
X163925404Y-113149457D01*
X163814743Y-113311680D01*
X163720688Y-113514305D01*
X163660989Y-113729570D01*
X163637251Y-113951695D01*
X157926485Y-113951695D01*
X157410812Y-113436022D01*
X157396868Y-113428408D01*
X157395035Y-113428539D01*
X157388420Y-113432790D01*
X156710207Y-114111003D01*
X156703777Y-114122777D01*
X156000000Y-114122777D01*
X156000000Y-113639404D01*
X156020002Y-113571283D01*
X156073658Y-113524790D01*
X156143932Y-113514686D01*
X156208512Y-113544180D01*
X156240195Y-113586154D01*
X156291623Y-113696441D01*
X156297103Y-113705932D01*
X156327794Y-113749765D01*
X156338271Y-113758140D01*
X156351718Y-113751072D01*
X157025978Y-113076812D01*
X157032356Y-113065132D01*
X157762408Y-113065132D01*
X157762539Y-113066965D01*
X157766790Y-113073580D01*
X158445003Y-113751793D01*
X158456777Y-113758223D01*
X158468793Y-113748926D01*
X158498897Y-113705932D01*
X158504377Y-113696441D01*
X158593645Y-113505007D01*
X158597391Y-113494715D01*
X158652059Y-113290691D01*
X158653962Y-113279896D01*
X158672372Y-113069475D01*
X158672372Y-113058525D01*
X158653962Y-112848104D01*
X158652059Y-112837309D01*
X158597391Y-112633285D01*
X158593645Y-112622993D01*
X158504377Y-112431559D01*
X158498897Y-112422068D01*
X158468206Y-112378235D01*
X158457729Y-112369860D01*
X158444282Y-112376928D01*
X157770022Y-113051188D01*
X157762408Y-113065132D01*
X157032356Y-113065132D01*
X157033592Y-113062868D01*
X157033461Y-113061035D01*
X157029210Y-113054420D01*
X156350997Y-112376207D01*
X156339223Y-112369777D01*
X156327207Y-112379074D01*
X156297103Y-112422068D01*
X156291623Y-112431559D01*
X156240195Y-112541846D01*
X156193278Y-112595131D01*
X156125000Y-112614592D01*
X156057040Y-112594050D01*
X156010975Y-112540027D01*
X156000000Y-112488596D01*
X156000000Y-112004271D01*
X156703860Y-112004271D01*
X156710928Y-112017718D01*
X157385188Y-112691978D01*
X157399132Y-112699592D01*
X157400965Y-112699461D01*
X157407580Y-112695210D01*
X158085793Y-112016997D01*
X158092223Y-112005223D01*
X158082926Y-111993207D01*
X158039931Y-111963102D01*
X158030445Y-111957624D01*
X157839007Y-111868355D01*
X157828715Y-111864609D01*
X157624691Y-111809941D01*
X157613896Y-111808038D01*
X157403475Y-111789628D01*
X157392525Y-111789628D01*
X157182104Y-111808038D01*
X157171309Y-111809941D01*
X156967285Y-111864609D01*
X156956993Y-111868355D01*
X156765559Y-111957623D01*
X156756068Y-111963103D01*
X156712235Y-111993794D01*
X156703860Y-112004271D01*
X156000000Y-112004271D01*
X156000000Y-108126000D01*
X156020002Y-108057879D01*
X156073658Y-108011386D01*
X156126000Y-108000000D01*
X165000000Y-108000000D01*
X165000000Y-105230777D01*
X165020002Y-105162656D01*
X165073658Y-105116163D01*
X165099802Y-105107531D01*
X165157678Y-105095229D01*
X165219927Y-105081998D01*
X165219930Y-105081997D01*
X165226385Y-105080625D01*
X165306108Y-105045130D01*
X165391170Y-105007258D01*
X165391172Y-105007257D01*
X165397200Y-105004573D01*
X165402797Y-105000507D01*
X165543131Y-104898548D01*
X165548470Y-104894669D01*
X165554208Y-104888297D01*
X165669166Y-104760623D01*
X165669167Y-104760622D01*
X165673585Y-104755715D01*
X165697359Y-104714537D01*
X165751052Y-104621538D01*
X165802434Y-104572545D01*
X165872148Y-104559109D01*
X165938059Y-104585495D01*
X165979241Y-104643327D01*
X165984718Y-104701879D01*
X165984606Y-104702392D01*
X165984271Y-104706654D01*
X165984270Y-104706658D01*
X165969313Y-104896705D01*
X165962863Y-104978666D01*
X165978815Y-105255335D01*
X165979640Y-105259542D01*
X165979641Y-105259547D01*
X166012459Y-105426818D01*
X166032169Y-105527279D01*
X166033556Y-105531330D01*
X166059457Y-105606980D01*
X166121935Y-105789466D01*
X166123861Y-105793295D01*
X166224707Y-105993804D01*
X166246454Y-106037044D01*
X166283958Y-106091613D01*
X166381170Y-106233057D01*
X166403421Y-106265433D01*
X166589932Y-106470405D01*
X166593221Y-106473155D01*
X166799243Y-106645417D01*
X166799248Y-106645421D01*
X166802535Y-106648169D01*
X166856976Y-106682320D01*
X167033656Y-106793152D01*
X167033660Y-106793154D01*
X167037296Y-106795435D01*
X167289872Y-106909477D01*
X167293992Y-106910697D01*
X167293991Y-106910697D01*
X167551475Y-106986967D01*
X167551479Y-106986968D01*
X167555588Y-106988185D01*
X167559825Y-106988833D01*
X167559828Y-106988834D01*
X167788846Y-107023879D01*
X167829527Y-107030104D01*
X167970602Y-107032320D01*
X168102330Y-107034390D01*
X168102336Y-107034390D01*
X168106621Y-107034457D01*
X168381742Y-107001164D01*
X168649800Y-106930840D01*
X168905833Y-106824788D01*
X169145104Y-106684969D01*
X169363186Y-106513971D01*
X169402740Y-106473155D01*
X169553060Y-106318036D01*
X169556043Y-106314958D01*
X169558576Y-106311510D01*
X169558580Y-106311505D01*
X169717568Y-106095068D01*
X169720106Y-106091613D01*
X169812198Y-105922000D01*
X174566540Y-105922000D01*
X174586359Y-106237020D01*
X174645505Y-106547072D01*
X174743044Y-106847266D01*
X174744731Y-106850852D01*
X174744733Y-106850856D01*
X174875750Y-107129283D01*
X174875754Y-107129290D01*
X174877438Y-107132869D01*
X175046568Y-107399375D01*
X175247767Y-107642582D01*
X175477860Y-107858654D01*
X175733221Y-108044184D01*
X176009821Y-108196247D01*
X176013490Y-108197700D01*
X176013495Y-108197702D01*
X176088446Y-108227377D01*
X176303298Y-108312443D01*
X176609025Y-108390940D01*
X176922179Y-108430500D01*
X177237821Y-108430500D01*
X177550975Y-108390940D01*
X177856702Y-108312443D01*
X178071554Y-108227377D01*
X178146505Y-108197702D01*
X178146510Y-108197700D01*
X178150179Y-108196247D01*
X178426779Y-108044184D01*
X178682140Y-107858654D01*
X178912233Y-107642582D01*
X179113432Y-107399375D01*
X179282562Y-107132869D01*
X179284246Y-107129290D01*
X179284250Y-107129283D01*
X179415267Y-106850856D01*
X179415269Y-106850852D01*
X179416956Y-106847266D01*
X179514495Y-106547072D01*
X179573641Y-106237020D01*
X179593460Y-105922000D01*
X179573641Y-105606980D01*
X179514495Y-105296928D01*
X179422326Y-105013261D01*
X179418182Y-105000507D01*
X179418182Y-105000506D01*
X179416956Y-104996734D01*
X179373268Y-104903891D01*
X179284250Y-104714717D01*
X179284246Y-104714710D01*
X179282562Y-104711131D01*
X179113432Y-104444625D01*
X178912233Y-104201418D01*
X178905348Y-104194952D01*
X178784870Y-104081816D01*
X178682140Y-103985346D01*
X178426779Y-103799816D01*
X178313537Y-103737560D01*
X178153648Y-103649660D01*
X178153647Y-103649659D01*
X178150179Y-103647753D01*
X178146510Y-103646300D01*
X178146505Y-103646298D01*
X177860372Y-103533010D01*
X177860371Y-103533010D01*
X177856702Y-103531557D01*
X177550975Y-103453060D01*
X177237821Y-103413500D01*
X176922179Y-103413500D01*
X176609025Y-103453060D01*
X176303298Y-103531557D01*
X176299629Y-103533010D01*
X176299628Y-103533010D01*
X176013495Y-103646298D01*
X176013490Y-103646300D01*
X176009821Y-103647753D01*
X176006353Y-103649659D01*
X176006352Y-103649660D01*
X175846464Y-103737560D01*
X175733221Y-103799816D01*
X175477860Y-103985346D01*
X175375130Y-104081816D01*
X175254653Y-104194952D01*
X175247767Y-104201418D01*
X175046568Y-104444625D01*
X174877438Y-104711131D01*
X174875754Y-104714710D01*
X174875750Y-104714717D01*
X174786732Y-104903891D01*
X174743044Y-104996734D01*
X174741818Y-105000506D01*
X174741818Y-105000507D01*
X174737674Y-105013261D01*
X174645505Y-105296928D01*
X174586359Y-105606980D01*
X174566540Y-105922000D01*
X169812198Y-105922000D01*
X169814347Y-105918042D01*
X169850290Y-105851844D01*
X169850291Y-105851842D01*
X169852340Y-105848068D01*
X169950298Y-105588830D01*
X170012167Y-105318696D01*
X170036802Y-105042665D01*
X170037249Y-105000000D01*
X170035795Y-104978666D01*
X170018692Y-104727791D01*
X170018691Y-104727785D01*
X170018400Y-104723514D01*
X170015143Y-104707784D01*
X169987136Y-104572545D01*
X169962202Y-104452143D01*
X169869695Y-104190911D01*
X169751685Y-103962271D01*
X169744555Y-103948457D01*
X169744555Y-103948456D01*
X169742590Y-103944650D01*
X169704182Y-103890000D01*
X169585707Y-103721428D01*
X169585706Y-103721427D01*
X169583240Y-103717918D01*
X169394593Y-103514909D01*
X169373572Y-103497703D01*
X169270695Y-103413500D01*
X169180140Y-103339382D01*
X168943849Y-103194583D01*
X168939932Y-103192864D01*
X168939929Y-103192862D01*
X168828346Y-103143881D01*
X168690093Y-103083192D01*
X168685965Y-103082016D01*
X168685962Y-103082015D01*
X168603917Y-103058644D01*
X168423568Y-103007270D01*
X168419326Y-103006666D01*
X168419320Y-103006665D01*
X168153455Y-102968827D01*
X168149204Y-102968222D01*
X168003115Y-102967457D01*
X167876366Y-102966793D01*
X167876360Y-102966793D01*
X167872080Y-102966771D01*
X167867835Y-102967330D01*
X167867833Y-102967330D01*
X167856463Y-102968827D01*
X167597323Y-103002944D01*
X167330017Y-103076070D01*
X167326069Y-103077754D01*
X167079060Y-103183112D01*
X167079056Y-103183114D01*
X167075108Y-103184798D01*
X166962280Y-103252324D01*
X166840996Y-103324911D01*
X166840992Y-103324914D01*
X166837314Y-103327115D01*
X166621035Y-103500387D01*
X166430273Y-103701409D01*
X166268557Y-103926460D01*
X166138880Y-104171376D01*
X166119829Y-104223435D01*
X166084520Y-104319923D01*
X166042326Y-104377021D01*
X165975961Y-104402243D01*
X165906494Y-104387581D01*
X165855982Y-104337691D01*
X165840884Y-104263451D01*
X165843710Y-104236565D01*
X165844400Y-104230000D01*
X165824855Y-104044044D01*
X165767075Y-103866215D01*
X165727638Y-103797907D01*
X165676888Y-103710006D01*
X165673585Y-103704285D01*
X165668183Y-103698285D01*
X165552885Y-103570234D01*
X165552883Y-103570233D01*
X165548470Y-103565331D01*
X165500634Y-103530576D01*
X165402542Y-103459308D01*
X165402541Y-103459307D01*
X165397200Y-103455427D01*
X165391172Y-103452743D01*
X165391170Y-103452742D01*
X165232416Y-103382060D01*
X165232414Y-103382060D01*
X165226385Y-103379375D01*
X165219930Y-103378003D01*
X165219927Y-103378002D01*
X165152147Y-103363595D01*
X165099803Y-103352470D01*
X165037330Y-103318742D01*
X165003009Y-103256593D01*
X165000000Y-103229223D01*
X165000000Y-101350000D01*
X177074647Y-101350000D01*
X177094022Y-101571463D01*
X177121075Y-101672425D01*
X177143699Y-101756857D01*
X177151560Y-101786196D01*
X177153882Y-101791177D01*
X177153883Y-101791178D01*
X177243186Y-101982689D01*
X177243189Y-101982694D01*
X177245512Y-101987676D01*
X177248668Y-101992183D01*
X177248669Y-101992185D01*
X177357168Y-102147137D01*
X177373023Y-102169781D01*
X177530219Y-102326977D01*
X177534727Y-102330134D01*
X177534730Y-102330136D01*
X177601133Y-102376632D01*
X177712323Y-102454488D01*
X177717305Y-102456811D01*
X177717310Y-102456814D01*
X177820155Y-102504771D01*
X177913804Y-102548440D01*
X177919112Y-102549862D01*
X177919114Y-102549863D01*
X177984949Y-102567503D01*
X178128537Y-102605978D01*
X178350000Y-102625353D01*
X178571463Y-102605978D01*
X178715051Y-102567503D01*
X178780886Y-102549863D01*
X178780888Y-102549862D01*
X178786196Y-102548440D01*
X178879845Y-102504771D01*
X178982690Y-102456814D01*
X178982695Y-102456811D01*
X178987677Y-102454488D01*
X179098867Y-102376632D01*
X179165270Y-102330136D01*
X179165273Y-102330134D01*
X179169781Y-102326977D01*
X179326977Y-102169781D01*
X179342833Y-102147137D01*
X179451331Y-101992185D01*
X179451332Y-101992183D01*
X179454488Y-101987676D01*
X179456811Y-101982694D01*
X179456814Y-101982689D01*
X179546117Y-101791178D01*
X179546118Y-101791177D01*
X179548440Y-101786196D01*
X179556302Y-101756857D01*
X179578925Y-101672425D01*
X179605978Y-101571463D01*
X179625353Y-101350000D01*
X179614565Y-101226695D01*
X180637251Y-101226695D01*
X180637548Y-101231848D01*
X180637548Y-101231851D01*
X180644676Y-101355475D01*
X180650110Y-101449715D01*
X180651247Y-101454761D01*
X180651248Y-101454767D01*
X180658546Y-101487149D01*
X180699222Y-101667639D01*
X180783266Y-101874616D01*
X180899987Y-102065088D01*
X181046250Y-102233938D01*
X181050230Y-102237242D01*
X181054981Y-102241187D01*
X181094616Y-102300090D01*
X181096113Y-102371071D01*
X181058997Y-102431593D01*
X181018725Y-102456112D01*
X180922751Y-102492091D01*
X180903295Y-102499385D01*
X180786739Y-102586739D01*
X180699385Y-102703295D01*
X180648255Y-102839684D01*
X180641500Y-102901866D01*
X180641500Y-104698134D01*
X180648255Y-104760316D01*
X180699385Y-104896705D01*
X180786739Y-105013261D01*
X180903295Y-105100615D01*
X181039684Y-105151745D01*
X181101866Y-105158500D01*
X182898134Y-105158500D01*
X182960316Y-105151745D01*
X183096705Y-105100615D01*
X183213261Y-105013261D01*
X183300615Y-104896705D01*
X183351745Y-104760316D01*
X183358500Y-104698134D01*
X183358500Y-102901866D01*
X183351745Y-102839684D01*
X183300615Y-102703295D01*
X183213261Y-102586739D01*
X183096705Y-102499385D01*
X183084132Y-102494672D01*
X182978203Y-102454960D01*
X182921439Y-102412318D01*
X182896739Y-102345756D01*
X182911947Y-102276408D01*
X182933493Y-102247727D01*
X183034435Y-102147137D01*
X183038096Y-102143489D01*
X183097594Y-102060689D01*
X183165435Y-101966277D01*
X183168453Y-101962077D01*
X183267430Y-101761811D01*
X183332370Y-101548069D01*
X183361529Y-101326590D01*
X183363156Y-101260000D01*
X183344852Y-101037361D01*
X183290431Y-100820702D01*
X183201354Y-100615840D01*
X183080014Y-100428277D01*
X182929670Y-100263051D01*
X182925619Y-100259852D01*
X182925615Y-100259848D01*
X182758414Y-100127800D01*
X182758410Y-100127798D01*
X182754359Y-100124598D01*
X182713053Y-100101796D01*
X182663084Y-100051364D01*
X182648312Y-99981921D01*
X182673428Y-99915516D01*
X182700780Y-99888909D01*
X182744603Y-99857650D01*
X182879860Y-99761173D01*
X183038096Y-99603489D01*
X183097594Y-99520689D01*
X183165435Y-99426277D01*
X183168453Y-99422077D01*
X183267430Y-99221811D01*
X183332370Y-99008069D01*
X183361529Y-98786590D01*
X183363156Y-98720000D01*
X183344852Y-98497361D01*
X183290431Y-98280702D01*
X183201354Y-98075840D01*
X183161691Y-98014530D01*
X183082822Y-97892617D01*
X183082820Y-97892614D01*
X183080014Y-97888277D01*
X182929670Y-97723051D01*
X182925619Y-97719852D01*
X182925615Y-97719848D01*
X182758414Y-97587800D01*
X182758410Y-97587798D01*
X182754359Y-97584598D01*
X182713053Y-97561796D01*
X182663084Y-97511364D01*
X182648312Y-97441921D01*
X182673428Y-97375516D01*
X182700780Y-97348909D01*
X182744603Y-97317650D01*
X182879860Y-97221173D01*
X183038096Y-97063489D01*
X183097594Y-96980689D01*
X183165435Y-96886277D01*
X183168453Y-96882077D01*
X183267430Y-96681811D01*
X183332370Y-96468069D01*
X183361529Y-96246590D01*
X183363156Y-96180000D01*
X183344852Y-95957361D01*
X183290431Y-95740702D01*
X183201354Y-95535840D01*
X183080014Y-95348277D01*
X182929670Y-95183051D01*
X182925619Y-95179852D01*
X182925615Y-95179848D01*
X182758414Y-95047800D01*
X182758410Y-95047798D01*
X182754359Y-95044598D01*
X182558789Y-94936638D01*
X182553920Y-94934914D01*
X182553916Y-94934912D01*
X182353087Y-94863795D01*
X182353083Y-94863794D01*
X182348212Y-94862069D01*
X182343119Y-94861162D01*
X182343116Y-94861161D01*
X182133373Y-94823800D01*
X182133367Y-94823799D01*
X182128284Y-94822894D01*
X182054452Y-94821992D01*
X181910081Y-94820228D01*
X181910079Y-94820228D01*
X181904911Y-94820165D01*
X181684091Y-94853955D01*
X181471756Y-94923357D01*
X181273607Y-95026507D01*
X181269474Y-95029610D01*
X181269471Y-95029612D01*
X181156817Y-95114195D01*
X181094965Y-95160635D01*
X180940629Y-95322138D01*
X180814743Y-95506680D01*
X180720688Y-95709305D01*
X180660989Y-95924570D01*
X180637251Y-96146695D01*
X180637548Y-96151848D01*
X180637548Y-96151851D01*
X180644676Y-96275475D01*
X180650110Y-96369715D01*
X180651247Y-96374761D01*
X180651248Y-96374767D01*
X180671119Y-96462939D01*
X180699222Y-96587639D01*
X180783266Y-96794616D01*
X180899987Y-96985088D01*
X181046250Y-97153938D01*
X181218126Y-97296632D01*
X181288595Y-97337811D01*
X181291445Y-97339476D01*
X181340169Y-97391114D01*
X181353240Y-97460897D01*
X181326509Y-97526669D01*
X181286055Y-97560027D01*
X181273607Y-97566507D01*
X181269474Y-97569610D01*
X181269471Y-97569612D01*
X181167219Y-97646385D01*
X181094965Y-97700635D01*
X180940629Y-97862138D01*
X180814743Y-98046680D01*
X180720688Y-98249305D01*
X180660989Y-98464570D01*
X180637251Y-98686695D01*
X180637548Y-98691848D01*
X180637548Y-98691851D01*
X180647157Y-98858503D01*
X180650110Y-98909715D01*
X180651247Y-98914761D01*
X180651248Y-98914767D01*
X180671119Y-99002939D01*
X180699222Y-99127639D01*
X180783266Y-99334616D01*
X180899987Y-99525088D01*
X181046250Y-99693938D01*
X181218126Y-99836632D01*
X181288595Y-99877811D01*
X181291445Y-99879476D01*
X181340169Y-99931114D01*
X181353240Y-100000897D01*
X181326509Y-100066669D01*
X181286055Y-100100027D01*
X181273607Y-100106507D01*
X181269474Y-100109610D01*
X181269471Y-100109612D01*
X181156817Y-100194195D01*
X181094965Y-100240635D01*
X180940629Y-100402138D01*
X180814743Y-100586680D01*
X180720688Y-100789305D01*
X180660989Y-101004570D01*
X180637251Y-101226695D01*
X179614565Y-101226695D01*
X179605978Y-101128537D01*
X179548440Y-100913804D01*
X179488196Y-100784610D01*
X179456814Y-100717311D01*
X179456811Y-100717306D01*
X179454488Y-100712324D01*
X179451331Y-100707815D01*
X179330136Y-100534730D01*
X179330134Y-100534727D01*
X179326977Y-100530219D01*
X179169781Y-100373023D01*
X179165273Y-100369866D01*
X179165270Y-100369864D01*
X179012725Y-100263051D01*
X178987677Y-100245512D01*
X178982695Y-100243189D01*
X178982690Y-100243186D01*
X178877627Y-100194195D01*
X178824342Y-100147278D01*
X178804881Y-100079001D01*
X178825423Y-100011041D01*
X178877627Y-99965805D01*
X178982690Y-99916814D01*
X178982695Y-99916811D01*
X178987677Y-99914488D01*
X179103587Y-99833327D01*
X179165270Y-99790136D01*
X179165273Y-99790134D01*
X179169781Y-99786977D01*
X179326977Y-99629781D01*
X179342833Y-99607137D01*
X179451331Y-99452185D01*
X179451332Y-99452183D01*
X179454488Y-99447676D01*
X179456811Y-99442694D01*
X179456814Y-99442689D01*
X179546117Y-99251178D01*
X179546118Y-99251177D01*
X179548440Y-99246196D01*
X179556302Y-99216857D01*
X179578951Y-99132329D01*
X179605978Y-99031463D01*
X179625353Y-98810000D01*
X179605978Y-98588537D01*
X179548440Y-98373804D01*
X179488196Y-98244610D01*
X179456814Y-98177311D01*
X179456811Y-98177306D01*
X179454488Y-98172324D01*
X179414081Y-98114616D01*
X179330136Y-97994730D01*
X179330134Y-97994727D01*
X179326977Y-97990219D01*
X179169781Y-97833023D01*
X179165273Y-97829866D01*
X179165270Y-97829864D01*
X179012725Y-97723051D01*
X178987677Y-97705512D01*
X178982695Y-97703189D01*
X178982690Y-97703186D01*
X178877627Y-97654195D01*
X178824342Y-97607278D01*
X178804881Y-97539001D01*
X178825423Y-97471041D01*
X178877627Y-97425805D01*
X178982690Y-97376814D01*
X178982695Y-97376811D01*
X178987677Y-97374488D01*
X179103587Y-97293327D01*
X179165270Y-97250136D01*
X179165273Y-97250134D01*
X179169781Y-97246977D01*
X179326977Y-97089781D01*
X179342833Y-97067137D01*
X179451331Y-96912185D01*
X179451332Y-96912183D01*
X179454488Y-96907676D01*
X179456811Y-96902694D01*
X179456814Y-96902689D01*
X179546117Y-96711178D01*
X179546118Y-96711177D01*
X179548440Y-96706196D01*
X179556302Y-96676857D01*
X179578925Y-96592425D01*
X179605978Y-96491463D01*
X179625353Y-96270000D01*
X179605978Y-96048537D01*
X179548440Y-95833804D01*
X179488196Y-95704610D01*
X179456814Y-95637311D01*
X179456811Y-95637306D01*
X179454488Y-95632324D01*
X179439196Y-95610484D01*
X179330136Y-95454730D01*
X179330134Y-95454727D01*
X179326977Y-95450219D01*
X179169781Y-95293023D01*
X179165273Y-95289866D01*
X179165270Y-95289864D01*
X179012725Y-95183051D01*
X178987677Y-95165512D01*
X178982695Y-95163189D01*
X178982690Y-95163186D01*
X178877627Y-95114195D01*
X178824342Y-95067278D01*
X178804881Y-94999001D01*
X178825423Y-94931041D01*
X178877627Y-94885805D01*
X178982690Y-94836814D01*
X178982695Y-94836811D01*
X178987677Y-94834488D01*
X179089505Y-94763187D01*
X179165270Y-94710136D01*
X179165273Y-94710134D01*
X179169781Y-94706977D01*
X179326977Y-94549781D01*
X179454488Y-94367676D01*
X179456811Y-94362694D01*
X179456814Y-94362689D01*
X179546117Y-94171178D01*
X179546118Y-94171177D01*
X179548440Y-94166196D01*
X179605978Y-93951463D01*
X179625353Y-93730000D01*
X179605978Y-93508537D01*
X179548440Y-93293804D01*
X179496539Y-93182502D01*
X179456814Y-93097311D01*
X179456811Y-93097306D01*
X179454488Y-93092324D01*
X179326977Y-92910219D01*
X179169781Y-92753023D01*
X179165273Y-92749866D01*
X179165270Y-92749864D01*
X179089505Y-92696813D01*
X178987677Y-92625512D01*
X178982695Y-92623189D01*
X178982690Y-92623186D01*
X178877627Y-92574195D01*
X178824342Y-92527278D01*
X178804881Y-92459001D01*
X178825423Y-92391041D01*
X178877627Y-92345805D01*
X178982690Y-92296814D01*
X178982695Y-92296811D01*
X178987677Y-92294488D01*
X179089505Y-92223187D01*
X179165270Y-92170136D01*
X179165273Y-92170134D01*
X179169781Y-92166977D01*
X179326977Y-92009781D01*
X179454488Y-91827676D01*
X179456811Y-91822694D01*
X179456814Y-91822689D01*
X179546117Y-91631178D01*
X179546118Y-91631177D01*
X179548440Y-91626196D01*
X179605978Y-91411463D01*
X179625353Y-91190000D01*
X179605978Y-90968537D01*
X179548440Y-90753804D01*
X179540232Y-90736201D01*
X179456814Y-90557311D01*
X179456811Y-90557306D01*
X179454488Y-90552324D01*
X179451331Y-90547815D01*
X179330136Y-90374730D01*
X179330134Y-90374727D01*
X179326977Y-90370219D01*
X179169781Y-90213023D01*
X179165273Y-90209866D01*
X179165270Y-90209864D01*
X179064625Y-90139392D01*
X178987677Y-90085512D01*
X178982695Y-90083189D01*
X178982690Y-90083186D01*
X178877627Y-90034195D01*
X178824342Y-89987278D01*
X178804881Y-89919001D01*
X178825423Y-89851041D01*
X178877627Y-89805805D01*
X178982690Y-89756814D01*
X178982695Y-89756811D01*
X178987677Y-89754488D01*
X179128025Y-89656215D01*
X179165270Y-89630136D01*
X179165273Y-89630134D01*
X179169781Y-89626977D01*
X179326977Y-89469781D01*
X179454488Y-89287676D01*
X179456811Y-89282694D01*
X179456814Y-89282689D01*
X179546117Y-89091178D01*
X179546118Y-89091177D01*
X179548440Y-89086196D01*
X179605978Y-88871463D01*
X179625353Y-88650000D01*
X179605978Y-88428537D01*
X179548440Y-88213804D01*
X179546117Y-88208822D01*
X179456814Y-88017311D01*
X179456811Y-88017306D01*
X179454488Y-88012324D01*
X179326977Y-87830219D01*
X179169781Y-87673023D01*
X179165273Y-87669866D01*
X179165270Y-87669864D01*
X179089505Y-87616813D01*
X178987677Y-87545512D01*
X178982695Y-87543189D01*
X178982690Y-87543186D01*
X178791178Y-87453883D01*
X178791177Y-87453882D01*
X178786196Y-87451560D01*
X178780888Y-87450138D01*
X178780886Y-87450137D01*
X178715051Y-87432497D01*
X178571463Y-87394022D01*
X178350000Y-87374647D01*
X178128537Y-87394022D01*
X177984949Y-87432497D01*
X177919114Y-87450137D01*
X177919112Y-87450138D01*
X177913804Y-87451560D01*
X177908823Y-87453882D01*
X177908822Y-87453883D01*
X177717311Y-87543186D01*
X177717306Y-87543189D01*
X177712324Y-87545512D01*
X177707817Y-87548668D01*
X177707815Y-87548669D01*
X177534730Y-87669864D01*
X177534727Y-87669866D01*
X177530219Y-87673023D01*
X177373023Y-87830219D01*
X177245512Y-88012324D01*
X177243189Y-88017306D01*
X177243186Y-88017311D01*
X177153883Y-88208822D01*
X177151560Y-88213804D01*
X177094022Y-88428537D01*
X177074647Y-88650000D01*
X177094022Y-88871463D01*
X177151560Y-89086196D01*
X177153882Y-89091177D01*
X177153883Y-89091178D01*
X177243186Y-89282689D01*
X177243189Y-89282694D01*
X177245512Y-89287676D01*
X177373023Y-89469781D01*
X177530219Y-89626977D01*
X177534727Y-89630134D01*
X177534730Y-89630136D01*
X177571975Y-89656215D01*
X177712323Y-89754488D01*
X177717305Y-89756811D01*
X177717310Y-89756814D01*
X177822373Y-89805805D01*
X177875658Y-89852722D01*
X177895119Y-89920999D01*
X177874577Y-89988959D01*
X177822373Y-90034195D01*
X177717311Y-90083186D01*
X177717306Y-90083189D01*
X177712324Y-90085512D01*
X177707817Y-90088668D01*
X177707815Y-90088669D01*
X177534730Y-90209864D01*
X177534727Y-90209866D01*
X177530219Y-90213023D01*
X177373023Y-90370219D01*
X177369866Y-90374727D01*
X177369864Y-90374730D01*
X177248669Y-90547815D01*
X177245512Y-90552324D01*
X177243189Y-90557306D01*
X177243186Y-90557311D01*
X177159768Y-90736201D01*
X177151560Y-90753804D01*
X177094022Y-90968537D01*
X177074647Y-91190000D01*
X177094022Y-91411463D01*
X177151560Y-91626196D01*
X177153882Y-91631177D01*
X177153883Y-91631178D01*
X177243186Y-91822689D01*
X177243189Y-91822694D01*
X177245512Y-91827676D01*
X177373023Y-92009781D01*
X177530219Y-92166977D01*
X177534727Y-92170134D01*
X177534730Y-92170136D01*
X177610495Y-92223187D01*
X177712323Y-92294488D01*
X177717305Y-92296811D01*
X177717310Y-92296814D01*
X177822373Y-92345805D01*
X177875658Y-92392722D01*
X177895119Y-92460999D01*
X177874577Y-92528959D01*
X177822373Y-92574195D01*
X177717311Y-92623186D01*
X177717306Y-92623189D01*
X177712324Y-92625512D01*
X177707817Y-92628668D01*
X177707815Y-92628669D01*
X177534730Y-92749864D01*
X177534727Y-92749866D01*
X177530219Y-92753023D01*
X177373023Y-92910219D01*
X177245512Y-93092324D01*
X177243189Y-93097306D01*
X177243186Y-93097311D01*
X177203461Y-93182502D01*
X177151560Y-93293804D01*
X177094022Y-93508537D01*
X177074647Y-93730000D01*
X177094022Y-93951463D01*
X177151560Y-94166196D01*
X177153882Y-94171177D01*
X177153883Y-94171178D01*
X177243186Y-94362689D01*
X177243189Y-94362694D01*
X177245512Y-94367676D01*
X177373023Y-94549781D01*
X177530219Y-94706977D01*
X177534727Y-94710134D01*
X177534730Y-94710136D01*
X177610495Y-94763187D01*
X177712323Y-94834488D01*
X177717305Y-94836811D01*
X177717310Y-94836814D01*
X177822373Y-94885805D01*
X177875658Y-94932722D01*
X177895119Y-95000999D01*
X177874577Y-95068959D01*
X177822373Y-95114195D01*
X177717311Y-95163186D01*
X177717306Y-95163189D01*
X177712324Y-95165512D01*
X177707817Y-95168668D01*
X177707815Y-95168669D01*
X177534730Y-95289864D01*
X177534727Y-95289866D01*
X177530219Y-95293023D01*
X177373023Y-95450219D01*
X177369866Y-95454727D01*
X177369864Y-95454730D01*
X177260804Y-95610484D01*
X177245512Y-95632324D01*
X177243189Y-95637306D01*
X177243186Y-95637311D01*
X177211804Y-95704610D01*
X177151560Y-95833804D01*
X177094022Y-96048537D01*
X177074647Y-96270000D01*
X177094022Y-96491463D01*
X177121075Y-96592425D01*
X177143699Y-96676857D01*
X177151560Y-96706196D01*
X177153882Y-96711177D01*
X177153883Y-96711178D01*
X177243186Y-96902689D01*
X177243189Y-96902694D01*
X177245512Y-96907676D01*
X177248668Y-96912183D01*
X177248669Y-96912185D01*
X177357168Y-97067137D01*
X177373023Y-97089781D01*
X177530219Y-97246977D01*
X177534727Y-97250134D01*
X177534730Y-97250136D01*
X177596413Y-97293327D01*
X177712323Y-97374488D01*
X177717305Y-97376811D01*
X177717310Y-97376814D01*
X177822373Y-97425805D01*
X177875658Y-97472722D01*
X177895119Y-97540999D01*
X177874577Y-97608959D01*
X177822373Y-97654195D01*
X177717311Y-97703186D01*
X177717306Y-97703189D01*
X177712324Y-97705512D01*
X177707817Y-97708668D01*
X177707815Y-97708669D01*
X177534730Y-97829864D01*
X177534727Y-97829866D01*
X177530219Y-97833023D01*
X177373023Y-97990219D01*
X177369866Y-97994727D01*
X177369864Y-97994730D01*
X177285919Y-98114616D01*
X177245512Y-98172324D01*
X177243189Y-98177306D01*
X177243186Y-98177311D01*
X177211804Y-98244610D01*
X177151560Y-98373804D01*
X177094022Y-98588537D01*
X177074647Y-98810000D01*
X177094022Y-99031463D01*
X177121049Y-99132329D01*
X177143699Y-99216857D01*
X177151560Y-99246196D01*
X177153882Y-99251177D01*
X177153883Y-99251178D01*
X177243186Y-99442689D01*
X177243189Y-99442694D01*
X177245512Y-99447676D01*
X177248668Y-99452183D01*
X177248669Y-99452185D01*
X177357168Y-99607137D01*
X177373023Y-99629781D01*
X177530219Y-99786977D01*
X177534727Y-99790134D01*
X177534730Y-99790136D01*
X177596413Y-99833327D01*
X177712323Y-99914488D01*
X177717305Y-99916811D01*
X177717310Y-99916814D01*
X177822373Y-99965805D01*
X177875658Y-100012722D01*
X177895119Y-100080999D01*
X177874577Y-100148959D01*
X177822373Y-100194195D01*
X177717311Y-100243186D01*
X177717306Y-100243189D01*
X177712324Y-100245512D01*
X177707817Y-100248668D01*
X177707815Y-100248669D01*
X177534730Y-100369864D01*
X177534727Y-100369866D01*
X177530219Y-100373023D01*
X177373023Y-100530219D01*
X177369866Y-100534727D01*
X177369864Y-100534730D01*
X177248669Y-100707815D01*
X177245512Y-100712324D01*
X177243189Y-100717306D01*
X177243186Y-100717311D01*
X177211804Y-100784610D01*
X177151560Y-100913804D01*
X177094022Y-101128537D01*
X177074647Y-101350000D01*
X165000000Y-101350000D01*
X165000000Y-90845320D01*
X165020002Y-90777199D01*
X165062524Y-90736655D01*
X165067200Y-90734573D01*
X165218470Y-90624669D01*
X165343585Y-90485715D01*
X165407662Y-90374730D01*
X165433771Y-90329508D01*
X165433772Y-90329507D01*
X165437075Y-90323785D01*
X165461139Y-90249722D01*
X165492815Y-90152235D01*
X165492815Y-90152234D01*
X165494855Y-90145956D01*
X165501453Y-90083186D01*
X165513710Y-89966565D01*
X165514400Y-89960000D01*
X165503282Y-89854218D01*
X165495545Y-89780608D01*
X165495545Y-89780607D01*
X165494855Y-89774044D01*
X165487376Y-89751024D01*
X165439117Y-89602500D01*
X165437075Y-89596215D01*
X165366329Y-89473678D01*
X165346888Y-89440006D01*
X165343585Y-89434285D01*
X165339166Y-89429377D01*
X165222885Y-89300234D01*
X165222883Y-89300233D01*
X165218470Y-89295331D01*
X165067200Y-89185427D01*
X165062599Y-89183379D01*
X165014007Y-89132416D01*
X165000000Y-89074680D01*
X165000000Y-85000000D01*
X166794647Y-85000000D01*
X166814022Y-85221463D01*
X166871560Y-85436196D01*
X166873882Y-85441177D01*
X166873883Y-85441178D01*
X166963186Y-85632689D01*
X166963189Y-85632694D01*
X166965512Y-85637676D01*
X166968668Y-85642183D01*
X166968669Y-85642185D01*
X167005107Y-85694223D01*
X167093023Y-85819781D01*
X167250219Y-85976977D01*
X167254727Y-85980134D01*
X167254730Y-85980136D01*
X167300155Y-86011943D01*
X167432323Y-86104488D01*
X167437305Y-86106811D01*
X167437310Y-86106814D01*
X167627810Y-86195645D01*
X167633804Y-86198440D01*
X167639112Y-86199862D01*
X167639114Y-86199863D01*
X167704949Y-86217503D01*
X167848537Y-86255978D01*
X168070000Y-86275353D01*
X168291463Y-86255978D01*
X168435051Y-86217503D01*
X168500886Y-86199863D01*
X168500888Y-86199862D01*
X168506196Y-86198440D01*
X168512190Y-86195645D01*
X168702690Y-86106814D01*
X168702695Y-86106811D01*
X168707677Y-86104488D01*
X168772959Y-86058777D01*
X170875777Y-86058777D01*
X170885074Y-86070793D01*
X170928069Y-86100898D01*
X170937555Y-86106376D01*
X171128993Y-86195645D01*
X171139285Y-86199391D01*
X171343309Y-86254059D01*
X171354104Y-86255962D01*
X171564525Y-86274372D01*
X171575475Y-86274372D01*
X171785896Y-86255962D01*
X171796691Y-86254059D01*
X172000715Y-86199391D01*
X172011007Y-86195645D01*
X172202445Y-86106376D01*
X172211931Y-86100898D01*
X172255764Y-86070207D01*
X172264139Y-86059729D01*
X172257071Y-86046281D01*
X171582812Y-85372022D01*
X171568868Y-85364408D01*
X171567035Y-85364539D01*
X171560420Y-85368790D01*
X170882207Y-86047003D01*
X170875777Y-86058777D01*
X168772959Y-86058777D01*
X168839845Y-86011943D01*
X168885270Y-85980136D01*
X168885273Y-85980134D01*
X168889781Y-85976977D01*
X169046977Y-85819781D01*
X169134894Y-85694223D01*
X169171331Y-85642185D01*
X169171332Y-85642183D01*
X169174488Y-85637676D01*
X169176811Y-85632694D01*
X169176814Y-85632689D01*
X169266117Y-85441178D01*
X169266118Y-85441177D01*
X169268440Y-85436196D01*
X169325978Y-85221463D01*
X169344874Y-85005475D01*
X170295628Y-85005475D01*
X170314038Y-85215896D01*
X170315941Y-85226691D01*
X170370609Y-85430715D01*
X170374355Y-85441007D01*
X170463623Y-85632441D01*
X170469103Y-85641932D01*
X170499794Y-85685765D01*
X170510271Y-85694140D01*
X170523718Y-85687072D01*
X171197978Y-85012812D01*
X171204356Y-85001132D01*
X171934408Y-85001132D01*
X171934539Y-85002965D01*
X171938790Y-85009580D01*
X172617003Y-85687793D01*
X172628777Y-85694223D01*
X172640793Y-85684926D01*
X172670897Y-85641932D01*
X172676377Y-85632441D01*
X172765645Y-85441007D01*
X172769391Y-85430715D01*
X172824059Y-85226691D01*
X172825962Y-85215896D01*
X172844372Y-85005475D01*
X172844372Y-84994525D01*
X172825962Y-84784104D01*
X172824059Y-84773309D01*
X172769391Y-84569285D01*
X172765645Y-84558993D01*
X172676377Y-84367559D01*
X172670897Y-84358068D01*
X172640206Y-84314235D01*
X172629729Y-84305860D01*
X172616282Y-84312928D01*
X171942022Y-84987188D01*
X171934408Y-85001132D01*
X171204356Y-85001132D01*
X171205592Y-84998868D01*
X171205461Y-84997035D01*
X171201210Y-84990420D01*
X170522997Y-84312207D01*
X170511223Y-84305777D01*
X170499207Y-84315074D01*
X170469103Y-84358068D01*
X170463623Y-84367559D01*
X170374355Y-84558993D01*
X170370609Y-84569285D01*
X170315941Y-84773309D01*
X170314038Y-84784104D01*
X170295628Y-84994525D01*
X170295628Y-85005475D01*
X169344874Y-85005475D01*
X169345353Y-85000000D01*
X169325978Y-84778537D01*
X169268440Y-84563804D01*
X169265743Y-84558021D01*
X169176814Y-84367311D01*
X169176811Y-84367306D01*
X169174488Y-84362324D01*
X169171331Y-84357815D01*
X169050136Y-84184730D01*
X169050134Y-84184727D01*
X169046977Y-84180219D01*
X168889781Y-84023023D01*
X168885273Y-84019866D01*
X168885270Y-84019864D01*
X168809505Y-83966813D01*
X168771599Y-83940271D01*
X170875860Y-83940271D01*
X170882928Y-83953718D01*
X171557188Y-84627978D01*
X171571132Y-84635592D01*
X171572965Y-84635461D01*
X171579580Y-84631210D01*
X172132790Y-84078000D01*
X174566540Y-84078000D01*
X174586359Y-84393020D01*
X174645505Y-84703072D01*
X174743044Y-85003266D01*
X174744731Y-85006852D01*
X174744733Y-85006856D01*
X174875750Y-85285283D01*
X174875754Y-85285290D01*
X174877438Y-85288869D01*
X175046568Y-85555375D01*
X175247767Y-85798582D01*
X175477860Y-86014654D01*
X175733221Y-86200184D01*
X175736690Y-86202091D01*
X175736693Y-86202093D01*
X175869081Y-86274874D01*
X176009821Y-86352247D01*
X176013490Y-86353700D01*
X176013495Y-86353702D01*
X176299628Y-86466990D01*
X176303298Y-86468443D01*
X176609025Y-86546940D01*
X176922179Y-86586500D01*
X177237821Y-86586500D01*
X177550975Y-86546940D01*
X177856702Y-86468443D01*
X177860372Y-86466990D01*
X178146505Y-86353702D01*
X178146510Y-86353700D01*
X178150179Y-86352247D01*
X178290919Y-86274874D01*
X178423307Y-86202093D01*
X178423310Y-86202091D01*
X178426779Y-86200184D01*
X178682140Y-86014654D01*
X178912233Y-85798582D01*
X179113432Y-85555375D01*
X179282562Y-85288869D01*
X179284246Y-85285290D01*
X179284250Y-85285283D01*
X179415267Y-85006856D01*
X179415269Y-85006852D01*
X179416956Y-85003266D01*
X179514495Y-84703072D01*
X179573641Y-84393020D01*
X179593460Y-84078000D01*
X179573641Y-83762980D01*
X179514495Y-83452928D01*
X179416956Y-83152734D01*
X179415267Y-83149144D01*
X179284250Y-82870717D01*
X179284246Y-82870710D01*
X179282562Y-82867131D01*
X179113432Y-82600625D01*
X178912233Y-82357418D01*
X178682140Y-82141346D01*
X178426779Y-81955816D01*
X178150179Y-81803753D01*
X178146510Y-81802300D01*
X178146505Y-81802298D01*
X177860372Y-81689010D01*
X177860371Y-81689010D01*
X177856702Y-81687557D01*
X177550975Y-81609060D01*
X177237821Y-81569500D01*
X176922179Y-81569500D01*
X176609025Y-81609060D01*
X176303298Y-81687557D01*
X176299629Y-81689010D01*
X176299628Y-81689010D01*
X176013495Y-81802298D01*
X176013490Y-81802300D01*
X176009821Y-81803753D01*
X175733221Y-81955816D01*
X175477860Y-82141346D01*
X175247767Y-82357418D01*
X175046568Y-82600625D01*
X174877438Y-82867131D01*
X174875754Y-82870710D01*
X174875750Y-82870717D01*
X174744733Y-83149144D01*
X174743044Y-83152734D01*
X174645505Y-83452928D01*
X174586359Y-83762980D01*
X174566540Y-84078000D01*
X172132790Y-84078000D01*
X172257793Y-83952997D01*
X172264223Y-83941223D01*
X172254926Y-83929207D01*
X172211931Y-83899102D01*
X172202445Y-83893624D01*
X172011007Y-83804355D01*
X172000715Y-83800609D01*
X171796691Y-83745941D01*
X171785896Y-83744038D01*
X171575475Y-83725628D01*
X171564525Y-83725628D01*
X171354104Y-83744038D01*
X171343309Y-83745941D01*
X171139285Y-83800609D01*
X171128993Y-83804355D01*
X170937559Y-83893623D01*
X170928068Y-83899103D01*
X170884235Y-83929794D01*
X170875860Y-83940271D01*
X168771599Y-83940271D01*
X168707677Y-83895512D01*
X168702695Y-83893189D01*
X168702690Y-83893186D01*
X168511178Y-83803883D01*
X168511177Y-83803882D01*
X168506196Y-83801560D01*
X168500888Y-83800138D01*
X168500886Y-83800137D01*
X168435051Y-83782497D01*
X168291463Y-83744022D01*
X168070000Y-83724647D01*
X167848537Y-83744022D01*
X167704949Y-83782497D01*
X167639114Y-83800137D01*
X167639112Y-83800138D01*
X167633804Y-83801560D01*
X167628823Y-83803882D01*
X167628822Y-83803883D01*
X167437311Y-83893186D01*
X167437306Y-83893189D01*
X167432324Y-83895512D01*
X167427817Y-83898668D01*
X167427815Y-83898669D01*
X167254730Y-84019864D01*
X167254727Y-84019866D01*
X167250219Y-84023023D01*
X167093023Y-84180219D01*
X167089866Y-84184727D01*
X167089864Y-84184730D01*
X166968669Y-84357815D01*
X166965512Y-84362324D01*
X166963189Y-84367306D01*
X166963186Y-84367311D01*
X166874257Y-84558021D01*
X166871560Y-84563804D01*
X166814022Y-84778537D01*
X166794647Y-85000000D01*
X165000000Y-85000000D01*
X163763790Y-85000000D01*
X163710541Y-84988195D01*
X163637035Y-84953919D01*
X163583750Y-84907002D01*
X163564289Y-84838724D01*
X163584831Y-84770764D01*
X163637035Y-84725529D01*
X163742445Y-84676376D01*
X163751931Y-84670898D01*
X163795764Y-84640207D01*
X163804139Y-84629729D01*
X163797071Y-84616281D01*
X163122812Y-83942022D01*
X163108868Y-83934408D01*
X163107035Y-83934539D01*
X163100420Y-83938790D01*
X162422207Y-84617003D01*
X162415777Y-84628777D01*
X162425074Y-84640793D01*
X162468069Y-84670898D01*
X162477555Y-84676376D01*
X162582965Y-84725529D01*
X162636250Y-84772446D01*
X162655711Y-84840723D01*
X162635169Y-84908683D01*
X162582965Y-84953919D01*
X162509460Y-84988195D01*
X162456210Y-85000000D01*
X161126000Y-85000000D01*
X161057879Y-84979998D01*
X161011386Y-84926342D01*
X161000000Y-84874000D01*
X161000000Y-83575475D01*
X161835628Y-83575475D01*
X161854038Y-83785896D01*
X161855941Y-83796691D01*
X161910609Y-84000715D01*
X161914355Y-84011007D01*
X162003623Y-84202441D01*
X162009103Y-84211932D01*
X162039794Y-84255765D01*
X162050271Y-84264140D01*
X162063718Y-84257072D01*
X162737978Y-83582812D01*
X162744356Y-83571132D01*
X163474408Y-83571132D01*
X163474539Y-83572965D01*
X163478790Y-83579580D01*
X164157003Y-84257793D01*
X164168777Y-84264223D01*
X164180793Y-84254926D01*
X164210897Y-84211932D01*
X164216377Y-84202441D01*
X164305645Y-84011007D01*
X164309391Y-84000715D01*
X164364059Y-83796691D01*
X164365962Y-83785896D01*
X164384372Y-83575475D01*
X164384372Y-83564525D01*
X164365962Y-83354104D01*
X164364059Y-83343309D01*
X164309391Y-83139285D01*
X164305645Y-83128993D01*
X164216377Y-82937559D01*
X164210897Y-82928068D01*
X164180206Y-82884235D01*
X164169729Y-82875860D01*
X164156282Y-82882928D01*
X163482022Y-83557188D01*
X163474408Y-83571132D01*
X162744356Y-83571132D01*
X162745592Y-83568868D01*
X162745461Y-83567035D01*
X162741210Y-83560420D01*
X162062997Y-82882207D01*
X162051223Y-82875777D01*
X162039207Y-82885074D01*
X162009103Y-82928068D01*
X162003623Y-82937559D01*
X161914355Y-83128993D01*
X161910609Y-83139285D01*
X161855941Y-83343309D01*
X161854038Y-83354104D01*
X161835628Y-83564525D01*
X161835628Y-83575475D01*
X161000000Y-83575475D01*
X161000000Y-82510271D01*
X162415860Y-82510271D01*
X162422928Y-82523718D01*
X163097188Y-83197978D01*
X163111132Y-83205592D01*
X163112965Y-83205461D01*
X163119580Y-83201210D01*
X163797793Y-82522997D01*
X163804223Y-82511223D01*
X163794926Y-82499207D01*
X163751931Y-82469102D01*
X163742445Y-82463624D01*
X163551007Y-82374355D01*
X163540715Y-82370609D01*
X163336691Y-82315941D01*
X163325896Y-82314038D01*
X163115475Y-82295628D01*
X163104525Y-82295628D01*
X162894104Y-82314038D01*
X162883309Y-82315941D01*
X162679285Y-82370609D01*
X162668993Y-82374355D01*
X162477559Y-82463623D01*
X162468068Y-82469103D01*
X162424235Y-82499794D01*
X162415860Y-82510271D01*
X161000000Y-82510271D01*
X161000000Y-81126000D01*
X161020002Y-81057879D01*
X161073658Y-81011386D01*
X161126000Y-81000000D01*
X178712986Y-81000000D01*
X178781107Y-81020002D01*
G37*
G04 #@! TD.AperFunction*
G04 #@! TD*
M02*
