G04 #@! TF.GenerationSoftware,KiCad,Pcbnew,6.0.9-8da3e8f707~117~ubuntu22.04.1*
G04 #@! TF.CreationDate,2022-12-19T13:51:41+00:00*
G04 #@! TF.ProjectId,gauge_servo,67617567-655f-4736-9572-766f2e6b6963,rev?*
G04 #@! TF.SameCoordinates,Original*
G04 #@! TF.FileFunction,Copper,L1,Top*
G04 #@! TF.FilePolarity,Positive*
%FSLAX46Y46*%
G04 Gerber Fmt 4.6, Leading zero omitted, Abs format (unit mm)*
G04 Created by KiCad (PCBNEW 6.0.9-8da3e8f707~117~ubuntu22.04.1) date 2022-12-19 13:51:41*
%MOMM*%
%LPD*%
G01*
G04 APERTURE LIST*
G04 Aperture macros list*
%AMRoundRect*
0 Rectangle with rounded corners*
0 $1 Rounding radius*
0 $2 $3 $4 $5 $6 $7 $8 $9 X,Y pos of 4 corners*
0 Add a 4 corners polygon primitive as box body*
4,1,4,$2,$3,$4,$5,$6,$7,$8,$9,$2,$3,0*
0 Add four circle primitives for the rounded corners*
1,1,$1+$1,$2,$3*
1,1,$1+$1,$4,$5*
1,1,$1+$1,$6,$7*
1,1,$1+$1,$8,$9*
0 Add four rect primitives between the rounded corners*
20,1,$1+$1,$2,$3,$4,$5,0*
20,1,$1+$1,$4,$5,$6,$7,0*
20,1,$1+$1,$6,$7,$8,$9,0*
20,1,$1+$1,$8,$9,$2,$3,0*%
G04 Aperture macros list end*
G04 #@! TA.AperFunction,SMDPad,CuDef*
%ADD10RoundRect,0.150000X0.587500X0.150000X-0.587500X0.150000X-0.587500X-0.150000X0.587500X-0.150000X0*%
G04 #@! TD*
G04 #@! TA.AperFunction,ComponentPad*
%ADD11R,1.700000X1.700000*%
G04 #@! TD*
G04 #@! TA.AperFunction,ComponentPad*
%ADD12O,1.700000X1.700000*%
G04 #@! TD*
G04 #@! TA.AperFunction,SMDPad,CuDef*
%ADD13R,2.000000X1.500000*%
G04 #@! TD*
G04 #@! TA.AperFunction,SMDPad,CuDef*
%ADD14R,2.000000X3.800000*%
G04 #@! TD*
G04 #@! TA.AperFunction,SMDPad,CuDef*
%ADD15RoundRect,0.250000X-0.650000X0.325000X-0.650000X-0.325000X0.650000X-0.325000X0.650000X0.325000X0*%
G04 #@! TD*
G04 #@! TA.AperFunction,ComponentPad*
%ADD16C,1.524000*%
G04 #@! TD*
G04 #@! TA.AperFunction,SMDPad,CuDef*
%ADD17RoundRect,0.200000X0.275000X-0.200000X0.275000X0.200000X-0.275000X0.200000X-0.275000X-0.200000X0*%
G04 #@! TD*
G04 #@! TA.AperFunction,SMDPad,CuDef*
%ADD18RoundRect,0.237500X0.250000X0.237500X-0.250000X0.237500X-0.250000X-0.237500X0.250000X-0.237500X0*%
G04 #@! TD*
G04 #@! TA.AperFunction,ComponentPad*
%ADD19C,5.600000*%
G04 #@! TD*
G04 #@! TA.AperFunction,SMDPad,CuDef*
%ADD20RoundRect,0.250000X0.650000X-0.325000X0.650000X0.325000X-0.650000X0.325000X-0.650000X-0.325000X0*%
G04 #@! TD*
G04 #@! TA.AperFunction,SMDPad,CuDef*
%ADD21RoundRect,0.200000X-0.200000X-0.275000X0.200000X-0.275000X0.200000X0.275000X-0.200000X0.275000X0*%
G04 #@! TD*
G04 #@! TA.AperFunction,SMDPad,CuDef*
%ADD22R,1.500000X0.900000*%
G04 #@! TD*
G04 #@! TA.AperFunction,SMDPad,CuDef*
%ADD23R,0.900000X1.500000*%
G04 #@! TD*
G04 #@! TA.AperFunction,ComponentPad*
%ADD24C,0.475000*%
G04 #@! TD*
G04 #@! TA.AperFunction,SMDPad,CuDef*
%ADD25R,1.050000X1.050000*%
G04 #@! TD*
G04 #@! TA.AperFunction,SMDPad,CuDef*
%ADD26R,4.200000X4.200000*%
G04 #@! TD*
G04 #@! TA.AperFunction,SMDPad,CuDef*
%ADD27RoundRect,0.250000X0.325000X0.650000X-0.325000X0.650000X-0.325000X-0.650000X0.325000X-0.650000X0*%
G04 #@! TD*
G04 #@! TA.AperFunction,SMDPad,CuDef*
%ADD28RoundRect,0.225000X0.250000X-0.225000X0.250000X0.225000X-0.250000X0.225000X-0.250000X-0.225000X0*%
G04 #@! TD*
G04 #@! TA.AperFunction,ComponentPad*
%ADD29C,4.000000*%
G04 #@! TD*
G04 #@! TA.AperFunction,SMDPad,CuDef*
%ADD30RoundRect,0.225000X0.225000X0.250000X-0.225000X0.250000X-0.225000X-0.250000X0.225000X-0.250000X0*%
G04 #@! TD*
G04 #@! TA.AperFunction,ViaPad*
%ADD31C,3.048000*%
G04 #@! TD*
G04 #@! TA.AperFunction,ViaPad*
%ADD32C,0.762000*%
G04 #@! TD*
G04 #@! TA.AperFunction,Conductor*
%ADD33C,1.016000*%
G04 #@! TD*
G04 #@! TA.AperFunction,Conductor*
%ADD34C,0.254000*%
G04 #@! TD*
G04 #@! TA.AperFunction,Conductor*
%ADD35C,0.231140*%
G04 #@! TD*
G04 APERTURE END LIST*
D10*
G04 #@! TO.P,Q1,1,G*
G04 #@! TO.N,+3V3*
X125937500Y-90965000D03*
G04 #@! TO.P,Q1,2,S*
G04 #@! TO.N,LOGIC_IN_1*
X125937500Y-89065000D03*
G04 #@! TO.P,Q1,3,D*
G04 #@! TO.N,Net-(J6-Pad1)*
X124062500Y-90015000D03*
G04 #@! TD*
D11*
G04 #@! TO.P,J3,1,Pin_1*
G04 #@! TO.N,SERVO_2*
X177000000Y-116525000D03*
D12*
G04 #@! TO.P,J3,2,Pin_2*
G04 #@! TO.N,+5V*
X177000000Y-113985000D03*
G04 #@! TO.P,J3,3,Pin_3*
G04 #@! TO.N,GND*
X177000000Y-111445000D03*
G04 #@! TD*
D13*
G04 #@! TO.P,U2,1,GND*
G04 #@! TO.N,GND*
X138150000Y-124000000D03*
D14*
G04 #@! TO.P,U2,2,VO*
G04 #@! TO.N,+3V3*
X131850000Y-121700000D03*
D13*
X138150000Y-121700000D03*
G04 #@! TO.P,U2,3,VI*
G04 #@! TO.N,+5V*
X138150000Y-119400000D03*
G04 #@! TD*
D15*
G04 #@! TO.P,C2,1*
G04 #@! TO.N,+5V*
X144000000Y-120525000D03*
G04 #@! TO.P,C2,2*
G04 #@! TO.N,GND*
X144000000Y-123475000D03*
G04 #@! TD*
D11*
G04 #@! TO.P,J7,1,Pin_1*
G04 #@! TO.N,GND*
X158000000Y-129000000D03*
D12*
G04 #@! TO.P,J7,2,Pin_2*
G04 #@! TO.N,NPX2*
X160540000Y-129000000D03*
G04 #@! TO.P,J7,3,Pin_3*
G04 #@! TO.N,+5V*
X163080000Y-129000000D03*
G04 #@! TD*
D11*
G04 #@! TO.P,J4,1,Pin_1*
G04 #@! TO.N,SCL*
X163200000Y-76000000D03*
D12*
G04 #@! TO.P,J4,2,Pin_2*
G04 #@! TO.N,SDA*
X165740000Y-76000000D03*
G04 #@! TO.P,J4,3,Pin_3*
G04 #@! TO.N,+3V3*
X168280000Y-76000000D03*
G04 #@! TO.P,J4,4,Pin_4*
G04 #@! TO.N,GND*
X170820000Y-76000000D03*
G04 #@! TD*
D15*
G04 #@! TO.P,C3,1*
G04 #@! TO.N,+3V3*
X141000000Y-120525000D03*
G04 #@! TO.P,C3,2*
G04 #@! TO.N,GND*
X141000000Y-123475000D03*
G04 #@! TD*
D16*
G04 #@! TO.P,U1,1,IN+*
G04 #@! TO.N,+12V*
X138856000Y-115604000D03*
X138856000Y-113064000D03*
G04 #@! TO.P,U1,2,IN-*
G04 #@! TO.N,GND*
X138856000Y-104936000D03*
X138856000Y-102396000D03*
G04 #@! TO.P,U1,3,OUT+*
G04 #@! TO.N,+5V*
X157398000Y-115604000D03*
X157398000Y-113064000D03*
G04 #@! TO.P,U1,4,OUT-*
G04 #@! TO.N,GND*
X157398000Y-104936000D03*
X157398000Y-102396000D03*
G04 #@! TD*
D17*
G04 #@! TO.P,R3,1*
G04 #@! TO.N,+3V3*
X128000000Y-90840000D03*
G04 #@! TO.P,R3,2*
G04 #@! TO.N,LOGIC_IN_1*
X128000000Y-89190000D03*
G04 #@! TD*
G04 #@! TO.P,R12,1*
G04 #@! TO.N,+5V*
X160000000Y-114825000D03*
G04 #@! TO.P,R12,2*
G04 #@! TO.N,LIMIT_2*
X160000000Y-113175000D03*
G04 #@! TD*
D11*
G04 #@! TO.P,J8,1,Pin_1*
G04 #@! TO.N,Net-(J8-Pad1)*
X120000000Y-105475000D03*
D12*
G04 #@! TO.P,J8,2,Pin_2*
G04 #@! TO.N,+12V*
X120000000Y-108015000D03*
G04 #@! TO.P,J8,3,Pin_3*
G04 #@! TO.N,GND*
X120000000Y-110555000D03*
G04 #@! TD*
D11*
G04 #@! TO.P,J12,1,Pin_1*
G04 #@! TO.N,GND*
X158000000Y-124000000D03*
D12*
G04 #@! TO.P,J12,2,Pin_2*
G04 #@! TO.N,Net-(D2-Pad2)*
X160540000Y-124000000D03*
G04 #@! TO.P,J12,3,Pin_3*
G04 #@! TO.N,+5V*
X163080000Y-124000000D03*
G04 #@! TD*
D18*
G04 #@! TO.P,R10,1*
G04 #@! TO.N,RESET*
X134912500Y-79000000D03*
G04 #@! TO.P,R10,2*
G04 #@! TO.N,+3V3*
X133087500Y-79000000D03*
G04 #@! TD*
D19*
G04 #@! TO.P,REF\u002A\u002A,1*
G04 #@! TO.N,N/C*
X172000000Y-122000000D03*
G04 #@! TD*
D11*
G04 #@! TO.P,J1,1,Pin_1*
G04 #@! TO.N,SERVO_1*
X173000000Y-116525000D03*
D12*
G04 #@! TO.P,J1,2,Pin_2*
G04 #@! TO.N,+5V*
X173000000Y-113985000D03*
G04 #@! TO.P,J1,3,Pin_3*
G04 #@! TO.N,GND*
X173000000Y-111445000D03*
G04 #@! TD*
D11*
G04 #@! TO.P,J9,1,Pin_1*
G04 #@! TO.N,+3V3*
X143650000Y-97500000D03*
D12*
G04 #@! TO.P,J9,2,Pin_2*
G04 #@! TO.N,GND*
X146190000Y-97500000D03*
G04 #@! TO.P,J9,3,Pin_3*
G04 #@! TO.N,TXDO_PROG*
X148730000Y-97500000D03*
G04 #@! TO.P,J9,4,Pin_4*
G04 #@! TO.N,RXDI_PROG*
X151270000Y-97500000D03*
G04 #@! TO.P,J9,5,Pin_5*
G04 #@! TO.N,RESET*
X153810000Y-97500000D03*
G04 #@! TO.P,J9,6,Pin_6*
G04 #@! TO.N,BOOT*
X156350000Y-97500000D03*
G04 #@! TD*
D17*
G04 #@! TO.P,R11,1*
G04 #@! TO.N,+5V*
X162000000Y-114825000D03*
G04 #@! TO.P,R11,2*
G04 #@! TO.N,LIMIT_1*
X162000000Y-113175000D03*
G04 #@! TD*
D19*
G04 #@! TO.P,REF\u002A\u002A,1*
G04 #@! TO.N,N/C*
X128000000Y-78000000D03*
G04 #@! TD*
D11*
G04 #@! TO.P,J5,1,Pin_1*
G04 #@! TO.N,Net-(J5-Pad1)*
X182000000Y-103800000D03*
D12*
G04 #@! TO.P,J5,2,Pin_2*
G04 #@! TO.N,Net-(J5-Pad2)*
X182000000Y-101260000D03*
G04 #@! TO.P,J5,3,Pin_3*
G04 #@! TO.N,Net-(J5-Pad3)*
X182000000Y-98720000D03*
G04 #@! TO.P,J5,4,Pin_4*
G04 #@! TO.N,Net-(J5-Pad4)*
X182000000Y-96180000D03*
G04 #@! TD*
D20*
G04 #@! TO.P,C5,1*
G04 #@! TO.N,+3V3*
X133000000Y-76975000D03*
G04 #@! TO.P,C5,2*
G04 #@! TO.N,GND*
X133000000Y-74025000D03*
G04 #@! TD*
D21*
G04 #@! TO.P,R6,1*
G04 #@! TO.N,+12V*
X123175000Y-110000000D03*
G04 #@! TO.P,R6,2*
G04 #@! TO.N,Net-(J8-Pad1)*
X124825000Y-110000000D03*
G04 #@! TD*
D11*
G04 #@! TO.P,J11,1,Pin_1*
G04 #@! TO.N,+5V*
X169000000Y-116525000D03*
D12*
G04 #@! TO.P,J11,2,Pin_2*
G04 #@! TO.N,GND*
X169000000Y-113985000D03*
G04 #@! TO.P,J11,3,Pin_3*
G04 #@! TO.N,LIMIT_2*
X169000000Y-111445000D03*
G04 #@! TD*
D11*
G04 #@! TO.P,J6,1,Pin_1*
G04 #@! TO.N,Net-(J6-Pad1)*
X120000000Y-89475000D03*
D12*
G04 #@! TO.P,J6,2,Pin_2*
G04 #@! TO.N,+12V*
X120000000Y-92015000D03*
G04 #@! TO.P,J6,3,Pin_3*
G04 #@! TO.N,GND*
X120000000Y-94555000D03*
G04 #@! TD*
D17*
G04 #@! TO.P,R7,1*
G04 #@! TO.N,+3V3*
X128000000Y-106825000D03*
G04 #@! TO.P,R7,2*
G04 #@! TO.N,LOGIC_IN_2*
X128000000Y-105175000D03*
G04 #@! TD*
D21*
G04 #@! TO.P,R4,1*
G04 #@! TO.N,Net-(J6-Pad1)*
X126175000Y-94015000D03*
G04 #@! TO.P,R4,2*
G04 #@! TO.N,ANALOG_IN_1*
X127825000Y-94015000D03*
G04 #@! TD*
D22*
G04 #@! TO.P,U4,1,GND*
G04 #@! TO.N,GND*
X141250000Y-74750000D03*
G04 #@! TO.P,U4,2,VDD*
G04 #@! TO.N,+3V3*
X141250000Y-76020000D03*
G04 #@! TO.P,U4,3,EN*
G04 #@! TO.N,RESET*
X141250000Y-77290000D03*
G04 #@! TO.P,U4,4,SENSOR_VP*
G04 #@! TO.N,unconnected-(U4-Pad4)*
X141250000Y-78560000D03*
G04 #@! TO.P,U4,5,SENSOR_VN*
G04 #@! TO.N,unconnected-(U4-Pad5)*
X141250000Y-79830000D03*
G04 #@! TO.P,U4,6,IO34*
G04 #@! TO.N,LOGIC_IN_1*
X141250000Y-81100000D03*
G04 #@! TO.P,U4,7,IO35*
G04 #@! TO.N,ANALOG_IN_1*
X141250000Y-82370000D03*
G04 #@! TO.P,U4,8,IO32*
G04 #@! TO.N,LOGIC_IN_2*
X141250000Y-83640000D03*
G04 #@! TO.P,U4,9,IO33*
G04 #@! TO.N,ANALOG_IN_2*
X141250000Y-84910000D03*
G04 #@! TO.P,U4,10,IO25*
G04 #@! TO.N,unconnected-(U4-Pad10)*
X141250000Y-86180000D03*
G04 #@! TO.P,U4,11,IO26*
G04 #@! TO.N,unconnected-(U4-Pad11)*
X141250000Y-87450000D03*
G04 #@! TO.P,U4,12,IO27*
G04 #@! TO.N,unconnected-(U4-Pad12)*
X141250000Y-88720000D03*
G04 #@! TO.P,U4,13,IO14*
G04 #@! TO.N,unconnected-(U4-Pad13)*
X141250000Y-89990000D03*
G04 #@! TO.P,U4,14,IO12*
G04 #@! TO.N,LIMIT_1*
X141250000Y-91260000D03*
D23*
G04 #@! TO.P,U4,15,GND*
G04 #@! TO.N,GND*
X144290000Y-92510000D03*
G04 #@! TO.P,U4,16,IO13*
G04 #@! TO.N,LIMIT_2*
X145560000Y-92510000D03*
G04 #@! TO.P,U4,17,SHD/SD2*
G04 #@! TO.N,unconnected-(U4-Pad17)*
X146830000Y-92510000D03*
G04 #@! TO.P,U4,18,SWP/SD3*
G04 #@! TO.N,unconnected-(U4-Pad18)*
X148100000Y-92510000D03*
G04 #@! TO.P,U4,19,SCS/CMD*
G04 #@! TO.N,unconnected-(U4-Pad19)*
X149370000Y-92510000D03*
G04 #@! TO.P,U4,20,SCK/CLK*
G04 #@! TO.N,unconnected-(U4-Pad20)*
X150640000Y-92510000D03*
G04 #@! TO.P,U4,21,SDO/SD0*
G04 #@! TO.N,unconnected-(U4-Pad21)*
X151910000Y-92510000D03*
G04 #@! TO.P,U4,22,SDI/SD1*
G04 #@! TO.N,unconnected-(U4-Pad22)*
X153180000Y-92510000D03*
G04 #@! TO.P,U4,23,IO15*
G04 #@! TO.N,NPX2*
X154450000Y-92510000D03*
G04 #@! TO.P,U4,24,IO2*
G04 #@! TO.N,SERVO_1*
X155720000Y-92510000D03*
D22*
G04 #@! TO.P,U4,25,IO0*
G04 #@! TO.N,BOOT*
X158750000Y-91260000D03*
G04 #@! TO.P,U4,26,IO4*
G04 #@! TO.N,SERVO_2*
X158750000Y-89990000D03*
G04 #@! TO.P,U4,27,IO16*
G04 #@! TO.N,A_IN_2*
X158750000Y-88720000D03*
G04 #@! TO.P,U4,28,IO17*
G04 #@! TO.N,A_IN_1*
X158750000Y-87450000D03*
G04 #@! TO.P,U4,29,IO5*
G04 #@! TO.N,STANDBY*
X158750000Y-86180000D03*
G04 #@! TO.P,U4,30,IO18*
G04 #@! TO.N,B_IN_1*
X158750000Y-84910000D03*
G04 #@! TO.P,U4,31,IO19*
G04 #@! TO.N,B_IN_2*
X158750000Y-83640000D03*
G04 #@! TO.P,U4,32,NC*
G04 #@! TO.N,unconnected-(U4-Pad32)*
X158750000Y-82370000D03*
G04 #@! TO.P,U4,33,IO21*
G04 #@! TO.N,SDA*
X158750000Y-81100000D03*
G04 #@! TO.P,U4,34,RXD0/IO3*
G04 #@! TO.N,RXDI_PROG*
X158750000Y-79830000D03*
G04 #@! TO.P,U4,35,TXD0/IO1*
G04 #@! TO.N,TXDO_PROG*
X158750000Y-78560000D03*
G04 #@! TO.P,U4,36,IO22*
G04 #@! TO.N,SCL*
X158750000Y-77290000D03*
G04 #@! TO.P,U4,37,IO23*
G04 #@! TO.N,NPX1*
X158750000Y-76020000D03*
G04 #@! TO.P,U4,38,GND*
G04 #@! TO.N,GND*
X158750000Y-74750000D03*
D24*
G04 #@! TO.P,U4,39,GND*
X150082500Y-82090000D03*
D25*
X147795000Y-82090000D03*
X149320000Y-82090000D03*
D24*
X148557500Y-80565000D03*
X150082500Y-83615000D03*
D25*
X150845000Y-83615000D03*
D24*
X148557500Y-83615000D03*
D25*
X147795000Y-83615000D03*
D26*
X149320000Y-82090000D03*
D24*
X147795000Y-82852500D03*
X150845000Y-82852500D03*
D25*
X150845000Y-82090000D03*
D24*
X147795000Y-81327500D03*
X150082500Y-80565000D03*
D25*
X149320000Y-80565000D03*
D24*
X148557500Y-82090000D03*
X150845000Y-81327500D03*
X149320000Y-82852500D03*
D25*
X150845000Y-80565000D03*
X149320000Y-83615000D03*
X147795000Y-80565000D03*
D24*
X149320000Y-81327500D03*
G04 #@! TD*
D21*
G04 #@! TO.P,R5,1*
G04 #@! TO.N,ANALOG_IN_1*
X129175000Y-94015000D03*
G04 #@! TO.P,R5,2*
G04 #@! TO.N,GND*
X130825000Y-94015000D03*
G04 #@! TD*
D27*
G04 #@! TO.P,C4,1*
G04 #@! TO.N,+5V*
X170475000Y-80000000D03*
G04 #@! TO.P,C4,2*
G04 #@! TO.N,GND*
X167525000Y-80000000D03*
G04 #@! TD*
D28*
G04 #@! TO.P,C6,1*
G04 #@! TO.N,+3V3*
X135000000Y-76275000D03*
G04 #@! TO.P,C6,2*
G04 #@! TO.N,GND*
X135000000Y-74725000D03*
G04 #@! TD*
D17*
G04 #@! TO.P,R1,1*
G04 #@! TO.N,+5V*
X160000000Y-110825000D03*
G04 #@! TO.P,R1,2*
G04 #@! TO.N,Net-(R1-Pad2)*
X160000000Y-109175000D03*
G04 #@! TD*
D21*
G04 #@! TO.P,R8,1*
G04 #@! TO.N,Net-(J8-Pad1)*
X126175000Y-110000000D03*
G04 #@! TO.P,R8,2*
G04 #@! TO.N,ANALOG_IN_2*
X127825000Y-110000000D03*
G04 #@! TD*
G04 #@! TO.P,R2,1*
G04 #@! TO.N,+12V*
X123175000Y-94015000D03*
G04 #@! TO.P,R2,2*
G04 #@! TO.N,Net-(J6-Pad1)*
X124825000Y-94015000D03*
G04 #@! TD*
D29*
G04 #@! TO.P,U3,*
G04 #@! TO.N,*
X177080000Y-105922000D03*
X177080000Y-84078000D03*
D16*
G04 #@! TO.P,U3,1,VMOTOR+*
G04 #@! TO.N,+5V*
X163110000Y-83570000D03*
G04 #@! TO.P,U3,2,VCC*
G04 #@! TO.N,+3V3*
X163110000Y-86110000D03*
G04 #@! TO.P,U3,3,GND*
G04 #@! TO.N,GND*
X163110000Y-88650000D03*
G04 #@! TO.P,U3,4,PWM_B*
G04 #@! TO.N,Net-(R1-Pad2)*
X163110000Y-91190000D03*
G04 #@! TO.P,U3,5,B_IN_2*
G04 #@! TO.N,B_IN_2*
X163110000Y-93730000D03*
G04 #@! TO.P,U3,6,B_IN_1*
G04 #@! TO.N,B_IN_1*
X163110000Y-96270000D03*
G04 #@! TO.P,U3,7,STANDBY*
G04 #@! TO.N,STANDBY*
X163110000Y-98810000D03*
G04 #@! TO.P,U3,8,A_IN_1*
G04 #@! TO.N,A_IN_1*
X163110000Y-101350000D03*
G04 #@! TO.P,U3,9,A_IN_2*
G04 #@! TO.N,A_IN_2*
X163110000Y-103890000D03*
G04 #@! TO.P,U3,10,PWM_A*
G04 #@! TO.N,Net-(R1-Pad2)*
X163110000Y-106430000D03*
G04 #@! TO.P,U3,11,MOTOR_A1*
G04 #@! TO.N,Net-(J5-Pad1)*
X178350000Y-101350000D03*
G04 #@! TO.P,U3,12,MOTOR_A2*
G04 #@! TO.N,Net-(J5-Pad2)*
X178350000Y-98810000D03*
G04 #@! TO.P,U3,13,GND*
G04 #@! TO.N,GND*
X178350000Y-96270000D03*
G04 #@! TO.P,U3,14,GND*
X178350000Y-93730000D03*
G04 #@! TO.P,U3,15,MOTOR_B2*
G04 #@! TO.N,Net-(J5-Pad3)*
X178350000Y-91190000D03*
G04 #@! TO.P,U3,16,MOTOR_B1*
G04 #@! TO.N,Net-(J5-Pad4)*
X178350000Y-88650000D03*
G04 #@! TO.P,U3,17,VMOTOR+*
G04 #@! TO.N,+5V*
X171570000Y-85000000D03*
G04 #@! TO.P,U3,18,VMOTOR-*
G04 #@! TO.N,GND*
X168070000Y-85000000D03*
G04 #@! TD*
D10*
G04 #@! TO.P,Q2,1,G*
G04 #@! TO.N,+3V3*
X125937500Y-106950000D03*
G04 #@! TO.P,Q2,2,S*
G04 #@! TO.N,LOGIC_IN_2*
X125937500Y-105050000D03*
G04 #@! TO.P,Q2,3,D*
G04 #@! TO.N,Net-(J8-Pad1)*
X124062500Y-106000000D03*
G04 #@! TD*
D30*
G04 #@! TO.P,C7,1*
G04 #@! TO.N,RESET*
X134775000Y-81000000D03*
G04 #@! TO.P,C7,2*
G04 #@! TO.N,GND*
X133225000Y-81000000D03*
G04 #@! TD*
D20*
G04 #@! TO.P,C1,1*
G04 #@! TO.N,+12V*
X135000000Y-110475000D03*
G04 #@! TO.P,C1,2*
G04 #@! TO.N,GND*
X135000000Y-107525000D03*
G04 #@! TD*
D21*
G04 #@! TO.P,R9,1*
G04 #@! TO.N,ANALOG_IN_2*
X129175000Y-110000000D03*
G04 #@! TO.P,R9,2*
G04 #@! TO.N,GND*
X130825000Y-110000000D03*
G04 #@! TD*
D11*
G04 #@! TO.P,J10,1,Pin_1*
G04 #@! TO.N,+5V*
X165000000Y-116525000D03*
D12*
G04 #@! TO.P,J10,2,Pin_2*
G04 #@! TO.N,GND*
X165000000Y-113985000D03*
G04 #@! TO.P,J10,3,Pin_3*
G04 #@! TO.N,LIMIT_1*
X165000000Y-111445000D03*
G04 #@! TD*
D31*
G04 #@! TO.N,GND*
X131510000Y-86180000D03*
X140000000Y-127000000D03*
X168000000Y-105000000D03*
G04 #@! TO.N,+5V*
X172925360Y-95000000D03*
G04 #@! TO.N,+3V3*
X129000000Y-122000000D03*
X129078567Y-82586036D03*
X136043244Y-84545917D03*
X148577909Y-122756500D03*
D32*
G04 #@! TO.N,RESET*
X148000000Y-89000000D03*
G04 #@! TO.N,NPX1*
X161000000Y-76000000D03*
G04 #@! TO.N,SERVO_2*
X164620000Y-89960000D03*
X156960000Y-90020000D03*
G04 #@! TO.N,TXDO_PROG*
X149000000Y-91000000D03*
G04 #@! TO.N,RXDI_PROG*
X151000000Y-91000000D03*
G04 #@! TO.N,LIMIT_1*
X152000000Y-111000000D03*
G04 #@! TO.N,LIMIT_2*
X152000000Y-110000000D03*
G04 #@! TO.N,Net-(R1-Pad2)*
X164950000Y-104230000D03*
G04 #@! TD*
D33*
G04 #@! TO.N,+12V*
X137589000Y-113064000D02*
X135000000Y-110475000D01*
X121175000Y-92015000D02*
X123175000Y-94015000D01*
X138856000Y-113064000D02*
X137589000Y-113064000D01*
X121985000Y-110000000D02*
X123175000Y-110000000D01*
X120000000Y-108015000D02*
X121985000Y-110000000D01*
X120000000Y-92015000D02*
X121175000Y-92015000D01*
G04 #@! TO.N,GND*
X138150000Y-125150000D02*
X140000000Y-127000000D01*
X143016000Y-74750000D02*
X149320000Y-81054000D01*
X141000000Y-123475000D02*
X144000000Y-123475000D01*
X140475000Y-124000000D02*
X141000000Y-123475000D01*
X156660000Y-74750000D02*
X149320000Y-82090000D01*
X132525000Y-110000000D02*
X135000000Y-107525000D01*
X158750000Y-74750000D02*
X159058000Y-74442000D01*
X134300000Y-74025000D02*
X135000000Y-74725000D01*
X135000000Y-74725000D02*
X141225000Y-74725000D01*
X120000000Y-94555000D02*
X121445000Y-96000000D01*
X144290000Y-92510000D02*
X144290000Y-93856000D01*
X141250000Y-74750000D02*
X143016000Y-74750000D01*
X144290000Y-93856000D02*
X146190000Y-95756000D01*
X129000000Y-96000000D02*
X130825000Y-94175000D01*
X130825000Y-94175000D02*
X130825000Y-94015000D01*
X149320000Y-81054000D02*
X149320000Y-82090000D01*
X133225000Y-84465000D02*
X131510000Y-86180000D01*
X133225000Y-81000000D02*
X133225000Y-84465000D01*
X135000000Y-107525000D02*
X136267000Y-107525000D01*
X169262000Y-74442000D02*
X170820000Y-76000000D01*
X167525000Y-80000000D02*
X167525000Y-79295000D01*
X121445000Y-96000000D02*
X129000000Y-96000000D01*
X158750000Y-74750000D02*
X156660000Y-74750000D01*
X146190000Y-95756000D02*
X146190000Y-97500000D01*
X159058000Y-74442000D02*
X169262000Y-74442000D01*
X138150000Y-124000000D02*
X140475000Y-124000000D01*
X138150000Y-124000000D02*
X138150000Y-125150000D01*
X141225000Y-74725000D02*
X141250000Y-74750000D01*
X136267000Y-107525000D02*
X138856000Y-104936000D01*
X167525000Y-79295000D02*
X170820000Y-76000000D01*
X130825000Y-110000000D02*
X132525000Y-110000000D01*
X133000000Y-74025000D02*
X134300000Y-74025000D01*
G04 #@! TO.N,+5V*
X166905000Y-83570000D02*
X170475000Y-80000000D01*
X148921000Y-115604000D02*
X157398000Y-115604000D01*
X144000000Y-120525000D02*
X148921000Y-115604000D01*
X163300000Y-114825000D02*
X165000000Y-116525000D01*
X138150000Y-119400000D02*
X138308000Y-119242000D01*
X163110000Y-83570000D02*
X166905000Y-83570000D01*
X162000000Y-114825000D02*
X160000000Y-114825000D01*
X159637000Y-110825000D02*
X157398000Y-113064000D01*
X160000000Y-110825000D02*
X159637000Y-110825000D01*
X142717000Y-119242000D02*
X144000000Y-120525000D01*
X170475000Y-83905000D02*
X171570000Y-85000000D01*
X162000000Y-114825000D02*
X163300000Y-114825000D01*
X170475000Y-80000000D02*
X170475000Y-83905000D01*
X138308000Y-119242000D02*
X142717000Y-119242000D01*
D34*
G04 #@! TO.N,+3V3*
X124459580Y-89000000D02*
X125937500Y-90477920D01*
D33*
X129300000Y-121700000D02*
X129000000Y-122000000D01*
D34*
X125937500Y-106950000D02*
X125937500Y-106462920D01*
D33*
X125937500Y-90965000D02*
X127875000Y-90965000D01*
D34*
X125937500Y-90477920D02*
X125937500Y-90965000D01*
D33*
X129501464Y-82586036D02*
X129078567Y-82586036D01*
X131850000Y-121700000D02*
X129300000Y-121700000D01*
X131186002Y-90840000D02*
X136043244Y-85982758D01*
D34*
X117000000Y-97525420D02*
X117000000Y-90000000D01*
D33*
X138150000Y-121700000D02*
X131850000Y-121700000D01*
X125937500Y-106950000D02*
X127875000Y-106950000D01*
X128000000Y-90840000D02*
X131186002Y-90840000D01*
X127875000Y-106950000D02*
X128000000Y-106825000D01*
D34*
X117000000Y-90000000D02*
X119000000Y-88000000D01*
D33*
X133087500Y-79000000D02*
X129501464Y-82586036D01*
X139825000Y-121700000D02*
X138150000Y-121700000D01*
D34*
X125937500Y-106462920D02*
X117000000Y-97525420D01*
D33*
X147821409Y-122000000D02*
X148577909Y-122756500D01*
X133000000Y-76975000D02*
X134300000Y-76975000D01*
X135000000Y-76275000D02*
X135255000Y-76020000D01*
X141000000Y-120525000D02*
X142475000Y-122000000D01*
X127875000Y-90965000D02*
X128000000Y-90840000D01*
X142475000Y-122000000D02*
X147821409Y-122000000D01*
X133087500Y-79000000D02*
X133087500Y-77062500D01*
X135255000Y-76020000D02*
X141250000Y-76020000D01*
X133087500Y-77062500D02*
X133000000Y-76975000D01*
D34*
X123000000Y-88000000D02*
X124000000Y-89000000D01*
X119000000Y-88000000D02*
X123000000Y-88000000D01*
D33*
X141000000Y-120525000D02*
X139825000Y-121700000D01*
X136043244Y-85982758D02*
X136043244Y-84545917D01*
X134300000Y-76975000D02*
X135000000Y-76275000D01*
D34*
X124000000Y-89000000D02*
X124459580Y-89000000D01*
D35*
G04 #@! TO.N,RESET*
X134775000Y-81000000D02*
X134775000Y-79137500D01*
X134912500Y-79000000D02*
X136622500Y-77290000D01*
X136622500Y-77290000D02*
X141250000Y-77290000D01*
X148000000Y-89000000D02*
X142315570Y-83315570D01*
X142231140Y-77290000D02*
X141250000Y-77290000D01*
X142315570Y-77374430D02*
X142231140Y-77290000D01*
X142315570Y-83315570D02*
X142315570Y-77374430D01*
X134775000Y-79137500D02*
X134912500Y-79000000D01*
G04 #@! TO.N,NPX1*
X158750000Y-76020000D02*
X160980000Y-76020000D01*
X160980000Y-76020000D02*
X161000000Y-76000000D01*
G04 #@! TO.N,SERVO_1*
X155720000Y-92510000D02*
X155720000Y-96481635D01*
X162554065Y-105352430D02*
X164555795Y-105352430D01*
X171834430Y-112631065D02*
X171834430Y-115359430D01*
X155184430Y-97017205D02*
X155184430Y-97982795D01*
X164555795Y-105352430D02*
X171834430Y-112631065D01*
X171834430Y-115359430D02*
X173000000Y-116525000D01*
X155184430Y-97982795D02*
X162554065Y-105352430D01*
X155720000Y-96481635D02*
X155184430Y-97017205D01*
G04 #@! TO.N,SERVO_2*
X156990000Y-89990000D02*
X156960000Y-90020000D01*
X174764430Y-92774430D02*
X174764430Y-114289430D01*
X164620000Y-89960000D02*
X171950000Y-89960000D01*
X174764430Y-114289430D02*
X177000000Y-116525000D01*
X158750000Y-89990000D02*
X156990000Y-89990000D01*
X171950000Y-89960000D02*
X174764430Y-92774430D01*
G04 #@! TO.N,SCL*
X163200000Y-76000000D02*
X161910000Y-77290000D01*
X161910000Y-77290000D02*
X158750000Y-77290000D01*
G04 #@! TO.N,SDA*
X160640000Y-81100000D02*
X165740000Y-76000000D01*
X158750000Y-81100000D02*
X160640000Y-81100000D01*
G04 #@! TO.N,Net-(J6-Pad1)*
X124825000Y-94015000D02*
X126175000Y-94015000D01*
X124825000Y-90777500D02*
X124825000Y-94015000D01*
X123522500Y-89475000D02*
X124062500Y-90015000D01*
X124062500Y-90015000D02*
X124825000Y-90777500D01*
X120000000Y-89475000D02*
X123522500Y-89475000D01*
G04 #@! TO.N,Net-(J8-Pad1)*
X123537500Y-105475000D02*
X124062500Y-106000000D01*
X120000000Y-105475000D02*
X123537500Y-105475000D01*
X124825000Y-106762500D02*
X124062500Y-106000000D01*
X124825000Y-110000000D02*
X124825000Y-106762500D01*
X124825000Y-110000000D02*
X126175000Y-110000000D01*
G04 #@! TO.N,TXDO_PROG*
X149000000Y-87328860D02*
X149000000Y-91000000D01*
X157768860Y-78560000D02*
X149000000Y-87328860D01*
X158750000Y-78560000D02*
X157768860Y-78560000D01*
G04 #@! TO.N,RXDI_PROG*
X158750000Y-79830000D02*
X157768860Y-79830000D01*
X151000000Y-86598860D02*
X151000000Y-91000000D01*
X157768860Y-79830000D02*
X151000000Y-86598860D01*
G04 #@! TO.N,BOOT*
X156350000Y-97500000D02*
X156350000Y-93660000D01*
X156350000Y-93660000D02*
X158750000Y-91260000D01*
G04 #@! TO.N,LOGIC_IN_1*
X128000000Y-89190000D02*
X131100838Y-89190000D01*
X134069070Y-83120930D02*
X136090000Y-81100000D01*
X127875000Y-89065000D02*
X128000000Y-89190000D01*
X136090000Y-81100000D02*
X141250000Y-81100000D01*
X131100838Y-89190000D02*
X134069070Y-86221768D01*
X125937500Y-89065000D02*
X127875000Y-89065000D01*
X134069070Y-86221768D02*
X134069070Y-83120930D01*
G04 #@! TO.N,LOGIC_IN_2*
X131648570Y-92260290D02*
X140268860Y-83640000D01*
X128000000Y-99000000D02*
X131648570Y-95351430D01*
X140268860Y-83640000D02*
X141250000Y-83640000D01*
X128000000Y-105175000D02*
X128000000Y-99000000D01*
X131648570Y-95351430D02*
X131648570Y-92260290D01*
X125937500Y-105050000D02*
X127875000Y-105050000D01*
X127875000Y-105050000D02*
X128000000Y-105175000D01*
D33*
G04 #@! TO.N,Net-(J5-Pad1)*
X178350000Y-101350000D02*
X179550000Y-101350000D01*
X179550000Y-101350000D02*
X182000000Y-103800000D01*
D35*
G04 #@! TO.N,ANALOG_IN_1*
X140820000Y-82370000D02*
X141250000Y-82370000D01*
X127825000Y-94015000D02*
X129175000Y-94015000D01*
X129175000Y-94015000D02*
X140820000Y-82370000D01*
G04 #@! TO.N,ANALOG_IN_2*
X129000000Y-99000000D02*
X133000000Y-95000000D01*
X133000000Y-95000000D02*
X133000000Y-92000000D01*
X129175000Y-110000000D02*
X129000000Y-109825000D01*
X133000000Y-92000000D02*
X140090000Y-84910000D01*
X140090000Y-84910000D02*
X141250000Y-84910000D01*
X127825000Y-110000000D02*
X129175000Y-110000000D01*
X129000000Y-109825000D02*
X129000000Y-99000000D01*
G04 #@! TO.N,B_IN_2*
X162032430Y-85941290D02*
X162032430Y-92652430D01*
X162032430Y-92652430D02*
X163110000Y-93730000D01*
X158750000Y-83640000D02*
X159731140Y-83640000D01*
X159731140Y-83640000D02*
X162032430Y-85941290D01*
G04 #@! TO.N,B_IN_1*
X163110000Y-95253915D02*
X163110000Y-96270000D01*
X159910000Y-84910000D02*
X161601290Y-86601290D01*
X158750000Y-84910000D02*
X159910000Y-84910000D01*
X161601290Y-93745205D02*
X163110000Y-95253915D01*
X161601290Y-86601290D02*
X161601290Y-93745205D01*
G04 #@! TO.N,STANDBY*
X161170649Y-88170649D02*
X161170649Y-96870649D01*
X158750000Y-86180000D02*
X159180000Y-86180000D01*
X161170649Y-96870649D02*
X163110000Y-98810000D01*
X159180000Y-86180000D02*
X161170649Y-88170649D01*
G04 #@! TO.N,A_IN_1*
X158750000Y-87450000D02*
X159731140Y-87450000D01*
X160740000Y-88458860D02*
X160740000Y-98980000D01*
X160740000Y-98980000D02*
X163110000Y-101350000D01*
X159731140Y-87450000D02*
X160740000Y-88458860D01*
G04 #@! TO.N,A_IN_2*
X158750000Y-88720000D02*
X159731140Y-88720000D01*
X159815570Y-100595570D02*
X163110000Y-103890000D01*
X159731140Y-88720000D02*
X159815570Y-88804430D01*
X159815570Y-88804430D02*
X159815570Y-100595570D01*
G04 #@! TO.N,LIMIT_1*
X141250000Y-91260000D02*
X141250000Y-100250000D01*
X141250000Y-100250000D02*
X152000000Y-111000000D01*
X163270000Y-113175000D02*
X165000000Y-111445000D01*
X162000000Y-113175000D02*
X163270000Y-113175000D01*
G04 #@! TO.N,LIMIT_2*
X160000000Y-113175000D02*
X162895570Y-110279430D01*
X167834430Y-110279430D02*
X169000000Y-111445000D01*
X152000000Y-105000000D02*
X152000000Y-110000000D01*
X148000000Y-101000000D02*
X152000000Y-105000000D01*
X162895570Y-110279430D02*
X167834430Y-110279430D01*
X147564430Y-100564430D02*
X148000000Y-101000000D01*
X147564430Y-95495570D02*
X147564430Y-100564430D01*
X145560000Y-93491140D02*
X147564430Y-95495570D01*
X145560000Y-92510000D02*
X145560000Y-93491140D01*
D33*
G04 #@! TO.N,Net-(J5-Pad2)*
X179550000Y-98810000D02*
X182000000Y-101260000D01*
X178350000Y-98810000D02*
X179550000Y-98810000D01*
G04 #@! TO.N,Net-(J5-Pad3)*
X179820000Y-96540000D02*
X182000000Y-98720000D01*
X179820000Y-92660000D02*
X179820000Y-96540000D01*
X178350000Y-91190000D02*
X179820000Y-92660000D01*
G04 #@! TO.N,Net-(J5-Pad4)*
X182000000Y-92300000D02*
X182000000Y-96180000D01*
X178350000Y-88650000D02*
X182000000Y-92300000D01*
D35*
G04 #@! TO.N,Net-(R1-Pad2)*
X160000000Y-109175000D02*
X160365000Y-109175000D01*
X164950000Y-93030000D02*
X164950000Y-104230000D01*
X160365000Y-109175000D02*
X163110000Y-106430000D01*
X163110000Y-91190000D02*
X164950000Y-93030000D01*
G04 #@! TO.N,NPX2*
X152696070Y-109711678D02*
X152696070Y-109885985D01*
X152696070Y-109885985D02*
X156951655Y-114141570D01*
X156951655Y-114141570D02*
X158354373Y-114141570D01*
X154450000Y-92510000D02*
X154450000Y-94550000D01*
X152644430Y-109660038D02*
X152696070Y-109711678D01*
X158354373Y-114141570D02*
X159176929Y-114964126D01*
X159176929Y-127636929D02*
X160540000Y-129000000D01*
X152644430Y-96355570D02*
X152644430Y-109660038D01*
X154450000Y-94550000D02*
X152644430Y-96355570D01*
X159176929Y-114964126D02*
X159176929Y-127636929D01*
G04 #@! TD*
M02*
