G04 #@! TF.GenerationSoftware,KiCad,Pcbnew,6.0.9-8da3e8f707~117~ubuntu22.04.1*
G04 #@! TF.CreationDate,2022-12-16T18:05:51+00:00*
G04 #@! TF.ProjectId,gauge_servo,67617567-655f-4736-9572-766f2e6b6963,rev?*
G04 #@! TF.SameCoordinates,Original*
G04 #@! TF.FileFunction,Soldermask,Bot*
G04 #@! TF.FilePolarity,Negative*
%FSLAX46Y46*%
G04 Gerber Fmt 4.6, Leading zero omitted, Abs format (unit mm)*
G04 Created by KiCad (PCBNEW 6.0.9-8da3e8f707~117~ubuntu22.04.1) date 2022-12-16 18:05:51*
%MOMM*%
%LPD*%
G01*
G04 APERTURE LIST*
%ADD10R,1.700000X1.700000*%
%ADD11O,1.700000X1.700000*%
%ADD12C,1.524000*%
%ADD13C,5.600000*%
%ADD14C,4.000000*%
%ADD15R,1.500000X0.900000*%
G04 APERTURE END LIST*
D10*
G04 #@! TO.C,J3*
X177000000Y-116525000D03*
D11*
X177000000Y-113985000D03*
X177000000Y-111445000D03*
G04 #@! TD*
D10*
G04 #@! TO.C,J7*
X158000000Y-129000000D03*
D11*
X160540000Y-129000000D03*
X163080000Y-129000000D03*
G04 #@! TD*
D10*
G04 #@! TO.C,J4*
X163200000Y-76000000D03*
D11*
X165740000Y-76000000D03*
X168280000Y-76000000D03*
X170820000Y-76000000D03*
G04 #@! TD*
D12*
G04 #@! TO.C,U1*
X138856000Y-115604000D03*
X138856000Y-113064000D03*
X138856000Y-104936000D03*
X138856000Y-102396000D03*
X157398000Y-115604000D03*
X157398000Y-113064000D03*
X157398000Y-104936000D03*
X157398000Y-102396000D03*
G04 #@! TD*
D10*
G04 #@! TO.C,J8*
X120000000Y-105475000D03*
D11*
X120000000Y-108015000D03*
X120000000Y-110555000D03*
G04 #@! TD*
D10*
G04 #@! TO.C,J12*
X158000000Y-124000000D03*
D11*
X160540000Y-124000000D03*
X163080000Y-124000000D03*
G04 #@! TD*
D13*
G04 #@! TO.C,REF\u002A\u002A*
X172000000Y-122000000D03*
G04 #@! TD*
D10*
G04 #@! TO.C,J1*
X173000000Y-116525000D03*
D11*
X173000000Y-113985000D03*
X173000000Y-111445000D03*
G04 #@! TD*
D10*
G04 #@! TO.C,J9*
X143650000Y-97500000D03*
D11*
X146190000Y-97500000D03*
X148730000Y-97500000D03*
X151270000Y-97500000D03*
X153810000Y-97500000D03*
X156350000Y-97500000D03*
G04 #@! TD*
D13*
G04 #@! TO.C,REF\u002A\u002A*
X128000000Y-78000000D03*
G04 #@! TD*
D10*
G04 #@! TO.C,J5*
X182000000Y-103800000D03*
D11*
X182000000Y-101260000D03*
X182000000Y-98720000D03*
X182000000Y-96180000D03*
G04 #@! TD*
D10*
G04 #@! TO.C,J11*
X169000000Y-116525000D03*
D11*
X169000000Y-113985000D03*
X169000000Y-111445000D03*
G04 #@! TD*
D10*
G04 #@! TO.C,J6*
X120000000Y-89475000D03*
D11*
X120000000Y-92015000D03*
X120000000Y-94555000D03*
G04 #@! TD*
D14*
G04 #@! TO.C,U3*
X177080000Y-105922000D03*
X177080000Y-84078000D03*
D12*
X163110000Y-83570000D03*
X163110000Y-86110000D03*
X163110000Y-88650000D03*
X163110000Y-91190000D03*
X163110000Y-93730000D03*
X163110000Y-96270000D03*
X163110000Y-98810000D03*
X163110000Y-101350000D03*
X163110000Y-103890000D03*
X163110000Y-106430000D03*
X178350000Y-101350000D03*
X178350000Y-98810000D03*
X178350000Y-96270000D03*
X178350000Y-93730000D03*
X178350000Y-91190000D03*
X178350000Y-88650000D03*
X171570000Y-85000000D03*
X168070000Y-85000000D03*
G04 #@! TD*
D10*
G04 #@! TO.C,J10*
X165000000Y-116525000D03*
D11*
X165000000Y-113985000D03*
X165000000Y-111445000D03*
G04 #@! TD*
D15*
G04 #@! TO.C,D2*
X132450000Y-98350000D03*
X132450000Y-101650000D03*
X127550000Y-101650000D03*
X127550000Y-98350000D03*
G04 #@! TD*
G04 #@! TO.C,D1*
X172450000Y-98350000D03*
X172450000Y-101650000D03*
X167550000Y-101650000D03*
X167550000Y-98350000D03*
G04 #@! TD*
M02*
