M48
; DRILL file {KiCad 6.0.9-8da3e8f707~117~ubuntu22.04.1} date Fri Dec 16 18:05:51 2022
; FORMAT={-:-/ absolute / metric / decimal}
; #@! TF.CreationDate,2022-12-16T18:05:51+00:00
; #@! TF.GenerationSoftware,Kicad,Pcbnew,6.0.9-8da3e8f707~117~ubuntu22.04.1
; #@! TF.FileFunction,MixedPlating,1,4
FMAT,2
METRIC
; #@! TA.AperFunction,Plated,PTH,ComponentDrill
T1C0.200
; #@! TA.AperFunction,Plated,PTH,ViaDrill
T2C0.381
; #@! TA.AperFunction,Plated,PTH,ComponentDrill
T3C0.762
; #@! TA.AperFunction,Plated,PTH,ComponentDrill
T4C1.000
; #@! TA.AperFunction,Plated,PTH,ViaDrill
T5C1.524
; #@! TA.AperFunction,Plated,PTH,ComponentDrill
T6C2.200
; #@! TA.AperFunction,Plated,PTH,ComponentDrill
T7C3.200
%
G90
G05
T1
X147.795Y-81.328
X147.795Y-82.852
X148.558Y-80.565
X148.558Y-82.09
X148.558Y-83.615
X149.32Y-81.328
X149.32Y-82.852
X150.082Y-80.565
X150.082Y-82.09
X150.082Y-83.615
X150.845Y-81.328
X150.845Y-82.852
T2
X148.0Y-89.0
X149.0Y-91.0
X151.0Y-91.0
X152.0Y-110.0
X152.0Y-111.0
X156.96Y-90.02
X161.0Y-76.0
X164.62Y-89.96
X164.95Y-104.23
T3
X138.856Y-102.396
X138.856Y-104.936
X138.856Y-113.064
X138.856Y-115.604
X157.398Y-102.396
X157.398Y-104.936
X157.398Y-113.064
X157.398Y-115.604
X163.11Y-83.57
X163.11Y-86.11
X163.11Y-88.65
X163.11Y-91.19
X163.11Y-93.73
X163.11Y-96.27
X163.11Y-98.81
X163.11Y-101.35
X163.11Y-103.89
X163.11Y-106.43
X168.07Y-85.0
X171.57Y-85.0
X178.35Y-88.65
X178.35Y-91.19
X178.35Y-93.73
X178.35Y-96.27
X178.35Y-98.81
X178.35Y-101.35
T4
X120.0Y-89.475
X120.0Y-92.015
X120.0Y-94.555
X120.0Y-105.475
X120.0Y-108.015
X120.0Y-110.555
X143.65Y-97.5
X146.19Y-97.5
X148.73Y-97.5
X151.27Y-97.5
X153.81Y-97.5
X156.35Y-97.5
X158.0Y-124.0
X158.0Y-129.0
X160.54Y-124.0
X160.54Y-129.0
X163.08Y-124.0
X163.08Y-129.0
X163.2Y-76.0
X165.0Y-111.445
X165.0Y-113.985
X165.0Y-116.525
X165.74Y-76.0
X168.28Y-76.0
X169.0Y-111.445
X169.0Y-113.985
X169.0Y-116.525
X170.82Y-76.0
X173.0Y-111.445
X173.0Y-113.985
X173.0Y-116.525
X177.0Y-111.445
X177.0Y-113.985
X177.0Y-116.525
X182.0Y-96.18
X182.0Y-98.72
X182.0Y-101.26
X182.0Y-103.8
T5
X129.0Y-122.0
X129.079Y-82.586
X131.51Y-86.18
X136.043Y-84.546
X140.0Y-127.0
X148.578Y-122.756
X168.0Y-105.0
X172.925Y-95.0
T6
X177.08Y-84.078
X177.08Y-105.922
T7
X128.0Y-78.0
X172.0Y-122.0
T0
M30
