G04 #@! TF.GenerationSoftware,KiCad,Pcbnew,6.0.9-8da3e8f707~117~ubuntu22.04.1*
G04 #@! TF.CreationDate,2022-12-16T18:05:51+00:00*
G04 #@! TF.ProjectId,gauge_servo,67617567-655f-4736-9572-766f2e6b6963,rev?*
G04 #@! TF.SameCoordinates,Original*
G04 #@! TF.FileFunction,Soldermask,Top*
G04 #@! TF.FilePolarity,Negative*
%FSLAX46Y46*%
G04 Gerber Fmt 4.6, Leading zero omitted, Abs format (unit mm)*
G04 Created by KiCad (PCBNEW 6.0.9-8da3e8f707~117~ubuntu22.04.1) date 2022-12-16 18:05:51*
%MOMM*%
%LPD*%
G01*
G04 APERTURE LIST*
G04 Aperture macros list*
%AMRoundRect*
0 Rectangle with rounded corners*
0 $1 Rounding radius*
0 $2 $3 $4 $5 $6 $7 $8 $9 X,Y pos of 4 corners*
0 Add a 4 corners polygon primitive as box body*
4,1,4,$2,$3,$4,$5,$6,$7,$8,$9,$2,$3,0*
0 Add four circle primitives for the rounded corners*
1,1,$1+$1,$2,$3*
1,1,$1+$1,$4,$5*
1,1,$1+$1,$6,$7*
1,1,$1+$1,$8,$9*
0 Add four rect primitives between the rounded corners*
20,1,$1+$1,$2,$3,$4,$5,0*
20,1,$1+$1,$4,$5,$6,$7,0*
20,1,$1+$1,$6,$7,$8,$9,0*
20,1,$1+$1,$8,$9,$2,$3,0*%
G04 Aperture macros list end*
%ADD10RoundRect,0.150000X0.587500X0.150000X-0.587500X0.150000X-0.587500X-0.150000X0.587500X-0.150000X0*%
%ADD11R,1.700000X1.700000*%
%ADD12O,1.700000X1.700000*%
%ADD13R,2.000000X1.500000*%
%ADD14R,2.000000X3.800000*%
%ADD15RoundRect,0.250000X-0.650000X0.325000X-0.650000X-0.325000X0.650000X-0.325000X0.650000X0.325000X0*%
%ADD16C,1.524000*%
%ADD17RoundRect,0.200000X0.275000X-0.200000X0.275000X0.200000X-0.275000X0.200000X-0.275000X-0.200000X0*%
%ADD18RoundRect,0.237500X0.250000X0.237500X-0.250000X0.237500X-0.250000X-0.237500X0.250000X-0.237500X0*%
%ADD19C,5.600000*%
%ADD20RoundRect,0.250000X0.650000X-0.325000X0.650000X0.325000X-0.650000X0.325000X-0.650000X-0.325000X0*%
%ADD21RoundRect,0.200000X-0.200000X-0.275000X0.200000X-0.275000X0.200000X0.275000X-0.200000X0.275000X0*%
%ADD22R,1.500000X0.900000*%
%ADD23R,0.900000X1.500000*%
%ADD24C,0.475000*%
%ADD25R,4.200000X4.200000*%
%ADD26RoundRect,0.250000X0.325000X0.650000X-0.325000X0.650000X-0.325000X-0.650000X0.325000X-0.650000X0*%
%ADD27RoundRect,0.225000X0.250000X-0.225000X0.250000X0.225000X-0.250000X0.225000X-0.250000X-0.225000X0*%
%ADD28C,4.000000*%
%ADD29RoundRect,0.225000X0.225000X0.250000X-0.225000X0.250000X-0.225000X-0.250000X0.225000X-0.250000X0*%
G04 APERTURE END LIST*
D10*
G04 #@! TO.C,Q1*
X125937500Y-90965000D03*
X125937500Y-89065000D03*
X124062500Y-90015000D03*
G04 #@! TD*
D11*
G04 #@! TO.C,J3*
X177000000Y-116525000D03*
D12*
X177000000Y-113985000D03*
X177000000Y-111445000D03*
G04 #@! TD*
D13*
G04 #@! TO.C,U2*
X138150000Y-124000000D03*
D14*
X131850000Y-121700000D03*
D13*
X138150000Y-121700000D03*
X138150000Y-119400000D03*
G04 #@! TD*
D15*
G04 #@! TO.C,C2*
X144000000Y-120525000D03*
X144000000Y-123475000D03*
G04 #@! TD*
D11*
G04 #@! TO.C,J7*
X158000000Y-129000000D03*
D12*
X160540000Y-129000000D03*
X163080000Y-129000000D03*
G04 #@! TD*
D11*
G04 #@! TO.C,J4*
X163200000Y-76000000D03*
D12*
X165740000Y-76000000D03*
X168280000Y-76000000D03*
X170820000Y-76000000D03*
G04 #@! TD*
D15*
G04 #@! TO.C,C3*
X141000000Y-120525000D03*
X141000000Y-123475000D03*
G04 #@! TD*
D16*
G04 #@! TO.C,U1*
X138856000Y-115604000D03*
X138856000Y-113064000D03*
X138856000Y-104936000D03*
X138856000Y-102396000D03*
X157398000Y-115604000D03*
X157398000Y-113064000D03*
X157398000Y-104936000D03*
X157398000Y-102396000D03*
G04 #@! TD*
D17*
G04 #@! TO.C,R3*
X128000000Y-90840000D03*
X128000000Y-89190000D03*
G04 #@! TD*
G04 #@! TO.C,R12*
X160000000Y-114825000D03*
X160000000Y-113175000D03*
G04 #@! TD*
D11*
G04 #@! TO.C,J8*
X120000000Y-105475000D03*
D12*
X120000000Y-108015000D03*
X120000000Y-110555000D03*
G04 #@! TD*
D11*
G04 #@! TO.C,J12*
X158000000Y-124000000D03*
D12*
X160540000Y-124000000D03*
X163080000Y-124000000D03*
G04 #@! TD*
D18*
G04 #@! TO.C,R10*
X134912500Y-79000000D03*
X133087500Y-79000000D03*
G04 #@! TD*
D19*
G04 #@! TO.C,REF\u002A\u002A*
X172000000Y-122000000D03*
G04 #@! TD*
D11*
G04 #@! TO.C,J1*
X173000000Y-116525000D03*
D12*
X173000000Y-113985000D03*
X173000000Y-111445000D03*
G04 #@! TD*
D11*
G04 #@! TO.C,J9*
X143650000Y-97500000D03*
D12*
X146190000Y-97500000D03*
X148730000Y-97500000D03*
X151270000Y-97500000D03*
X153810000Y-97500000D03*
X156350000Y-97500000D03*
G04 #@! TD*
D17*
G04 #@! TO.C,R11*
X162000000Y-114825000D03*
X162000000Y-113175000D03*
G04 #@! TD*
D19*
G04 #@! TO.C,REF\u002A\u002A*
X128000000Y-78000000D03*
G04 #@! TD*
D11*
G04 #@! TO.C,J5*
X182000000Y-103800000D03*
D12*
X182000000Y-101260000D03*
X182000000Y-98720000D03*
X182000000Y-96180000D03*
G04 #@! TD*
D20*
G04 #@! TO.C,C5*
X133000000Y-76975000D03*
X133000000Y-74025000D03*
G04 #@! TD*
D21*
G04 #@! TO.C,R6*
X123175000Y-110000000D03*
X124825000Y-110000000D03*
G04 #@! TD*
D11*
G04 #@! TO.C,J11*
X169000000Y-116525000D03*
D12*
X169000000Y-113985000D03*
X169000000Y-111445000D03*
G04 #@! TD*
D11*
G04 #@! TO.C,J6*
X120000000Y-89475000D03*
D12*
X120000000Y-92015000D03*
X120000000Y-94555000D03*
G04 #@! TD*
D17*
G04 #@! TO.C,R7*
X128000000Y-106825000D03*
X128000000Y-105175000D03*
G04 #@! TD*
D21*
G04 #@! TO.C,R4*
X126175000Y-94015000D03*
X127825000Y-94015000D03*
G04 #@! TD*
D22*
G04 #@! TO.C,U4*
X141250000Y-74750000D03*
X141250000Y-76020000D03*
X141250000Y-77290000D03*
X141250000Y-78560000D03*
X141250000Y-79830000D03*
X141250000Y-81100000D03*
X141250000Y-82370000D03*
X141250000Y-83640000D03*
X141250000Y-84910000D03*
X141250000Y-86180000D03*
X141250000Y-87450000D03*
X141250000Y-88720000D03*
X141250000Y-89990000D03*
X141250000Y-91260000D03*
D23*
X144290000Y-92510000D03*
X145560000Y-92510000D03*
X146830000Y-92510000D03*
X148100000Y-92510000D03*
X149370000Y-92510000D03*
X150640000Y-92510000D03*
X151910000Y-92510000D03*
X153180000Y-92510000D03*
X154450000Y-92510000D03*
X155720000Y-92510000D03*
D22*
X158750000Y-91260000D03*
X158750000Y-89990000D03*
X158750000Y-88720000D03*
X158750000Y-87450000D03*
X158750000Y-86180000D03*
X158750000Y-84910000D03*
X158750000Y-83640000D03*
X158750000Y-82370000D03*
X158750000Y-81100000D03*
X158750000Y-79830000D03*
X158750000Y-78560000D03*
X158750000Y-77290000D03*
X158750000Y-76020000D03*
X158750000Y-74750000D03*
D24*
X150082500Y-82090000D03*
X148557500Y-80565000D03*
X150082500Y-83615000D03*
X148557500Y-83615000D03*
D25*
X149320000Y-82090000D03*
D24*
X147795000Y-82852500D03*
X150845000Y-82852500D03*
X147795000Y-81327500D03*
X150082500Y-80565000D03*
X148557500Y-82090000D03*
X150845000Y-81327500D03*
X149320000Y-82852500D03*
X149320000Y-81327500D03*
G04 #@! TD*
D21*
G04 #@! TO.C,R5*
X129175000Y-94015000D03*
X130825000Y-94015000D03*
G04 #@! TD*
D26*
G04 #@! TO.C,C4*
X170475000Y-80000000D03*
X167525000Y-80000000D03*
G04 #@! TD*
D27*
G04 #@! TO.C,C6*
X135000000Y-76275000D03*
X135000000Y-74725000D03*
G04 #@! TD*
D17*
G04 #@! TO.C,R1*
X160000000Y-110825000D03*
X160000000Y-109175000D03*
G04 #@! TD*
D21*
G04 #@! TO.C,R8*
X126175000Y-110000000D03*
X127825000Y-110000000D03*
G04 #@! TD*
G04 #@! TO.C,R2*
X123175000Y-94015000D03*
X124825000Y-94015000D03*
G04 #@! TD*
D28*
G04 #@! TO.C,U3*
X177080000Y-105922000D03*
X177080000Y-84078000D03*
D16*
X163110000Y-83570000D03*
X163110000Y-86110000D03*
X163110000Y-88650000D03*
X163110000Y-91190000D03*
X163110000Y-93730000D03*
X163110000Y-96270000D03*
X163110000Y-98810000D03*
X163110000Y-101350000D03*
X163110000Y-103890000D03*
X163110000Y-106430000D03*
X178350000Y-101350000D03*
X178350000Y-98810000D03*
X178350000Y-96270000D03*
X178350000Y-93730000D03*
X178350000Y-91190000D03*
X178350000Y-88650000D03*
X171570000Y-85000000D03*
X168070000Y-85000000D03*
G04 #@! TD*
D10*
G04 #@! TO.C,Q2*
X125937500Y-106950000D03*
X125937500Y-105050000D03*
X124062500Y-106000000D03*
G04 #@! TD*
D29*
G04 #@! TO.C,C7*
X134775000Y-81000000D03*
X133225000Y-81000000D03*
G04 #@! TD*
D20*
G04 #@! TO.C,C1*
X135000000Y-110475000D03*
X135000000Y-107525000D03*
G04 #@! TD*
D21*
G04 #@! TO.C,R9*
X129175000Y-110000000D03*
X130825000Y-110000000D03*
G04 #@! TD*
D11*
G04 #@! TO.C,J10*
X165000000Y-116525000D03*
D12*
X165000000Y-113985000D03*
X165000000Y-111445000D03*
G04 #@! TD*
M02*
